%TF.GenerationSoftware,KiCad,Pcbnew,9.0.6-9.0.6~ubuntu24.04.1*%
%TF.CreationDate,2025-11-28T10:19:51+01:00*%
%TF.ProjectId,modular-processing-board,6d6f6475-6c61-4722-9d70-726f63657373,rev?*%
%TF.SameCoordinates,Original*%
%TF.FileFunction,Soldermask,Bot*%
%TF.FilePolarity,Negative*%
%FSLAX46Y46*%
G04 Gerber Fmt 4.6, Leading zero omitted, Abs format (unit mm)*
G04 Created by KiCad (PCBNEW 9.0.6-9.0.6~ubuntu24.04.1) date 2025-11-28 10:19:51*
%MOMM*%
%LPD*%
G01*
G04 APERTURE LIST*
%ADD10C,1.300000*%
%ADD11C,0.990600*%
%ADD12C,2.374900*%
%ADD13C,1.000000*%
%ADD14O,1.000000X1.600000*%
%ADD15O,1.000000X2.100000*%
%ADD16C,0.650000*%
%ADD17C,2.050000*%
%ADD18C,2.250000*%
%ADD19R,1.700000X1.700000*%
%ADD20C,1.700000*%
G04 APERTURE END LIST*
D10*
%TO.C,H101*%
X120262600Y-124693400D03*
%TD*%
%TO.C,H102*%
X66502400Y-130662400D03*
%TD*%
%TO.C,H103*%
X133341400Y-54208400D03*
%TD*%
D11*
%TO.C,J201*%
X112650000Y-49995000D03*
X110618000Y-49995000D03*
D12*
X114174000Y-51900000D03*
X109094000Y-51900000D03*
X114174000Y-55075000D03*
D11*
X111634000Y-55075000D03*
D12*
X109094000Y-55075000D03*
%TD*%
D13*
%TO.C,J401*%
X126600000Y-110100000D03*
X126600000Y-118100000D03*
%TD*%
D14*
%TO.C,J801*%
X83090000Y-51750000D03*
D15*
X83090000Y-55930000D03*
D14*
X91730000Y-51750000D03*
D15*
X91730000Y-55930000D03*
D16*
X84520000Y-55400000D03*
X90300000Y-55400000D03*
%TD*%
D17*
%TO.C,J601*%
X90090000Y-126590000D03*
D18*
X87550000Y-129130000D03*
X92630000Y-129130000D03*
X87550000Y-124050000D03*
X92630000Y-124050000D03*
%TD*%
D19*
%TO.C,J202*%
X104375000Y-62840000D03*
D20*
X104375000Y-60300000D03*
X106915000Y-62840000D03*
X106915000Y-60300000D03*
X109455000Y-62840000D03*
X109455000Y-60300000D03*
X111995000Y-62840000D03*
X111995000Y-60300000D03*
X114535000Y-62840000D03*
X114535000Y-60300000D03*
X117075000Y-62840000D03*
X117075000Y-60300000D03*
%TD*%
D19*
%TO.C,J502*%
X55860000Y-120730000D03*
D20*
X53320000Y-120730000D03*
X55860000Y-123270000D03*
X53320000Y-123270000D03*
X55860000Y-125810000D03*
X53320000Y-125810000D03*
X55860000Y-128350000D03*
X53320000Y-128350000D03*
X55860000Y-130890000D03*
X53320000Y-130890000D03*
X55860000Y-133430000D03*
X53320000Y-133430000D03*
%TD*%
D17*
%TO.C,J604*%
X74247500Y-124940000D03*
D18*
X71707500Y-127480000D03*
X76787500Y-127480000D03*
X71707500Y-122400000D03*
X76787500Y-122400000D03*
%TD*%
D19*
%TO.C,J701*%
X65512500Y-62825000D03*
D20*
X68052500Y-62825000D03*
X65512500Y-65365000D03*
X68052500Y-65365000D03*
%TD*%
M02*
