%TF.GenerationSoftware,KiCad,Pcbnew,9.0.6-9.0.6~ubuntu24.04.1*%
%TF.CreationDate,2025-11-26T21:16:59+01:00*%
%TF.ProjectId,modular-processing-board,6d6f6475-6c61-4722-9d70-726f63657373,rev?*%
%TF.SameCoordinates,Original*%
%TF.FileFunction,Soldermask,Top*%
%TF.FilePolarity,Negative*%
%FSLAX46Y46*%
G04 Gerber Fmt 4.6, Leading zero omitted, Abs format (unit mm)*
G04 Created by KiCad (PCBNEW 9.0.6-9.0.6~ubuntu24.04.1) date 2025-11-26 21:16:59*
%MOMM*%
%LPD*%
G01*
G04 APERTURE LIST*
G04 Aperture macros list*
%AMRoundRect*
0 Rectangle with rounded corners*
0 $1 Rounding radius*
0 $2 $3 $4 $5 $6 $7 $8 $9 X,Y pos of 4 corners*
0 Add a 4 corners polygon primitive as box body*
4,1,4,$2,$3,$4,$5,$6,$7,$8,$9,$2,$3,0*
0 Add four circle primitives for the rounded corners*
1,1,$1+$1,$2,$3*
1,1,$1+$1,$4,$5*
1,1,$1+$1,$6,$7*
1,1,$1+$1,$8,$9*
0 Add four rect primitives between the rounded corners*
20,1,$1+$1,$2,$3,$4,$5,0*
20,1,$1+$1,$4,$5,$6,$7,0*
20,1,$1+$1,$6,$7,$8,$9,0*
20,1,$1+$1,$8,$9,$2,$3,0*%
G04 Aperture macros list end*
%ADD10RoundRect,0.075000X-0.662500X-0.075000X0.662500X-0.075000X0.662500X0.075000X-0.662500X0.075000X0*%
%ADD11RoundRect,0.075000X-0.075000X-0.662500X0.075000X-0.662500X0.075000X0.662500X-0.075000X0.662500X0*%
%ADD12C,2.050000*%
%ADD13C,2.250000*%
%ADD14C,2.374900*%
%ADD15C,0.990600*%
%ADD16C,0.787400*%
%ADD17RoundRect,0.200000X-0.275000X0.200000X-0.275000X-0.200000X0.275000X-0.200000X0.275000X0.200000X0*%
%ADD18RoundRect,0.140000X-0.140000X-0.170000X0.140000X-0.170000X0.140000X0.170000X-0.140000X0.170000X0*%
%ADD19RoundRect,0.140000X-0.170000X0.140000X-0.170000X-0.140000X0.170000X-0.140000X0.170000X0.140000X0*%
%ADD20C,0.500000*%
%ADD21RoundRect,0.200000X-0.200000X-0.275000X0.200000X-0.275000X0.200000X0.275000X-0.200000X0.275000X0*%
%ADD22RoundRect,0.237500X0.237500X-0.300000X0.237500X0.300000X-0.237500X0.300000X-0.237500X-0.300000X0*%
%ADD23RoundRect,0.140000X0.140000X0.170000X-0.140000X0.170000X-0.140000X-0.170000X0.140000X-0.170000X0*%
%ADD24RoundRect,0.150000X-0.512500X-0.150000X0.512500X-0.150000X0.512500X0.150000X-0.512500X0.150000X0*%
%ADD25RoundRect,0.135000X-0.185000X0.135000X-0.185000X-0.135000X0.185000X-0.135000X0.185000X0.135000X0*%
%ADD26C,1.300000*%
%ADD27RoundRect,0.250000X0.250000X0.475000X-0.250000X0.475000X-0.250000X-0.475000X0.250000X-0.475000X0*%
%ADD28RoundRect,0.140000X0.170000X-0.140000X0.170000X0.140000X-0.170000X0.140000X-0.170000X-0.140000X0*%
%ADD29RoundRect,0.102000X-0.675000X-0.900000X0.675000X-0.900000X0.675000X0.900000X-0.675000X0.900000X0*%
%ADD30RoundRect,0.237500X0.250000X0.237500X-0.250000X0.237500X-0.250000X-0.237500X0.250000X-0.237500X0*%
%ADD31RoundRect,0.237500X-0.300000X-0.237500X0.300000X-0.237500X0.300000X0.237500X-0.300000X0.237500X0*%
%ADD32R,1.050000X1.000000*%
%ADD33R,2.200000X1.050000*%
%ADD34RoundRect,0.250000X-0.250000X-0.475000X0.250000X-0.475000X0.250000X0.475000X-0.250000X0.475000X0*%
%ADD35RoundRect,0.200000X0.200000X0.275000X-0.200000X0.275000X-0.200000X-0.275000X0.200000X-0.275000X0*%
%ADD36C,1.000000*%
%ADD37R,1.300000X0.700000*%
%ADD38R,1.500000X1.200000*%
%ADD39R,2.000000X1.200000*%
%ADD40R,1.500000X1.600000*%
%ADD41RoundRect,0.160000X0.160000X-0.197500X0.160000X0.197500X-0.160000X0.197500X-0.160000X-0.197500X0*%
%ADD42RoundRect,0.250000X-0.450000X-0.350000X0.450000X-0.350000X0.450000X0.350000X-0.450000X0.350000X0*%
%ADD43RoundRect,0.250000X0.300000X0.300000X-0.300000X0.300000X-0.300000X-0.300000X0.300000X-0.300000X0*%
%ADD44C,2.000000*%
%ADD45R,0.800000X0.500000*%
%ADD46R,0.800000X0.400000*%
%ADD47R,1.000000X1.500000*%
%ADD48RoundRect,0.135000X0.135000X0.185000X-0.135000X0.185000X-0.135000X-0.185000X0.135000X-0.185000X0*%
%ADD49RoundRect,0.225000X-0.225000X-0.250000X0.225000X-0.250000X0.225000X0.250000X-0.225000X0.250000X0*%
%ADD50RoundRect,0.218750X-0.256250X0.218750X-0.256250X-0.218750X0.256250X-0.218750X0.256250X0.218750X0*%
%ADD51R,1.510000X0.458000*%
%ADD52RoundRect,0.218750X-0.218750X-0.256250X0.218750X-0.256250X0.218750X0.256250X-0.218750X0.256250X0*%
%ADD53R,1.700000X1.700000*%
%ADD54C,1.700000*%
%ADD55RoundRect,0.160000X-0.197500X-0.160000X0.197500X-0.160000X0.197500X0.160000X-0.197500X0.160000X0*%
%ADD56RoundRect,0.102000X-0.900000X0.675000X-0.900000X-0.675000X0.900000X-0.675000X0.900000X0.675000X0*%
%ADD57RoundRect,0.057500X-0.272500X0.057500X-0.272500X-0.057500X0.272500X-0.057500X0.272500X0.057500X0*%
%ADD58R,0.660000X0.350000*%
%ADD59RoundRect,0.225000X0.225000X0.250000X-0.225000X0.250000X-0.225000X-0.250000X0.225000X-0.250000X0*%
%ADD60RoundRect,0.218750X0.218750X0.381250X-0.218750X0.381250X-0.218750X-0.381250X0.218750X-0.381250X0*%
%ADD61C,0.650000*%
%ADD62R,0.600000X1.450000*%
%ADD63R,0.300000X1.450000*%
%ADD64O,1.000000X2.100000*%
%ADD65O,1.000000X1.600000*%
%ADD66RoundRect,0.150000X0.150000X-0.512500X0.150000X0.512500X-0.150000X0.512500X-0.150000X-0.512500X0*%
%ADD67RoundRect,0.125000X0.687500X0.125000X-0.687500X0.125000X-0.687500X-0.125000X0.687500X-0.125000X0*%
%ADD68RoundRect,0.375000X0.625000X0.375000X-0.625000X0.375000X-0.625000X-0.375000X0.625000X-0.375000X0*%
%ADD69RoundRect,0.500000X0.500000X1.400000X-0.500000X1.400000X-0.500000X-1.400000X0.500000X-1.400000X0*%
%ADD70RoundRect,0.250000X-0.350000X-0.450000X0.350000X-0.450000X0.350000X0.450000X-0.350000X0.450000X0*%
%ADD71RoundRect,0.135000X-0.135000X-0.185000X0.135000X-0.185000X0.135000X0.185000X-0.135000X0.185000X0*%
%ADD72RoundRect,0.250000X-0.312500X-1.450000X0.312500X-1.450000X0.312500X1.450000X-0.312500X1.450000X0*%
%ADD73RoundRect,0.150000X-0.150000X0.587500X-0.150000X-0.587500X0.150000X-0.587500X0.150000X0.587500X0*%
%ADD74RoundRect,0.250000X0.350000X0.450000X-0.350000X0.450000X-0.350000X-0.450000X0.350000X-0.450000X0*%
%ADD75R,1.000000X1.000000*%
G04 APERTURE END LIST*
%TO.C,JP202*%
G36*
X69276200Y-99796600D02*
G01*
X68976200Y-99796600D01*
X68976200Y-98296600D01*
X69276200Y-98296600D01*
X69276200Y-99796600D01*
G37*
%TO.C,JP602*%
G36*
X102605000Y-120125000D02*
G01*
X102305000Y-120125000D01*
X102305000Y-118625000D01*
X102605000Y-118625000D01*
X102605000Y-120125000D01*
G37*
%TD*%
D10*
%TO.C,U201*%
X71337500Y-78250000D03*
X71337500Y-78750000D03*
X71337500Y-79250000D03*
X71337500Y-79750000D03*
X71337500Y-80250000D03*
X71337500Y-80750000D03*
X71337500Y-81250000D03*
X71337500Y-81750000D03*
X71337500Y-82250000D03*
X71337500Y-82750000D03*
X71337500Y-83250000D03*
X71337500Y-83750000D03*
X71337500Y-84250000D03*
X71337500Y-84750000D03*
X71337500Y-85250000D03*
X71337500Y-85750000D03*
X71337500Y-86250000D03*
X71337500Y-86750000D03*
X71337500Y-87250000D03*
X71337500Y-87750000D03*
X71337500Y-88250000D03*
X71337500Y-88750000D03*
X71337500Y-89250000D03*
X71337500Y-89750000D03*
X71337500Y-90250000D03*
X71337500Y-90750000D03*
X71337500Y-91250000D03*
X71337500Y-91750000D03*
X71337500Y-92250000D03*
X71337500Y-92750000D03*
X71337500Y-93250000D03*
X71337500Y-93750000D03*
X71337500Y-94250000D03*
X71337500Y-94750000D03*
X71337500Y-95250000D03*
X71337500Y-95750000D03*
D11*
X73250000Y-97662500D03*
X73750000Y-97662500D03*
X74250000Y-97662500D03*
X74750000Y-97662500D03*
X75250000Y-97662500D03*
X75750000Y-97662500D03*
X76250000Y-97662500D03*
X76750000Y-97662500D03*
X77250000Y-97662500D03*
X77750000Y-97662500D03*
X78250000Y-97662500D03*
X78750000Y-97662500D03*
X79250000Y-97662500D03*
X79750000Y-97662500D03*
X80250000Y-97662500D03*
X80750000Y-97662500D03*
X81250000Y-97662500D03*
X81750000Y-97662500D03*
X82250000Y-97662500D03*
X82750000Y-97662500D03*
X83250000Y-97662500D03*
X83750000Y-97662500D03*
X84250000Y-97662500D03*
X84750000Y-97662500D03*
X85250000Y-97662500D03*
X85750000Y-97662500D03*
X86250000Y-97662500D03*
X86750000Y-97662500D03*
X87250000Y-97662500D03*
X87750000Y-97662500D03*
X88250000Y-97662500D03*
X88750000Y-97662500D03*
X89250000Y-97662500D03*
X89750000Y-97662500D03*
X90250000Y-97662500D03*
X90750000Y-97662500D03*
D10*
X92662500Y-95750000D03*
X92662500Y-95250000D03*
X92662500Y-94750000D03*
X92662500Y-94250000D03*
X92662500Y-93750000D03*
X92662500Y-93250000D03*
X92662500Y-92750000D03*
X92662500Y-92250000D03*
X92662500Y-91750000D03*
X92662500Y-91250000D03*
X92662500Y-90750000D03*
X92662500Y-90250000D03*
X92662500Y-89750000D03*
X92662500Y-89250000D03*
X92662500Y-88750000D03*
X92662500Y-88250000D03*
X92662500Y-87750000D03*
X92662500Y-87250000D03*
X92662500Y-86750000D03*
X92662500Y-86250000D03*
X92662500Y-85750000D03*
X92662500Y-85250000D03*
X92662500Y-84750000D03*
X92662500Y-84250000D03*
X92662500Y-83750000D03*
X92662500Y-83250000D03*
X92662500Y-82750000D03*
X92662500Y-82250000D03*
X92662500Y-81750000D03*
X92662500Y-81250000D03*
X92662500Y-80750000D03*
X92662500Y-80250000D03*
X92662500Y-79750000D03*
X92662500Y-79250000D03*
X92662500Y-78750000D03*
X92662500Y-78250000D03*
D11*
X90750000Y-76337500D03*
X90250000Y-76337500D03*
X89750000Y-76337500D03*
X89250000Y-76337500D03*
X88750000Y-76337500D03*
X88250000Y-76337500D03*
X87750000Y-76337500D03*
X87250000Y-76337500D03*
X86750000Y-76337500D03*
X86250000Y-76337500D03*
X85750000Y-76337500D03*
X85250000Y-76337500D03*
X84750000Y-76337500D03*
X84250000Y-76337500D03*
X83750000Y-76337500D03*
X83250000Y-76337500D03*
X82750000Y-76337500D03*
X82250000Y-76337500D03*
X81750000Y-76337500D03*
X81250000Y-76337500D03*
X80750000Y-76337500D03*
X80250000Y-76337500D03*
X79750000Y-76337500D03*
X79250000Y-76337500D03*
X78750000Y-76337500D03*
X78250000Y-76337500D03*
X77750000Y-76337500D03*
X77250000Y-76337500D03*
X76750000Y-76337500D03*
X76250000Y-76337500D03*
X75750000Y-76337500D03*
X75250000Y-76337500D03*
X74750000Y-76337500D03*
X74250000Y-76337500D03*
X73750000Y-76337500D03*
X73250000Y-76337500D03*
%TD*%
D12*
%TO.C,J601*%
X90090000Y-126590000D03*
D13*
X87550000Y-129130000D03*
X92630000Y-129130000D03*
X87550000Y-124050000D03*
X92630000Y-124050000D03*
%TD*%
D14*
%TO.C,J201*%
X109094000Y-55075000D03*
D15*
X111634000Y-55075000D03*
D14*
X114174000Y-55075000D03*
X109094000Y-51900000D03*
X114174000Y-51900000D03*
D15*
X110618000Y-49995000D03*
X112650000Y-49995000D03*
D16*
X112269000Y-53805000D03*
X110999000Y-53805000D03*
X112269000Y-52535000D03*
X110999000Y-52535000D03*
X112269000Y-51265000D03*
X110999000Y-51265000D03*
%TD*%
D17*
%TO.C,R604*%
X102710000Y-128730000D03*
X102710000Y-130380000D03*
%TD*%
D18*
%TO.C,C617*%
X79237500Y-114330000D03*
X80197500Y-114330000D03*
%TD*%
D19*
%TO.C,C211*%
X91200000Y-99140000D03*
X91200000Y-100100000D03*
%TD*%
D20*
%TO.C,TP701*%
X49546200Y-90643400D03*
%TD*%
D21*
%TO.C,R1009*%
X95935000Y-112990000D03*
X97585000Y-112990000D03*
%TD*%
D22*
%TO.C,C612*%
X95390000Y-125222500D03*
X95390000Y-123497500D03*
%TD*%
D23*
%TO.C,C804*%
X81235000Y-52640000D03*
X80275000Y-52640000D03*
%TD*%
D24*
%TO.C,U202*%
X103934500Y-51648000D03*
X103934500Y-52598000D03*
X103934500Y-53548000D03*
X106209500Y-53548000D03*
X106209500Y-52598000D03*
X106209500Y-51648000D03*
%TD*%
D25*
%TO.C,R209*%
X129190000Y-64192500D03*
X129190000Y-65212500D03*
%TD*%
D26*
%TO.C,H101*%
X120262600Y-124693400D03*
%TD*%
D27*
%TO.C,C223*%
X67110000Y-96290000D03*
X65210000Y-96290000D03*
%TD*%
D19*
%TO.C,C208*%
X94237500Y-89907500D03*
X94237500Y-90867500D03*
%TD*%
D28*
%TO.C,C604*%
X83494400Y-118019600D03*
X83494400Y-117059600D03*
%TD*%
D29*
%TO.C,SW201*%
X117175000Y-56500000D03*
X121325000Y-56500000D03*
%TD*%
D19*
%TO.C,C1227*%
X63250000Y-88860000D03*
X63250000Y-89820000D03*
%TD*%
%TO.C,C209*%
X94275000Y-84352500D03*
X94275000Y-85312500D03*
%TD*%
D30*
%TO.C,R620*%
X97722500Y-107980000D03*
X95897500Y-107980000D03*
%TD*%
D25*
%TO.C,R206*%
X123260000Y-64352500D03*
X123260000Y-65372500D03*
%TD*%
D28*
%TO.C,C309*%
X133820000Y-96550000D03*
X133820000Y-95590000D03*
%TD*%
D31*
%TO.C,C614*%
X69415000Y-119380000D03*
X71140000Y-119380000D03*
%TD*%
D30*
%TO.C,R1001*%
X88103500Y-107744000D03*
X86278500Y-107744000D03*
%TD*%
D32*
%TO.C,J602*%
X84885000Y-106175000D03*
D33*
X83360000Y-107650000D03*
X83360000Y-104700000D03*
%TD*%
D20*
%TO.C,TP404*%
X75352600Y-57217000D03*
%TD*%
D34*
%TO.C,C215*%
X74805000Y-101692500D03*
X76705000Y-101692500D03*
%TD*%
D35*
%TO.C,R810*%
X92010000Y-61360000D03*
X90360000Y-61360000D03*
%TD*%
D18*
%TO.C,C304*%
X114000000Y-87800000D03*
X114960000Y-87800000D03*
%TD*%
D21*
%TO.C,R214*%
X108450000Y-57700000D03*
X110100000Y-57700000D03*
%TD*%
D23*
%TO.C,C218*%
X69865000Y-93695000D03*
X68905000Y-93695000D03*
%TD*%
D31*
%TO.C,C1016*%
X85547500Y-115110000D03*
X87272500Y-115110000D03*
%TD*%
D26*
%TO.C,H103*%
X133341400Y-54208400D03*
%TD*%
D36*
%TO.C,J401*%
X126600000Y-118100000D03*
X126600000Y-110100000D03*
D37*
X115750000Y-110900000D03*
X115750000Y-112000000D03*
X115750000Y-113100000D03*
X115750000Y-114200000D03*
X115750000Y-115300000D03*
X115750000Y-116400000D03*
X115750000Y-117500000D03*
X115750000Y-118600000D03*
X115750000Y-119700000D03*
D38*
X116600000Y-120900000D03*
D39*
X126300000Y-120900000D03*
D40*
X116600000Y-105810000D03*
D39*
X126300000Y-105400000D03*
%TD*%
D28*
%TO.C,C601*%
X103050000Y-124615000D03*
X103050000Y-123655000D03*
%TD*%
D20*
%TO.C,TP202*%
X65206200Y-100046200D03*
%TD*%
D41*
%TO.C,R616*%
X75217500Y-118907500D03*
X75217500Y-117712500D03*
%TD*%
D28*
%TO.C,C1101*%
X114070000Y-77490000D03*
X114070000Y-76530000D03*
%TD*%
D42*
%TO.C,Y1201*%
X64800000Y-90250000D03*
X67000000Y-90250000D03*
X67000000Y-88550000D03*
X64800000Y-88550000D03*
%TD*%
D17*
%TO.C,R614*%
X77847500Y-107615000D03*
X77847500Y-109265000D03*
%TD*%
D35*
%TO.C,R208*%
X120500000Y-53900000D03*
X118850000Y-53900000D03*
%TD*%
D17*
%TO.C,R606*%
X101100000Y-131810000D03*
X101100000Y-133460000D03*
%TD*%
D43*
%TO.C,D703*%
X73587500Y-66100000D03*
X70787500Y-66100000D03*
%TD*%
D18*
%TO.C,C210*%
X84432500Y-74385000D03*
X85392500Y-74385000D03*
%TD*%
D44*
%TO.C,FID101*%
X122614200Y-126524000D03*
%TD*%
D23*
%TO.C,C204*%
X69880000Y-81000000D03*
X68920000Y-81000000D03*
%TD*%
D32*
%TO.C,J1001*%
X99156000Y-106502000D03*
D33*
X100681000Y-105027000D03*
X100681000Y-107977000D03*
%TD*%
D45*
%TO.C,RN707*%
X132100000Y-112600000D03*
D46*
X132100000Y-113400000D03*
X132100000Y-114200000D03*
D45*
X132100000Y-115000000D03*
X133900000Y-115000000D03*
D46*
X133900000Y-114200000D03*
X133900000Y-113400000D03*
D45*
X133900000Y-112600000D03*
%TD*%
D23*
%TO.C,C214*%
X74365000Y-99115000D03*
X73405000Y-99115000D03*
%TD*%
D20*
%TO.C,TP402*%
X81475800Y-50922600D03*
%TD*%
D35*
%TO.C,R805*%
X95189000Y-51757000D03*
X93539000Y-51757000D03*
%TD*%
D47*
%TO.C,JP202*%
X69776200Y-99046600D03*
X68476200Y-99046600D03*
%TD*%
D18*
%TO.C,C618*%
X79237500Y-115330000D03*
X80197500Y-115330000D03*
%TD*%
D48*
%TO.C,R216*%
X121185000Y-58700000D03*
X120165000Y-58700000D03*
%TD*%
D49*
%TO.C,C1107*%
X106670000Y-100805000D03*
X108220000Y-100805000D03*
%TD*%
D21*
%TO.C,R1024*%
X85585000Y-113340000D03*
X87235000Y-113340000D03*
%TD*%
D20*
%TO.C,TP401*%
X132578800Y-120971000D03*
%TD*%
D17*
%TO.C,R618*%
X72877500Y-107655000D03*
X72877500Y-109305000D03*
%TD*%
D20*
%TO.C,TP403*%
X97672000Y-53490000D03*
%TD*%
D35*
%TO.C,R628*%
X97525000Y-109670000D03*
X95875000Y-109670000D03*
%TD*%
D31*
%TO.C,C1012*%
X96047500Y-114980000D03*
X97772500Y-114980000D03*
%TD*%
D35*
%TO.C,R1006*%
X98605000Y-123510000D03*
X96955000Y-123510000D03*
%TD*%
%TO.C,R215*%
X113700000Y-57700000D03*
X112050000Y-57700000D03*
%TD*%
D21*
%TO.C,R629*%
X86005000Y-109620000D03*
X87655000Y-109620000D03*
%TD*%
D23*
%TO.C,C217*%
X126680000Y-53775000D03*
X125720000Y-53775000D03*
%TD*%
D28*
%TO.C,C207*%
X69810000Y-92710000D03*
X69810000Y-91750000D03*
%TD*%
D48*
%TO.C,R210*%
X127510000Y-60975000D03*
X126490000Y-60975000D03*
%TD*%
D23*
%TO.C,C307*%
X119270000Y-94260000D03*
X118310000Y-94260000D03*
%TD*%
D17*
%TO.C,R602*%
X107450000Y-122885000D03*
X107450000Y-124535000D03*
%TD*%
D50*
%TO.C,D201*%
X123260000Y-66752500D03*
X123260000Y-68327500D03*
%TD*%
D28*
%TO.C,C813*%
X71355000Y-75772500D03*
X71355000Y-74812500D03*
%TD*%
D35*
%TO.C,R627*%
X86985000Y-119410000D03*
X85335000Y-119410000D03*
%TD*%
D21*
%TO.C,R608*%
X81147500Y-120760000D03*
X82797500Y-120760000D03*
%TD*%
D51*
%TO.C,U301*%
X112550000Y-98179600D03*
X112550000Y-97379600D03*
X112550000Y-96579600D03*
X112550000Y-95779600D03*
X112550000Y-94979600D03*
X112550000Y-94179600D03*
X112550000Y-93379600D03*
X112550000Y-92579600D03*
X112550000Y-91779600D03*
X112550000Y-90979600D03*
X112550000Y-90179600D03*
X112550000Y-89379600D03*
X112550000Y-88579600D03*
X112550000Y-87779600D03*
X112550000Y-86979600D03*
X112550000Y-86179600D03*
X112550000Y-85379600D03*
X112550000Y-84579600D03*
X112550000Y-83779600D03*
X112550000Y-82979600D03*
X112550000Y-82179600D03*
X112550000Y-81379600D03*
X112550000Y-80579600D03*
X112550000Y-79779600D03*
X112550000Y-78979600D03*
X112550000Y-78179600D03*
X112550000Y-77379600D03*
X101050000Y-77379600D03*
X101050000Y-78179600D03*
X101050000Y-78979600D03*
X101050000Y-79779600D03*
X101050000Y-80579600D03*
X101050000Y-81379600D03*
X101050000Y-82179600D03*
X101050000Y-82979600D03*
X101050000Y-83779600D03*
X101050000Y-84579600D03*
X101050000Y-85379600D03*
X101050000Y-86179600D03*
X101050000Y-86979600D03*
X101050000Y-87779600D03*
X101050000Y-88579600D03*
X101050000Y-89379600D03*
X101050000Y-90179600D03*
X101050000Y-90979600D03*
X101050000Y-91779600D03*
X101050000Y-92579600D03*
X101050000Y-93379600D03*
X101050000Y-94179600D03*
X101050000Y-94979600D03*
X101050000Y-95779600D03*
X101050000Y-96579600D03*
X101050000Y-97379600D03*
X101050000Y-98179600D03*
%TD*%
D23*
%TO.C,C619*%
X92080000Y-114750000D03*
X91120000Y-114750000D03*
%TD*%
D44*
%TO.C,FID102*%
X131478800Y-56972800D03*
%TD*%
D17*
%TO.C,R615*%
X77727500Y-110745000D03*
X77727500Y-112395000D03*
%TD*%
D52*
%TO.C,D602*%
X72400000Y-60100000D03*
X73975000Y-60100000D03*
%TD*%
D53*
%TO.C,J202*%
X104375000Y-62840000D03*
D54*
X104375000Y-60300000D03*
X106915000Y-62840000D03*
X106915000Y-60300000D03*
X109455000Y-62840000D03*
X109455000Y-60300000D03*
X111995000Y-62840000D03*
X111995000Y-60300000D03*
X114535000Y-62840000D03*
X114535000Y-60300000D03*
X117075000Y-62840000D03*
X117075000Y-60300000D03*
%TD*%
D28*
%TO.C,C1103*%
X114090000Y-96990000D03*
X114090000Y-96030000D03*
%TD*%
%TO.C,C608*%
X84513000Y-118008000D03*
X84513000Y-117048000D03*
%TD*%
D22*
%TO.C,C610*%
X79517500Y-121712500D03*
X79517500Y-119987500D03*
%TD*%
D55*
%TO.C,R1201*%
X68602500Y-89000000D03*
X69797500Y-89000000D03*
%TD*%
D56*
%TO.C,SW602*%
X127000000Y-55225000D03*
X127000000Y-59375000D03*
%TD*%
D28*
%TO.C,C310*%
X133870000Y-91750000D03*
X133870000Y-90790000D03*
%TD*%
D19*
%TO.C,C305*%
X133800000Y-97910000D03*
X133800000Y-98870000D03*
%TD*%
D17*
%TO.C,R601*%
X99560000Y-128345000D03*
X99560000Y-129995000D03*
%TD*%
D27*
%TO.C,C219*%
X67110000Y-94290000D03*
X65210000Y-94290000D03*
%TD*%
D57*
%TO.C,J501*%
X54800000Y-78800000D03*
X52090000Y-78800000D03*
X54800000Y-79200000D03*
X52090000Y-79200000D03*
X54800000Y-79600000D03*
X52090000Y-79600000D03*
X54800000Y-80000000D03*
X52090000Y-80000000D03*
X54800000Y-80400000D03*
X52090000Y-80400000D03*
X54800000Y-80800000D03*
X52090000Y-80800000D03*
X54800000Y-81200000D03*
X52090000Y-81200000D03*
X54800000Y-81600000D03*
X52090000Y-81600000D03*
X54800000Y-82000000D03*
X52090000Y-82000000D03*
X54800000Y-82400000D03*
X52090000Y-82400000D03*
X54800000Y-82800000D03*
X52090000Y-82800000D03*
X54800000Y-83200000D03*
X52090000Y-83200000D03*
X54800000Y-83600000D03*
X52090000Y-83600000D03*
X54800000Y-84000000D03*
X52090000Y-84000000D03*
X54800000Y-84400000D03*
X52090000Y-84400000D03*
X54800000Y-84800000D03*
X52090000Y-84800000D03*
X54800000Y-85200000D03*
X52090000Y-85200000D03*
X54800000Y-85600000D03*
X52090000Y-85600000D03*
X54800000Y-86000000D03*
X52090000Y-86000000D03*
X54800000Y-86400000D03*
X52090000Y-86400000D03*
X54800000Y-86800000D03*
X52090000Y-86800000D03*
X54800000Y-87200000D03*
X52090000Y-87200000D03*
X54800000Y-87600000D03*
X52090000Y-87600000D03*
X54800000Y-88000000D03*
X52090000Y-88000000D03*
X54800000Y-88400000D03*
X52090000Y-88400000D03*
X54800000Y-88800000D03*
X52090000Y-88800000D03*
X54800000Y-89200000D03*
X52090000Y-89200000D03*
X54800000Y-89600000D03*
X52090000Y-89600000D03*
X54800000Y-90000000D03*
X52090000Y-90000000D03*
X54800000Y-90400000D03*
X52090000Y-90400000D03*
X54800000Y-90800000D03*
X52090000Y-90800000D03*
X54800000Y-91200000D03*
X52090000Y-91200000D03*
X54800000Y-91600000D03*
X52090000Y-91600000D03*
X54800000Y-92000000D03*
X52090000Y-92000000D03*
X54800000Y-92400000D03*
X52090000Y-92400000D03*
X54800000Y-92800000D03*
X52090000Y-92800000D03*
X54800000Y-93200000D03*
X52090000Y-93200000D03*
X54800000Y-93600000D03*
X52090000Y-93600000D03*
X54800000Y-94000000D03*
X52090000Y-94000000D03*
X54800000Y-94400000D03*
X52090000Y-94400000D03*
D58*
X54800000Y-78325000D03*
X52090000Y-78325000D03*
X54800000Y-94875000D03*
X52090000Y-94875000D03*
%TD*%
D17*
%TO.C,R609*%
X79917500Y-107595000D03*
X79917500Y-109245000D03*
%TD*%
D24*
%TO.C,U401*%
X83362500Y-59850000D03*
X83362500Y-60800000D03*
X83362500Y-61750000D03*
X85637500Y-61750000D03*
X85637500Y-60800000D03*
X85637500Y-59850000D03*
%TD*%
D27*
%TO.C,C701*%
X59892400Y-55882200D03*
X57992400Y-55882200D03*
%TD*%
D35*
%TO.C,R610*%
X71212500Y-107640000D03*
X69562500Y-107640000D03*
%TD*%
D21*
%TO.C,R809*%
X90360000Y-59760000D03*
X92010000Y-59760000D03*
%TD*%
D18*
%TO.C,C303*%
X114000000Y-98200000D03*
X114960000Y-98200000D03*
%TD*%
D17*
%TO.C,R1019*%
X89230000Y-112925000D03*
X89230000Y-114575000D03*
%TD*%
D18*
%TO.C,C1025*%
X95464000Y-116243000D03*
X96424000Y-116243000D03*
%TD*%
D59*
%TO.C,C312*%
X131295000Y-75665000D03*
X129745000Y-75665000D03*
%TD*%
D31*
%TO.C,C613*%
X85297500Y-121350000D03*
X87022500Y-121350000D03*
%TD*%
D53*
%TO.C,J502*%
X55860000Y-120730000D03*
D54*
X53320000Y-120730000D03*
X55860000Y-123270000D03*
X53320000Y-123270000D03*
X55860000Y-125810000D03*
X53320000Y-125810000D03*
X55860000Y-128350000D03*
X53320000Y-128350000D03*
X55860000Y-130890000D03*
X53320000Y-130890000D03*
X55860000Y-133430000D03*
X53320000Y-133430000D03*
%TD*%
D23*
%TO.C,C302*%
X99480000Y-89400000D03*
X98520000Y-89400000D03*
%TD*%
D51*
%TO.C,U302*%
X132300000Y-98200000D03*
X132300000Y-97400000D03*
X132300000Y-96600000D03*
X132300000Y-95800000D03*
X132300000Y-95000000D03*
X132300000Y-94200000D03*
X132300000Y-93400000D03*
X132300000Y-92600000D03*
X132300000Y-91800000D03*
X132300000Y-91000000D03*
X132300000Y-90200000D03*
X132300000Y-89400000D03*
X132300000Y-88600000D03*
X132300000Y-87800000D03*
X132300000Y-87000000D03*
X132300000Y-86200000D03*
X132300000Y-85400000D03*
X132300000Y-84600000D03*
X132300000Y-83800000D03*
X132300000Y-83000000D03*
X132300000Y-82200000D03*
X132300000Y-81400000D03*
X132300000Y-80600000D03*
X132300000Y-79800000D03*
X132300000Y-79000000D03*
X132300000Y-78200000D03*
X132300000Y-77400000D03*
X120800000Y-77400000D03*
X120800000Y-78200000D03*
X120800000Y-79000000D03*
X120800000Y-79800000D03*
X120800000Y-80600000D03*
X120800000Y-81400000D03*
X120800000Y-82200000D03*
X120800000Y-83000000D03*
X120800000Y-83800000D03*
X120800000Y-84600000D03*
X120800000Y-85400000D03*
X120800000Y-86200000D03*
X120800000Y-87000000D03*
X120800000Y-87800000D03*
X120800000Y-88600000D03*
X120800000Y-89400000D03*
X120800000Y-90200000D03*
X120800000Y-91000000D03*
X120800000Y-91800000D03*
X120800000Y-92600000D03*
X120800000Y-93400000D03*
X120800000Y-94200000D03*
X120800000Y-95000000D03*
X120800000Y-95800000D03*
X120800000Y-96600000D03*
X120800000Y-97400000D03*
X120800000Y-98200000D03*
%TD*%
D17*
%TO.C,R617*%
X72897500Y-110855000D03*
X72897500Y-112505000D03*
%TD*%
D18*
%TO.C,C301*%
X114120000Y-91800000D03*
X115080000Y-91800000D03*
%TD*%
D60*
%TO.C,L701*%
X111852500Y-126610000D03*
X109727500Y-126610000D03*
%TD*%
D18*
%TO.C,C224*%
X94120000Y-79000000D03*
X95080000Y-79000000D03*
%TD*%
D31*
%TO.C,C615*%
X69525000Y-113190000D03*
X71250000Y-113190000D03*
%TD*%
%TO.C,C1015*%
X90947500Y-108740000D03*
X92672500Y-108740000D03*
%TD*%
D44*
%TO.C,FID104*%
X72790200Y-53608400D03*
%TD*%
D23*
%TO.C,C313*%
X99480000Y-94400000D03*
X98520000Y-94400000D03*
%TD*%
D20*
%TO.C,TP602*%
X107450000Y-121535000D03*
%TD*%
D35*
%TO.C,R605*%
X110585000Y-124670000D03*
X108935000Y-124670000D03*
%TD*%
D17*
%TO.C,R626*%
X89230000Y-109595000D03*
X89230000Y-111245000D03*
%TD*%
D21*
%TO.C,R611*%
X79572500Y-110890000D03*
X81222500Y-110890000D03*
%TD*%
D23*
%TO.C,C220*%
X86080000Y-99182500D03*
X85120000Y-99182500D03*
%TD*%
D35*
%TO.C,R612*%
X71272500Y-117530000D03*
X69622500Y-117530000D03*
%TD*%
D61*
%TO.C,J801*%
X90300000Y-55400000D03*
X84520000Y-55400000D03*
D62*
X90660000Y-56845000D03*
X89860000Y-56845000D03*
D63*
X88660000Y-56845000D03*
X87660000Y-56845000D03*
X87160000Y-56845000D03*
X86160000Y-56845000D03*
D62*
X84960000Y-56845000D03*
X84160000Y-56845000D03*
X84160000Y-56845000D03*
X84960000Y-56845000D03*
D63*
X85660000Y-56845000D03*
X86660000Y-56845000D03*
X88160000Y-56845000D03*
X89160000Y-56845000D03*
D62*
X89860000Y-56845000D03*
X90660000Y-56845000D03*
D64*
X91730000Y-55930000D03*
D65*
X91730000Y-51750000D03*
D64*
X83090000Y-55930000D03*
D65*
X83090000Y-51750000D03*
%TD*%
D19*
%TO.C,C306*%
X133900000Y-87920000D03*
X133900000Y-88880000D03*
%TD*%
D27*
%TO.C,C221*%
X86625000Y-100692500D03*
X84725000Y-100692500D03*
%TD*%
D66*
%TO.C,U601*%
X104250000Y-127410000D03*
X105200000Y-127410000D03*
X106150000Y-127410000D03*
X106150000Y-125135000D03*
X104250000Y-125135000D03*
%TD*%
D12*
%TO.C,J604*%
X74247500Y-124940000D03*
D13*
X71707500Y-127480000D03*
X76787500Y-127480000D03*
X71707500Y-122400000D03*
X76787500Y-122400000D03*
%TD*%
D21*
%TO.C,R401*%
X132149800Y-118057200D03*
X133799800Y-118057200D03*
%TD*%
D28*
%TO.C,C311*%
X133850000Y-77320000D03*
X133850000Y-76360000D03*
%TD*%
D27*
%TO.C,C703*%
X59882312Y-59990600D03*
X57982312Y-59990600D03*
%TD*%
%TO.C,C702*%
X59880200Y-57961000D03*
X57980200Y-57961000D03*
%TD*%
D31*
%TO.C,C609*%
X79705000Y-112560000D03*
X81430000Y-112560000D03*
%TD*%
D18*
%TO.C,C205*%
X79435000Y-74812500D03*
X80395000Y-74812500D03*
%TD*%
D67*
%TO.C,U1002*%
X93882500Y-118012500D03*
X93882500Y-117362500D03*
X93882500Y-116712500D03*
X93882500Y-116062500D03*
X89657500Y-116062500D03*
X89657500Y-116712500D03*
X89657500Y-117362500D03*
X89657500Y-118012500D03*
%TD*%
D31*
%TO.C,C611*%
X74495000Y-106170000D03*
X76220000Y-106170000D03*
%TD*%
D68*
%TO.C,U701*%
X68387500Y-59700000D03*
X68387500Y-57400000D03*
D69*
X62087500Y-57400000D03*
D68*
X68387500Y-55100000D03*
%TD*%
D70*
%TO.C,R207*%
X102275000Y-57500000D03*
X104275000Y-57500000D03*
%TD*%
D23*
%TO.C,C401*%
X113380000Y-114300000D03*
X112420000Y-114300000D03*
%TD*%
D71*
%TO.C,R703*%
X70077500Y-60100000D03*
X71097500Y-60100000D03*
%TD*%
D67*
%TO.C,U603*%
X77530000Y-116022500D03*
X77530000Y-115372500D03*
X77530000Y-114722500D03*
X77530000Y-114072500D03*
X73305000Y-114072500D03*
X73305000Y-114722500D03*
X73305000Y-115372500D03*
X73305000Y-116022500D03*
%TD*%
D44*
%TO.C,FID103*%
X63914800Y-131566600D03*
%TD*%
D23*
%TO.C,C216*%
X117530000Y-54300000D03*
X116570000Y-54300000D03*
%TD*%
D48*
%TO.C,R201*%
X128630000Y-53785000D03*
X127610000Y-53785000D03*
%TD*%
D47*
%TO.C,JP602*%
X103105000Y-119375000D03*
X101805000Y-119375000D03*
%TD*%
D72*
%TO.C,F2*%
X70787500Y-62900000D03*
X75062500Y-62900000D03*
%TD*%
D73*
%TO.C,U602*%
X106150000Y-129535000D03*
X104250000Y-129535000D03*
X105200000Y-131410000D03*
%TD*%
D17*
%TO.C,R619*%
X73017500Y-117585000D03*
X73017500Y-119235000D03*
%TD*%
D19*
%TO.C,C222*%
X90210000Y-99130000D03*
X90210000Y-100090000D03*
%TD*%
D18*
%TO.C,C807*%
X90130000Y-58560000D03*
X91090000Y-58560000D03*
%TD*%
D17*
%TO.C,R607*%
X102710000Y-131730000D03*
X102710000Y-133380000D03*
%TD*%
D23*
%TO.C,C605*%
X68325600Y-116587800D03*
X67365600Y-116587800D03*
%TD*%
D74*
%TO.C,R217*%
X103475000Y-65700000D03*
X101475000Y-65700000D03*
%TD*%
D28*
%TO.C,C212*%
X72355000Y-75852500D03*
X72355000Y-74892500D03*
%TD*%
D23*
%TO.C,C606*%
X106130000Y-121935000D03*
X105170000Y-121935000D03*
%TD*%
D26*
%TO.C,H102*%
X66502400Y-130662400D03*
%TD*%
D21*
%TO.C,R621*%
X69582500Y-111420000D03*
X71232500Y-111420000D03*
%TD*%
D74*
%TO.C,R218*%
X107475000Y-65700000D03*
X105475000Y-65700000D03*
%TD*%
D75*
%TO.C,TP601*%
X98295000Y-131755000D03*
%TD*%
D23*
%TO.C,C203*%
X81115000Y-99242500D03*
X80155000Y-99242500D03*
%TD*%
D18*
%TO.C,C603*%
X105250000Y-122935000D03*
X106210000Y-122935000D03*
%TD*%
D17*
%TO.C,R625*%
X94310000Y-109605000D03*
X94310000Y-111255000D03*
%TD*%
D21*
%TO.C,R402*%
X132150400Y-116502800D03*
X133800400Y-116502800D03*
%TD*%
D17*
%TO.C,R1016*%
X94280000Y-112905000D03*
X94280000Y-114555000D03*
%TD*%
%TO.C,R613*%
X77377500Y-117885000D03*
X77377500Y-119535000D03*
%TD*%
D20*
%TO.C,TP201*%
X68838400Y-69919800D03*
%TD*%
D41*
%TO.C,R1015*%
X91810000Y-120787500D03*
X91810000Y-119592500D03*
%TD*%
D18*
%TO.C,C1024*%
X95490000Y-117280000D03*
X96450000Y-117280000D03*
%TD*%
D50*
%TO.C,D401*%
X129190000Y-66605000D03*
X129190000Y-68180000D03*
%TD*%
D23*
%TO.C,C602*%
X103058000Y-126935000D03*
X102098000Y-126935000D03*
%TD*%
%TO.C,C616*%
X75790000Y-112772500D03*
X74830000Y-112772500D03*
%TD*%
D53*
%TO.C,J701*%
X65512500Y-62825000D03*
D54*
X68052500Y-62825000D03*
X65512500Y-65365000D03*
X68052500Y-65365000D03*
%TD*%
D23*
%TO.C,C201*%
X69480000Y-90000000D03*
X68520000Y-90000000D03*
%TD*%
D17*
%TO.C,R1013*%
X95300000Y-120155000D03*
X95300000Y-121805000D03*
%TD*%
D28*
%TO.C,C607*%
X75153000Y-109025600D03*
X75153000Y-108065600D03*
%TD*%
D74*
%TO.C,R203*%
X68800000Y-75200000D03*
X66800000Y-75200000D03*
%TD*%
D23*
%TO.C,C308*%
X119270000Y-89280000D03*
X118310000Y-89280000D03*
%TD*%
D18*
%TO.C,C805*%
X93509000Y-50557000D03*
X94469000Y-50557000D03*
%TD*%
D17*
%TO.C,R603*%
X101090000Y-128810000D03*
X101090000Y-130460000D03*
%TD*%
D19*
%TO.C,C202*%
X94200000Y-77120000D03*
X94200000Y-78080000D03*
%TD*%
D23*
%TO.C,C213*%
X69835000Y-94692500D03*
X68875000Y-94692500D03*
%TD*%
D21*
%TO.C,R804*%
X79555000Y-53930000D03*
X81205000Y-53930000D03*
%TD*%
D17*
%TO.C,R1021*%
X89290000Y-119835000D03*
X89290000Y-121485000D03*
%TD*%
D28*
%TO.C,C206*%
X69805000Y-86142500D03*
X69805000Y-85182500D03*
%TD*%
M02*
