M48
; DRILL file {KiCad 9.0.6-9.0.6~ubuntu24.04.1} date 2025-11-26T21:30:28+0100
; FORMAT={-:-/ absolute / metric / decimal}
; #@! TF.CreationDate,2025-11-26T21:30:28+01:00
; #@! TF.GenerationSoftware,Kicad,Pcbnew,9.0.6-9.0.6~ubuntu24.04.1
; #@! TF.FileFunction,Plated,1,6,PTH
FMAT,2
METRIC
; #@! TA.AperFunction,Plated,PTH,ViaDrill
T1C0.300
; #@! TA.AperFunction,Plated,PTH,ComponentDrill
T2C0.600
; #@! TA.AperFunction,Plated,PTH,ComponentDrill
T3C1.000
; #@! TA.AperFunction,Plated,PTH,ComponentDrill
T4C1.500
; #@! TA.AperFunction,Plated,PTH,ComponentDrill
T5C1.700
%
G90
G05
T1
X50.6Y-91.8
X50.6Y-92.5
X50.6Y-93.2
X50.6Y-93.9
X50.63Y-94.69
X51.1Y-81.1
X51.23Y-83.18
X51.23Y-83.82
X51.26Y-79.23
X51.267Y-81.78
X51.27Y-82.38
X51.3Y-84.871
X51.31Y-85.58
X51.38Y-86.42
X51.4Y-87.16
X51.43Y-88.0
X51.84Y-77.74
X52.792Y-89.583
X52.876Y-85.494
X52.961Y-89.002
X53.099Y-79.92
X53.099Y-82.92
X53.1Y-80.46
X53.1Y-90.1
X53.2Y-82.0
X53.2Y-84.2
X53.205Y-81.195
X53.451Y-86.861
X53.543Y-88.494
X53.694Y-83.001
X53.803Y-84.748
X53.81Y-86.26
X53.85Y-80.45
X53.86Y-79.8
X53.88Y-87.332
X53.973Y-81.297
X54.081Y-85.391
X54.9Y-75.638
X54.98Y-77.429
X55.244Y-76.13
X55.474Y-85.538
X55.5Y-74.4
X55.628Y-89.682
X55.882Y-92.651
X55.909Y-93.2
X55.91Y-94.85
X55.92Y-86.892
X55.92Y-93.75
X55.92Y-94.3
X55.93Y-82.41
X55.94Y-87.92
X55.95Y-83.922
X56.099Y-74.468
X56.165Y-80.869
X56.17Y-79.2
X56.286Y-57.683
X56.312Y-55.804
X56.363Y-60.63
X56.388Y-59.284
X56.794Y-88.24
X57.197Y-74.178
X57.437Y-82.367
X57.6Y-73.7
X57.836Y-79.139
X57.94Y-88.8
X58.021Y-82.229
X58.259Y-94.915
X58.369Y-89.357
X58.434Y-79.087
X58.471Y-80.917
X58.572Y-93.818
X58.63Y-79.654
X58.889Y-94.929
X58.899Y-93.314
X59.0Y-81.2
X59.043Y-89.903
X60.602Y-86.096
X60.762Y-77.435
X60.858Y-87.902
X60.99Y-86.562
X61.3Y-77.7
X61.694Y-87.906
X61.842Y-89.48
X62.289Y-88.137
X62.33Y-89.85
X62.369Y-80.514
X62.442Y-81.213
X63.48Y-87.99
X64.056Y-94.954
X64.12Y-95.81
X65.389Y-92.571
X65.95Y-89.596
X66.0Y-76.556
X66.294Y-102.997
X66.56Y-76.53
X67.14Y-76.53
X67.26Y-97.71
X67.29Y-98.55
X67.366Y-115.778
X67.564Y-102.997
X68.174Y-93.349
X68.3Y-81.48
X68.36Y-117.52
X68.478Y-86.309
X68.608Y-76.556
X68.682Y-82.194
X68.71Y-82.83
X68.794Y-78.164
X68.82Y-83.659
X68.9Y-88.162
X68.923Y-95.378
X68.961Y-90.678
X68.98Y-91.81
X69.0Y-77.6
X69.0Y-86.258
X69.2Y-76.456
X69.225Y-92.358
X69.484Y-80.396
X69.5Y-108.88
X69.53Y-106.53
X69.548Y-81.638
X69.59Y-116.36
X69.98Y-102.65
X70.4Y-58.42
X70.47Y-67.64
X71.069Y-99.729
X71.08Y-67.64
X71.56Y-96.76
X71.68Y-97.74
X71.747Y-73.444
X71.78Y-98.58
X71.99Y-99.729
X72.02Y-66.16
X72.376Y-96.261
X72.56Y-99.69
X72.575Y-88.328
X72.604Y-81.771
X72.66Y-85.828
X72.712Y-91.918
X72.77Y-92.73
X72.881Y-103.571
X72.896Y-83.108
X72.9Y-95.2
X72.967Y-82.248
X73.009Y-93.349
X73.022Y-104.16
X73.079Y-103.004
X73.13Y-74.899
X73.205Y-88.415
X73.304Y-91.796
X73.369Y-92.768
X73.488Y-95.319
X73.686Y-102.928
X73.785Y-96.575
X73.8Y-88.5
X74.19Y-112.76
X74.29Y-91.66
X74.295Y-87.249
X74.399Y-87.97
X74.4Y-114.722
X74.636Y-83.004
X74.862Y-91.48
X74.93Y-102.997
X75.081Y-81.541
X75.12Y-87.3
X75.18Y-66.88
X75.18Y-96.38
X75.226Y-83.112
X75.23Y-119.79
X75.343Y-80.78
X75.43Y-99.995
X75.458Y-99.396
X75.489Y-66.269
X75.641Y-103.302
X75.66Y-59.92
X75.691Y-80.291
X75.707Y-74.809
X75.79Y-111.96
X75.79Y-113.87
X76.11Y-118.91
X76.135Y-108.066
X76.24Y-114.62
X76.26Y-115.46
X76.3Y-74.9
X76.352Y-109.118
X76.396Y-81.91
X76.48Y-66.34
X76.49Y-62.52
X76.49Y-64.13
X76.52Y-61.33
X76.54Y-112.75
X76.556Y-103.62
X76.581Y-109.728
X76.8Y-100.2
X76.815Y-74.581
X76.98Y-81.77
X77.25Y-75.057
X77.287Y-99.269
X77.483Y-100.163
X77.63Y-101.43
X78.045Y-75.155
X78.162Y-70.832
X78.272Y-74.549
X78.511Y-53.848
X78.539Y-71.299
X79.248Y-68.453
X79.4Y-52.74
X79.54Y-68.95
X79.553Y-99.642
X79.604Y-54.889
X79.629Y-68.072
X80.0Y-91.2
X80.25Y-51.77
X80.39Y-73.63
X80.518Y-91.542
X80.721Y-90.932
X81.026Y-115.189
X81.09Y-114.25
X81.19Y-109.76
X81.21Y-109.17
X81.483Y-77.673
X81.483Y-91.034
X81.559Y-104.699
X81.59Y-108.48
X81.67Y-60.84
X81.8Y-91.8
X81.945Y-70.739
X81.961Y-73.798
X82.151Y-71.302
X82.2Y-77.621
X82.4Y-57.54
X82.4Y-58.47
X82.541Y-74.023
X82.609Y-91.209
X82.68Y-102.49
X82.704Y-71.536
X82.797Y-118.132
X83.119Y-90.843
X83.261Y-116.18
X83.312Y-102.514
X83.4Y-91.643
X83.42Y-58.54
X83.624Y-70.364
X83.652Y-99.642
X83.84Y-73.72
X83.994Y-98.872
X84.07Y-121.7
X84.082Y-73.171
X84.125Y-116.18
X84.134Y-99.455
X84.2Y-78.2
X84.2Y-96.542
X84.32Y-68.81
X84.43Y-108.54
X84.5Y-58.54
X84.6Y-90.556
X84.764Y-108.116
X84.87Y-68.81
X84.878Y-95.188
X85.0Y-77.629
X85.0Y-109.04
X85.03Y-109.61
X85.115Y-104.445
X85.179Y-89.978
X85.297Y-122.45
X85.335Y-117.905
X85.36Y-73.61
X85.547Y-91.135
X85.704Y-89.687
X85.83Y-89.1
X85.9Y-58.9
X86.04Y-73.908
X86.209Y-58.386
X86.64Y-73.922
X86.766Y-102.489
X86.919Y-91.389
X87.372Y-73.932
X87.4Y-91.8
X87.401Y-102.307
X87.5Y-58.6
X87.5Y-99.313
X87.897Y-73.407
X87.96Y-101.94
X87.985Y-74.001
X88.036Y-86.665
X88.08Y-88.9
X88.138Y-98.851
X88.2Y-68.82
X88.214Y-116.18
X88.346Y-86.124
X88.39Y-101.61
X88.513Y-89.315
X88.519Y-83.185
X88.646Y-73.152
X88.794Y-86.602
X88.86Y-68.84
X88.944Y-89.575
X89.01Y-88.978
X89.013Y-87.16
X89.02Y-58.63
X89.04Y-59.95
X89.05Y-59.27
X89.05Y-98.85
X89.209Y-96.409
X89.256Y-83.21
X89.35Y-80.87
X89.535Y-93.955
X89.578Y-99.635
X89.6Y-89.6
X89.6Y-91.2
X89.6Y-95.2
X89.604Y-86.622
X89.638Y-92.121
X89.673Y-95.803
X89.967Y-80.975
X90.0Y-92.6
X90.086Y-84.284
X90.134Y-93.51
X90.2Y-82.2
X90.68Y-84.37
X90.761Y-81.986
X90.83Y-62.433
X91.159Y-54.035
X91.178Y-93.422
X91.204Y-82.396
X91.222Y-90.256
X91.23Y-113.93
X91.25Y-78.322
X91.288Y-98.527
X91.522Y-90.778
X91.58Y-116.83
X91.7Y-121.71
X91.75Y-98.82
X91.84Y-57.68
X91.973Y-99.642
X92.0Y-58.54
X92.09Y-117.22
X92.27Y-73.69
X92.748Y-73.299
X92.79Y-117.56
X93.07Y-72.792
X93.07Y-120.83
X93.32Y-55.499
X93.939Y-91.757
X93.98Y-93.25
X94.307Y-86.211
X94.603Y-101.358
X94.64Y-91.728
X94.691Y-93.285
X94.869Y-53.213
X94.93Y-89.47
X95.004Y-94.222
X95.009Y-85.859
X95.01Y-78.222
X95.07Y-84.48
X95.144Y-69.985
X95.25Y-50.673
X95.297Y-101.375
X95.61Y-84.43
X95.758Y-70.104
X96.1Y-76.4
X96.139Y-50.673
X96.139Y-52.067
X96.393Y-70.4
X96.686Y-76.529
X96.8Y-83.2
X96.816Y-54.035
X96.901Y-91.796
X97.155Y-115.829
X97.165Y-116.339
X97.231Y-92.329
X97.282Y-82.647
X97.612Y-88.903
X97.85Y-80.869
X98.049Y-98.826
X98.09Y-117.75
X98.12Y-93.041
X98.196Y-97.13
X98.25Y-82.621
X98.274Y-75.578
X98.31Y-83.778
X98.4Y-93.578
X98.4Y-99.313
X98.417Y-81.098
X98.42Y-109.65
X98.458Y-85.695
X98.49Y-88.425
X98.49Y-117.13
X98.52Y-95.178
X98.657Y-84.756
X98.661Y-78.699
X98.712Y-98.312
X98.824Y-75.833
X98.933Y-104.9
X98.936Y-81.4
X98.988Y-96.856
X98.995Y-76.422
X99.004Y-97.778
X99.069Y-84.285
X99.131Y-86.304
X99.16Y-85.378
X99.18Y-79.0
X99.26Y-109.97
X99.4Y-96.4
X99.41Y-126.576
X99.48Y-88.75
X99.79Y-123.11
X99.79Y-123.63
X100.06Y-133.52
X100.71Y-125.25
X100.711Y-55.415
X100.754Y-54.639
X100.78Y-98.97
X100.99Y-134.27
X101.12Y-58.934
X101.26Y-127.84
X101.346Y-54.737
X101.346Y-126.492
X101.695Y-59.105
X101.805Y-113.605
X101.854Y-109.093
X102.135Y-89.112
X102.2Y-124.74
X102.36Y-87.938
X102.362Y-96.577
X102.362Y-108.204
X102.39Y-126.23
X102.41Y-82.732
X102.413Y-99.568
X102.489Y-105.283
X102.57Y-77.54
X102.616Y-52.578
X102.616Y-83.769
X102.69Y-134.33
X102.707Y-90.667
X102.802Y-91.394
X102.997Y-56.32
X103.242Y-99.378
X103.378Y-54.483
X103.378Y-95.786
X103.622Y-95.0
X103.8Y-99.6
X103.86Y-133.16
X103.88Y-123.63
X103.949Y-95.546
X104.137Y-54.457
X104.32Y-130.95
X104.44Y-121.98
X104.45Y-122.92
X104.47Y-120.92
X105.029Y-52.324
X105.097Y-53.482
X105.156Y-51.689
X105.2Y-126.3
X105.2Y-128.59
X105.791Y-64.389
X106.096Y-110.871
X106.15Y-131.61
X106.67Y-102.2
X106.793Y-110.922
X107.351Y-94.816
X107.527Y-53.467
X107.654Y-49.657
X107.654Y-52.959
X107.735Y-79.768
X107.855Y-95.142
X108.01Y-127.51
X108.03Y-126.75
X108.04Y-125.99
X108.17Y-80.182
X108.17Y-84.8
X108.21Y-102.1
X108.295Y-87.887
X108.306Y-79.29
X108.74Y-86.178
X108.763Y-87.511
X108.796Y-85.467
X108.839Y-112.405
X108.839Y-113.005
X109.11Y-94.215
X109.2Y-77.0
X109.319Y-81.878
X109.34Y-92.979
X109.486Y-91.994
X109.522Y-86.382
X109.525Y-77.622
X109.6Y-100.6
X109.78Y-94.222
X109.8Y-78.2
X109.82Y-97.328
X109.909Y-101.114
X109.916Y-86.846
X109.93Y-81.978
X110.02Y-91.44
X110.125Y-94.8
X110.128Y-89.596
X110.136Y-83.112
X110.2Y-89.0
X110.515Y-97.587
X110.59Y-123.67
X110.728Y-83.265
X110.8Y-89.6
X110.829Y-56.007
X111.396Y-56.269
X111.54Y-114.31
X111.69Y-124.65
X111.718Y-50.546
X112.614Y-118.752
X112.62Y-99.422
X112.72Y-127.58
X112.988Y-53.213
X112.988Y-53.848
X113.1Y-118.4
X113.22Y-127.05
X113.27Y-125.93
X113.96Y-91.02
X113.96Y-94.19
X113.98Y-99.42
X113.99Y-88.44
X113.99Y-89.442
X114.19Y-95.292
X114.38Y-114.01
X114.39Y-114.6
X114.4Y-66.73
X114.85Y-76.738
X114.89Y-91.06
X114.91Y-99.365
X114.99Y-88.43
X115.062Y-66.675
X115.11Y-67.93
X115.16Y-105.74
X115.69Y-67.93
X115.75Y-99.5
X116.18Y-73.66
X116.31Y-67.94
X116.55Y-53.36
X116.995Y-73.555
X117.01Y-114.25
X117.424Y-110.108
X117.598Y-94.414
X117.6Y-76.8
X117.6Y-81.4
X117.67Y-116.38
X117.704Y-85.562
X117.757Y-82.842
X117.8Y-121.53
X117.805Y-88.697
X117.85Y-93.338
X117.86Y-79.0
X117.86Y-91.978
X117.87Y-83.86
X117.907Y-117.5
X118.008Y-96.774
X118.038Y-78.427
X118.177Y-76.637
X118.178Y-81.238
X118.213Y-82.437
X118.216Y-88.041
X118.418Y-85.612
X118.428Y-93.5
X118.455Y-92.056
X118.46Y-83.966
X118.51Y-111.96
X118.6Y-98.4
X118.623Y-80.472
X118.635Y-97.019
X119.23Y-93.238
X119.26Y-88.457
X119.278Y-98.755
X119.329Y-97.13
X119.466Y-84.342
X119.71Y-68.44
X120.19Y-59.71
X120.752Y-116.154
X120.92Y-98.7
X121.2Y-75.2
X121.6Y-54.29
X121.61Y-53.58
X121.818Y-75.082
X122.123Y-87.189
X122.13Y-77.39
X122.18Y-64.34
X122.2Y-96.2
X122.22Y-91.978
X122.6Y-90.2
X122.67Y-86.718
X122.878Y-95.99
X122.94Y-96.504
X123.187Y-90.325
X123.22Y-63.56
X123.59Y-95.01
X123.62Y-117.67
X123.706Y-118.264
X124.027Y-95.421
X124.12Y-70.1
X124.72Y-105.26
X124.968Y-70.053
X125.73Y-52.87
X126.3Y-122.19
X126.49Y-61.93
X126.695Y-116.561
X127.35Y-114.94
X127.412Y-115.537
X127.45Y-69.46
X127.7Y-80.6
X127.759Y-78.979
X127.77Y-79.579
X127.967Y-114.522
X128.067Y-80.112
X128.16Y-64.18
X128.168Y-75.387
X128.473Y-114.2
X128.59Y-78.447
X128.975Y-77.975
X128.99Y-54.75
X129.2Y-63.35
X129.476Y-82.105
X129.52Y-53.7
X129.55Y-54.42
X129.75Y-74.56
X129.8Y-81.6
X129.857Y-84.017
X129.897Y-89.882
X130.0Y-82.4
X130.0Y-83.2
X130.0Y-84.6
X130.0Y-91.8
X130.011Y-77.811
X130.099Y-77.216
X130.117Y-97.921
X130.2Y-90.4
X130.245Y-85.516
X130.251Y-92.405
X130.294Y-98.494
X130.313Y-96.194
X130.346Y-83.69
X130.4Y-89.4
X130.4Y-95.6
X130.454Y-94.742
X130.463Y-87.391
X130.6Y-86.0
X130.6Y-93.0
X130.609Y-86.809
X130.8Y-94.2
X130.903Y-96.303
X131.037Y-87.563
X131.35Y-76.89
X132.131Y-76.124
X132.436Y-76.81
X133.01Y-76.36
X133.02Y-98.89
X133.6Y-83.2
X133.87Y-92.54
X133.87Y-94.62
X133.88Y-93.73
X133.888Y-83.726
X133.9Y-89.85
X133.91Y-87.07
X134.57Y-90.77
X134.57Y-97.91
X134.6Y-96.56
X134.66Y-77.33
X134.72Y-91.78
X134.84Y-88.91
X135.04Y-117.54
X135.09Y-112.6
X135.1Y-114.18
X135.12Y-113.42
X135.12Y-115.05
T3
X53.32Y-120.73
X53.32Y-123.27
X53.32Y-125.81
X53.32Y-128.35
X53.32Y-130.89
X53.32Y-133.43
X55.86Y-120.73
X55.86Y-123.27
X55.86Y-125.81
X55.86Y-128.35
X55.86Y-130.89
X55.86Y-133.43
X65.513Y-62.825
X65.513Y-65.365
X68.052Y-62.825
X68.052Y-65.365
X104.375Y-60.3
X104.375Y-62.84
X106.915Y-60.3
X106.915Y-62.84
X109.455Y-60.3
X109.455Y-62.84
X111.995Y-60.3
X111.995Y-62.84
X114.535Y-60.3
X114.535Y-62.84
X117.075Y-60.3
X117.075Y-62.84
T4
X74.248Y-124.94
X90.09Y-126.59
T5
X71.707Y-122.4
X71.707Y-127.48
X76.787Y-122.4
X76.787Y-127.48
X87.55Y-124.05
X87.55Y-129.13
X92.63Y-124.05
X92.63Y-129.13
T2
X83.09Y-52.05G85X83.09Y-51.45
G05
X83.09Y-56.48G85X83.09Y-55.38
G05
X91.73Y-52.05G85X91.73Y-51.45
G05
X91.73Y-56.48G85X91.73Y-55.38
G05
M30
