%TF.GenerationSoftware,KiCad,Pcbnew,9.0.6-9.0.6~ubuntu24.04.1*%
%TF.CreationDate,2025-11-23T23:16:39+01:00*%
%TF.ProjectId,modular-processing-board,6d6f6475-6c61-4722-9d70-726f63657373,rev?*%
%TF.SameCoordinates,Original*%
%TF.FileFunction,Copper,L4,Inr*%
%TF.FilePolarity,Positive*%
%FSLAX46Y46*%
G04 Gerber Fmt 4.6, Leading zero omitted, Abs format (unit mm)*
G04 Created by KiCad (PCBNEW 9.0.6-9.0.6~ubuntu24.04.1) date 2025-11-23 23:16:39*
%MOMM*%
%LPD*%
G01*
G04 APERTURE LIST*
%TA.AperFunction,ComponentPad*%
%ADD10C,2.050000*%
%TD*%
%TA.AperFunction,ComponentPad*%
%ADD11C,2.250000*%
%TD*%
%TA.AperFunction,ComponentPad*%
%ADD12R,1.700000X1.700000*%
%TD*%
%TA.AperFunction,ComponentPad*%
%ADD13C,1.700000*%
%TD*%
%TA.AperFunction,HeatsinkPad*%
%ADD14O,1.000000X2.100000*%
%TD*%
%TA.AperFunction,HeatsinkPad*%
%ADD15O,1.000000X1.600000*%
%TD*%
%TA.AperFunction,ViaPad*%
%ADD16C,0.400000*%
%TD*%
%TA.AperFunction,ViaPad*%
%ADD17C,0.450000*%
%TD*%
%TA.AperFunction,ViaPad*%
%ADD18C,0.600000*%
%TD*%
%TA.AperFunction,Conductor*%
%ADD19C,0.142500*%
%TD*%
%TA.AperFunction,Conductor*%
%ADD20C,0.156500*%
%TD*%
G04 APERTURE END LIST*
D10*
%TO.N,Net-(J601-In)*%
%TO.C,J601*%
X90090000Y-126590000D03*
D11*
%TO.N,GND*%
X87550000Y-129130000D03*
X92630000Y-129130000D03*
X87550000Y-124050000D03*
X92630000Y-124050000D03*
%TD*%
D12*
%TO.N,Net-(J202-Pin_1)*%
%TO.C,J202*%
X104375000Y-62840000D03*
D13*
%TO.N,Net-(J202-Pin_2)*%
X104375000Y-60300000D03*
%TO.N,Net-(J202-Pin_3)*%
X106915000Y-62840000D03*
%TO.N,GND*%
X106915000Y-60300000D03*
%TO.N,+3V3*%
X109455000Y-62840000D03*
%TO.N,Net-(J202-Pin_6)*%
X109455000Y-60300000D03*
%TO.N,+3V3*%
X111995000Y-62840000D03*
%TO.N,Net-(J202-Pin_8)*%
X111995000Y-60300000D03*
%TO.N,/mcu/MCU_BOOT0*%
X114535000Y-62840000D03*
%TO.N,GND*%
X114535000Y-60300000D03*
X117075000Y-62840000D03*
%TO.N,/mcu/MCU_NRST*%
X117075000Y-60300000D03*
%TD*%
D12*
%TO.N,/connectors/I2C.SDA*%
%TO.C,J502*%
X55860000Y-120730000D03*
D13*
%TO.N,GND*%
X53320000Y-120730000D03*
%TO.N,/connectors/I2C.SCL*%
X55860000Y-123270000D03*
%TO.N,/connectors/PBOOST_EN*%
X53320000Y-123270000D03*
%TO.N,/connectors/AD_ALERT*%
X55860000Y-125810000D03*
%TO.N,GND*%
X53320000Y-125810000D03*
%TO.N,/connectors/PSEPIC_EN*%
X55860000Y-128350000D03*
%TO.N,/connectors/PWM.1_HI*%
X53320000Y-128350000D03*
%TO.N,/connectors/PWM.1_LI*%
X55860000Y-130890000D03*
%TO.N,GND*%
X53320000Y-130890000D03*
%TO.N,/connectors/PWM.0_LI*%
X55860000Y-133430000D03*
%TO.N,/connectors/PWM.0_HI*%
X53320000Y-133430000D03*
%TD*%
D14*
%TO.N,GND*%
%TO.C,J801*%
X91730000Y-55930000D03*
D15*
X91730000Y-51750000D03*
D14*
X83090000Y-55930000D03*
D15*
X83090000Y-51750000D03*
%TD*%
D10*
%TO.N,Net-(J604-In)*%
%TO.C,J604*%
X74247500Y-124940000D03*
D11*
%TO.N,GND*%
X71707500Y-127480000D03*
X76787500Y-127480000D03*
X71707500Y-122400000D03*
X76787500Y-122400000D03*
%TD*%
D12*
%TO.N,/power/LDO_OUT*%
%TO.C,J701*%
X65512500Y-62825000D03*
D13*
%TO.N,Net-(J701-Pin_2)*%
X68052500Y-62825000D03*
%TO.N,/connectors/HRS_3V3*%
X65512500Y-65365000D03*
%TO.N,Net-(J701-Pin_2)*%
X68052500Y-65365000D03*
%TD*%
D16*
%TO.N,GND*%
X129750000Y-74560000D03*
X110590000Y-123670000D03*
X91250000Y-78321750D03*
X84763643Y-108116357D03*
X74862402Y-91480114D03*
X109110143Y-94215258D03*
D17*
X83261200Y-116179600D03*
D16*
X81961450Y-73798350D03*
X133010000Y-76360000D03*
X86208735Y-58385525D03*
X130462522Y-87390762D03*
X115160000Y-105740000D03*
X129476482Y-82105311D03*
X105029000Y-52324000D03*
X101820000Y-127110000D03*
X98520000Y-95178250D03*
X117598213Y-94414000D03*
D17*
X111718000Y-50546000D03*
D16*
X73685732Y-102928144D03*
X123220000Y-63560000D03*
X134840000Y-88910000D03*
X81483200Y-91033600D03*
X95008978Y-85858751D03*
X109820270Y-97327765D03*
X68608392Y-76556500D03*
X127758912Y-78979350D03*
X81090000Y-114250000D03*
X102489000Y-105283000D03*
X61842393Y-89479974D03*
X55930000Y-82410000D03*
X103242481Y-99378250D03*
X111540000Y-114310000D03*
D18*
X65388577Y-92571423D03*
D16*
X68300000Y-81480000D03*
X107735238Y-79768250D03*
X108210000Y-102100000D03*
X129896874Y-89882199D03*
X95010000Y-78221750D03*
X115062000Y-66675000D03*
X51230000Y-83180000D03*
X130098800Y-77216000D03*
X88214200Y-116179600D03*
X68820000Y-83658750D03*
X76814787Y-74581031D03*
X106150000Y-131610000D03*
X89966800Y-80975200D03*
X114909600Y-99364800D03*
X53850000Y-80450000D03*
X97282000Y-82647250D03*
X77630000Y-101430000D03*
X112614043Y-118751921D03*
X94869000Y-53213000D03*
X98049235Y-98826072D03*
X125730000Y-52870000D03*
D18*
X85297500Y-122450000D03*
D16*
X92000000Y-58540000D03*
X83652070Y-99641750D03*
X76396447Y-81909522D03*
X89673137Y-95803211D03*
X80390000Y-73630000D03*
X75343495Y-80780157D03*
X55910000Y-94850000D03*
X96139000Y-52067000D03*
X128168400Y-75387200D03*
X130251200Y-92405200D03*
X108796275Y-85466650D03*
D18*
X56311800Y-55803800D03*
D16*
X90086142Y-84284356D03*
X133020000Y-98890000D03*
X68794037Y-78163545D03*
D17*
X84124800Y-116179600D03*
D16*
X133870000Y-94620000D03*
X84081515Y-73170752D03*
X104470000Y-120920000D03*
X102390000Y-126230000D03*
X52791967Y-89583105D03*
X70470000Y-67640000D03*
X128066800Y-80111600D03*
X87985327Y-74000589D03*
X92748250Y-73299084D03*
X68980000Y-91810000D03*
X91973400Y-99641750D03*
X109524800Y-77622400D03*
X51300000Y-84871250D03*
X79552800Y-99641750D03*
X57197499Y-74178250D03*
X55473600Y-85538000D03*
X58470676Y-80917478D03*
X98824025Y-75833311D03*
X102409963Y-82732150D03*
X93319600Y-55499000D03*
X98711603Y-98312050D03*
X117800000Y-121530000D03*
D18*
X56362600Y-60629800D03*
D16*
X90830400Y-62433200D03*
X83119040Y-90843159D03*
X73008799Y-93348750D03*
X53972867Y-81297133D03*
X119278400Y-98755200D03*
X123186827Y-90325050D03*
X117670000Y-116380000D03*
X78511400Y-53848000D03*
X122939954Y-96504091D03*
X100990000Y-134270000D03*
X113990000Y-89441750D03*
X63480000Y-87990000D03*
X117805200Y-88696800D03*
X80250000Y-51770000D03*
X56170000Y-79200000D03*
X124968000Y-70053200D03*
X129200000Y-63350000D03*
D18*
X64120000Y-95810000D03*
D16*
X82400000Y-57540000D03*
X88519000Y-83185000D03*
X55920000Y-93749997D03*
X71747366Y-73444493D03*
X111396416Y-56269043D03*
X94640400Y-91728250D03*
X107351373Y-94816300D03*
X130313198Y-96193691D03*
X96686024Y-76528750D03*
X102690000Y-134330000D03*
X78161887Y-70832413D03*
X72603784Y-81770875D03*
X102802385Y-91393635D03*
D18*
X64056065Y-94953935D03*
D16*
X80518000Y-91541600D03*
X118417611Y-85612050D03*
X53880264Y-87332332D03*
X70400000Y-58420000D03*
X130116693Y-97921121D03*
X124720000Y-105260000D03*
X85000000Y-77628750D03*
X84878250Y-95188117D03*
X102362000Y-108204000D03*
X101119798Y-58934279D03*
X58434124Y-79087274D03*
X121818400Y-75082400D03*
X74400000Y-114722500D03*
X114850000Y-76738250D03*
X108839000Y-112404597D03*
X88793635Y-86601842D03*
X103949156Y-95546139D03*
X55920000Y-94300000D03*
X74190000Y-112760000D03*
X65950000Y-89596250D03*
X81944710Y-70738992D03*
X88513378Y-89314953D03*
X95758000Y-70104000D03*
X118213229Y-82436570D03*
X60761543Y-77435300D03*
X110135582Y-83112453D03*
X96901000Y-91795600D03*
X88138000Y-98850865D03*
X104440000Y-121980000D03*
X51270000Y-82380000D03*
X73785338Y-96575279D03*
X134570000Y-90770000D03*
X122220000Y-91978250D03*
X53100000Y-80460000D03*
X102360000Y-87938250D03*
X56098616Y-74467834D03*
X123705528Y-118263875D03*
X55628447Y-89682000D03*
D18*
X67365600Y-115778000D03*
D16*
X109318553Y-81878250D03*
X90134284Y-93510149D03*
X104450000Y-122920000D03*
X133888392Y-83726149D03*
X122130000Y-77390000D03*
X96139000Y-50673000D03*
X130245143Y-85516183D03*
X51400000Y-87160000D03*
X130454400Y-94742000D03*
X55908778Y-93200109D03*
X74295000Y-87249000D03*
D18*
X56286400Y-57683400D03*
D16*
X73021568Y-104160215D03*
X68173600Y-93348750D03*
X114890000Y-91060000D03*
X75429924Y-99995418D03*
X91230000Y-113930000D03*
X88944408Y-89574656D03*
X68961000Y-90678000D03*
X53860000Y-79800000D03*
X85547200Y-91135200D03*
X75706883Y-74809365D03*
X118177399Y-76636865D03*
X78271750Y-74549000D03*
X97165125Y-116339145D03*
X85360000Y-73610000D03*
X60601864Y-86096136D03*
X51430000Y-88000000D03*
X100754002Y-54639321D03*
X53693528Y-83000866D03*
X100060000Y-133520000D03*
X85115400Y-104444800D03*
X57436909Y-82366520D03*
X80750000Y-115290000D03*
X91840000Y-57680000D03*
X98933000Y-104900000D03*
X77482695Y-100162782D03*
X58258625Y-94915074D03*
X109485540Y-91993850D03*
X84134353Y-99455172D03*
X73204843Y-88414858D03*
X108295334Y-87887386D03*
X124026864Y-95421282D03*
X55940000Y-87920000D03*
X103860000Y-133160000D03*
X111690000Y-124650000D03*
X89578031Y-99635336D03*
X51267152Y-81779753D03*
X72020000Y-66160000D03*
X68923057Y-95378057D03*
X118037816Y-78426951D03*
X103880000Y-123630000D03*
X98458403Y-85695249D03*
X129856675Y-84017367D03*
X51260000Y-79230000D03*
X88646000Y-73152000D03*
X62369420Y-80514345D03*
D18*
X84070000Y-121700000D03*
D16*
X55882334Y-92650742D03*
X71080000Y-67640000D03*
X109522233Y-86381750D03*
X133880000Y-93730000D03*
X118427886Y-93499652D03*
X102362000Y-96577100D03*
X102570000Y-77540000D03*
X81590000Y-108480000D03*
X113960000Y-94190000D03*
X96680000Y-116080000D03*
X58898748Y-93314307D03*
X98119619Y-93040844D03*
X55243937Y-76129640D03*
X84430000Y-108540000D03*
X106792946Y-110921750D03*
X98660964Y-78699000D03*
X127412447Y-115536744D03*
X104136596Y-54457204D03*
X114990000Y-88430000D03*
X51230000Y-83820000D03*
X128160000Y-64180000D03*
X104320000Y-130950000D03*
X94691200Y-93284519D03*
X60857946Y-87901999D03*
X98417309Y-81097850D03*
X51310000Y-85580000D03*
X79603600Y-54889400D03*
X133900000Y-89850000D03*
X127966763Y-114521750D03*
X73130000Y-74899000D03*
X89638075Y-92121450D03*
X81559400Y-104698800D03*
X101854000Y-109093000D03*
X91221583Y-90256383D03*
X118634686Y-97018812D03*
X72660000Y-85828250D03*
X88036400Y-86664800D03*
X105200000Y-126300000D03*
X122180000Y-64340000D03*
X126300000Y-122190000D03*
X109909056Y-101114284D03*
X118455003Y-92055521D03*
X105200000Y-128590000D03*
X98988225Y-96855744D03*
X120920000Y-98700000D03*
X53099000Y-79920000D03*
X53802855Y-84748017D03*
X116550000Y-53360000D03*
X55950114Y-83921750D03*
X110127989Y-89595663D03*
X120190000Y-59710000D03*
X122878250Y-95989556D03*
X81670000Y-60840000D03*
X118460478Y-83966480D03*
X86918800Y-91389200D03*
X53810000Y-86260000D03*
X54980000Y-77428750D03*
X95250000Y-50673000D03*
X75225837Y-83111886D03*
D18*
X76135200Y-108065600D03*
D16*
X90761386Y-81986073D03*
X79400000Y-52740000D03*
X99068633Y-84285250D03*
X94603201Y-101357799D03*
X126490000Y-61930000D03*
X58369200Y-89357200D03*
X122123200Y-87189500D03*
X51840000Y-77740000D03*
X51380000Y-86420000D03*
X55920000Y-86892000D03*
D18*
X56388000Y-59283600D03*
D16*
X56165171Y-80868813D03*
X128589884Y-78447500D03*
X118177787Y-81238250D03*
X114190000Y-95291750D03*
X73368789Y-92768136D03*
X130346088Y-83690132D03*
X73488134Y-95318751D03*
X102616000Y-52578000D03*
X100780000Y-98970000D03*
X97612200Y-88903250D03*
X81483200Y-77673200D03*
X73304400Y-91795600D03*
X85703557Y-89686528D03*
%TO.N,+3V3*%
X134660000Y-77330000D03*
X121610000Y-53580000D03*
D18*
X113270000Y-125930000D03*
D16*
X83312000Y-102514400D03*
X107527000Y-53467000D03*
X69000000Y-86258400D03*
X117010000Y-114250000D03*
X75180000Y-66880000D03*
X66000000Y-76556500D03*
X67140000Y-76530000D03*
X82680000Y-102490000D03*
X95610000Y-84430000D03*
X88390000Y-101610000D03*
X112620000Y-99421750D03*
X107654000Y-52959000D03*
X112988000Y-53848000D03*
X76555656Y-103620000D03*
D18*
X112720000Y-127580000D03*
D16*
X113960000Y-91020000D03*
X133870000Y-92540000D03*
X79530000Y-68380000D03*
X87960000Y-101940000D03*
X135090000Y-112600000D03*
X84870003Y-68810000D03*
X132435600Y-76809600D03*
X76490000Y-62520000D03*
X106670000Y-102200000D03*
X102135403Y-89111751D03*
X128990000Y-54750000D03*
X135120000Y-113420000D03*
X129520000Y-53700000D03*
X115690000Y-67930000D03*
X134720000Y-91780000D03*
X102412800Y-99568000D03*
X69224867Y-92357759D03*
X71990000Y-99728750D03*
X91750000Y-98820000D03*
X134600000Y-96560000D03*
X115110000Y-67930000D03*
X114380000Y-114010000D03*
X132130800Y-76123800D03*
X72560000Y-99690000D03*
X95070000Y-84480000D03*
X119260000Y-88456750D03*
X113980000Y-99420000D03*
X86766400Y-102489000D03*
X75660000Y-59920000D03*
X133910000Y-87070000D03*
X131350000Y-76890000D03*
X88200000Y-68820000D03*
X116310000Y-67940000D03*
X135120000Y-115050000D03*
X74930000Y-102997000D03*
X88860000Y-68840000D03*
X76490000Y-64130000D03*
X91287600Y-98526600D03*
X135040000Y-117540000D03*
X75641200Y-103301800D03*
X68478400Y-86309200D03*
X66560000Y-76530000D03*
X76480000Y-66340000D03*
X134570000Y-97910000D03*
X69548317Y-81638000D03*
X69484266Y-80396498D03*
X87401400Y-102307326D03*
X84320000Y-68810000D03*
X121600000Y-54290000D03*
X114390000Y-114600000D03*
X135100000Y-114180000D03*
D18*
X113220000Y-127050000D03*
D16*
X129550000Y-54420000D03*
X94930000Y-89470000D03*
X75488800Y-66268600D03*
X76520000Y-61330000D03*
X99480000Y-88750000D03*
X113990000Y-88440000D03*
X119230000Y-93238250D03*
X79540000Y-68950000D03*
D18*
%TO.N,VDDA*%
X71780000Y-98580000D03*
X99410000Y-126575793D03*
X93070000Y-120830000D03*
X67260000Y-97710000D03*
X76110000Y-118910000D03*
X102200000Y-124740000D03*
D16*
X76540000Y-112750000D03*
D18*
X108030000Y-126750000D03*
X92089633Y-117220367D03*
X67564000Y-102997000D03*
X108010000Y-127510000D03*
X76240000Y-114620000D03*
X75790000Y-113870000D03*
X75230000Y-119790000D03*
X67290000Y-98550000D03*
X91580000Y-116830000D03*
X91700000Y-121710000D03*
X100710000Y-125250000D03*
D16*
X75790000Y-111960000D03*
D18*
X71680000Y-97740000D03*
X71560000Y-96760000D03*
X108040000Y-125990000D03*
X66294000Y-102997000D03*
X101260000Y-127840000D03*
D16*
%TO.N,/mcu/MCU_BOOT0*%
X114400000Y-66730000D03*
X76300000Y-74900000D03*
%TO.N,/mcu/BUTTON_1*%
X124120000Y-70100000D03*
X83623768Y-70363768D03*
%TO.N,/adc-frontend/MCU_ADC3_DIRECT_INN0*%
X72880900Y-103570700D03*
X72711734Y-91917905D03*
%TO.N,/adc-frontend/MCU_ADC3_DIRECT_INP0*%
X73078897Y-103004308D03*
X72770000Y-92730000D03*
%TO.N,/mcu/MCU_NRST*%
X112988000Y-53213000D03*
D17*
X107654000Y-49657000D03*
D16*
X73800000Y-88500000D03*
X102997000Y-56320000D03*
D18*
%TO.N,/usb/USB_CC1*%
X96815600Y-54035000D03*
X91158750Y-54035000D03*
D16*
%TO.N,/power/USB_VBUS*%
X82400000Y-58470000D03*
X84500000Y-58540000D03*
X89040000Y-59950000D03*
X83420000Y-58540000D03*
X89050000Y-59270000D03*
X89020000Y-58630000D03*
%TO.N,/mcu/LED_1*%
X119710000Y-68440000D03*
X86040163Y-73907654D03*
%TO.N,/mcu/LED_2*%
X86640000Y-73921750D03*
X127450000Y-69460000D03*
%TO.N,/mcu/SDMMC.D3*%
X128473200Y-114200000D03*
X116995400Y-73555400D03*
X118510000Y-111960000D03*
X82150952Y-71302434D03*
%TO.N,/mcu/SDMMC.CMD*%
X72900000Y-95200000D03*
D18*
X126695200Y-116560600D03*
D17*
X120751600Y-116154200D03*
D16*
X108839000Y-113004600D03*
%TO.N,/mcu/SDMMC.D2*%
X116179600Y-73660000D03*
X82703731Y-71535749D03*
X117423676Y-110108476D03*
X127350000Y-114940000D03*
%TO.N,/mcu/SDMMC.D0*%
X117906800Y-117500400D03*
X123620000Y-117670000D03*
%TO.N,/mcu/SDMMC.CK*%
X106095800Y-110871000D03*
X74290000Y-91660000D03*
%TO.N,/connectors/PWM.0_HI*%
X75120000Y-87300000D03*
%TO.N,/connectors/HRS_3V3*%
X50600000Y-93900000D03*
X50600000Y-93200000D03*
X50600000Y-92500000D03*
X50600000Y-91800000D03*
X50630000Y-94690000D03*
%TO.N,/connectors/PSSI.D11*%
X87372107Y-73932107D03*
X57600000Y-73700000D03*
%TO.N,/connectors/PSSI.DE*%
X75457836Y-99396065D03*
X52876423Y-85493577D03*
%TO.N,/connectors/PSSI.PDCK*%
X71069200Y-99728750D03*
X53451250Y-86861082D03*
%TO.N,/connectors/PSSI.D1*%
X90200000Y-82200000D03*
X58630000Y-79654400D03*
%TO.N,/connectors/PSSI.D5*%
X84200000Y-78200000D03*
X69000000Y-77600000D03*
%TO.N,/connectors/PSSI.D14*%
X53099000Y-82920000D03*
X75180000Y-96380000D03*
%TO.N,/connectors/PSSI.D13*%
X53200000Y-82000000D03*
X91521893Y-90778353D03*
%TO.N,/connectors/PSSI.RDY*%
X82200000Y-77620750D03*
X51100000Y-81100000D03*
%TO.N,/connectors/PSSI.D9*%
X55500000Y-74400000D03*
X87897107Y-73407107D03*
%TO.N,/connectors/PSEPIC_EN*%
X59042800Y-89902800D03*
X68710000Y-82830000D03*
X62288960Y-88137004D03*
%TO.N,/connectors/PSSI.D2*%
X61300000Y-77700000D03*
X82540673Y-74022750D03*
%TO.N,/connectors/PSSI.D15*%
X53200000Y-84200000D03*
X72575000Y-88328250D03*
%TO.N,/connectors/PSSI.D12*%
X53204642Y-81195358D03*
X93939049Y-91757299D03*
%TO.N,/connectors/PBOOST_EN*%
X57940000Y-88800000D03*
X68681600Y-82194400D03*
X61693600Y-87906400D03*
%TO.N,/connectors/PSSI.D3*%
X59000000Y-81200000D03*
X91203935Y-82396065D03*
%TO.N,/connectors/PWM.1_HI*%
X60990000Y-86562000D03*
X62330000Y-89850000D03*
%TO.N,/connectors/I2C.SCL*%
X89050000Y-98850000D03*
X58889152Y-94929378D03*
X52961323Y-89001549D03*
%TO.N,/connectors/PWM.1_LI*%
X68900000Y-88162000D03*
X56794400Y-88239600D03*
%TO.N,/connectors/I2C.SDA*%
X53543200Y-88493600D03*
X87500000Y-99312865D03*
X58572282Y-93817718D03*
%TO.N,/connectors/PSSI.D8*%
X54080640Y-85390543D03*
X89350000Y-80870000D03*
D18*
%TO.N,/adc-frontend/MCU_VREF*%
X101805000Y-113605000D03*
X69980000Y-102650000D03*
D16*
%TO.N,/connectors/PWM.0_LI*%
X74399199Y-87969939D03*
%TO.N,/connectors/PSSI.D4*%
X62441950Y-81212550D03*
X58020881Y-82228751D03*
%TO.N,/connectors/PSSI.D10*%
X83840000Y-73720000D03*
X54900000Y-75638000D03*
%TO.N,/connectors/PSSI.D0*%
X89255600Y-83210400D03*
X57836373Y-79139199D03*
D18*
%TO.N,/adc-frontend/VOCM_BUFF*%
X69590000Y-116360000D03*
X76352400Y-109118400D03*
D17*
X85335000Y-117905000D03*
D18*
X76581000Y-109728000D03*
D17*
X85000000Y-109040000D03*
D18*
X69500000Y-108880000D03*
X68360000Y-117520000D03*
D16*
X99790000Y-123630000D03*
X99790000Y-123110000D03*
D18*
X98420000Y-109650000D03*
D17*
X81190000Y-109760000D03*
D18*
X69530000Y-106530000D03*
D17*
X85030000Y-109610000D03*
D18*
X76260000Y-115460000D03*
D16*
X82797500Y-118132500D03*
D18*
X98090000Y-117750000D03*
D17*
X81210000Y-109170000D03*
D18*
X99260000Y-109970000D03*
X98490000Y-117130000D03*
D16*
X92790000Y-117560000D03*
%TO.N,/mcu/SWD_SWCLK*%
X100711000Y-55414762D03*
X96393000Y-70400000D03*
D17*
X103378000Y-54483000D03*
D16*
X93069603Y-72792397D03*
D17*
%TO.N,/mcu/SWD_SWDIO*%
X105097000Y-53482196D03*
D16*
X98274370Y-75578250D03*
X96100000Y-76400000D03*
D17*
X110829000Y-56007000D03*
D16*
X105791000Y-64389000D03*
%TO.N,/mcu/SWD_SWO*%
X101695000Y-59105000D03*
X78539418Y-71298750D03*
D17*
X105156000Y-51689000D03*
D16*
X101346000Y-54737000D03*
%TO.N,/mcu/USB_SENSE*%
X95143649Y-69984999D03*
X92270000Y-73690000D03*
%TO.N,/mcu/SDRAM.~{CKE1}*%
X121200000Y-75200000D03*
X78045000Y-75155000D03*
%TO.N,/mcu/SDRAM.UDQM*%
X118216350Y-88041150D03*
X88080000Y-88900000D03*
X98490000Y-88425000D03*
%TO.N,/mcu/SDRAM.A7*%
X98935678Y-81400000D03*
X117600000Y-81400000D03*
X80721200Y-90932000D03*
%TO.N,/mcu/SDRAM.A3*%
X130011400Y-77811400D03*
X109200000Y-77000000D03*
X74635635Y-83003885D03*
%TO.N,/mcu/SDRAM.A4*%
X75691115Y-80291115D03*
X117600000Y-76800000D03*
X98995000Y-76421750D03*
%TO.N,/mcu/SDRAM.D12*%
X122200000Y-96200000D03*
X89208885Y-96408885D03*
X103378000Y-95785799D03*
%TO.N,/mcu/SDRAM.D15*%
X98400000Y-99312865D03*
X118600000Y-98400000D03*
X91178250Y-93421750D03*
%TO.N,/mcu/SDRAM.D7*%
X110800000Y-89600000D03*
X130400000Y-89400000D03*
X89600000Y-89600000D03*
%TO.N,/mcu/SDRAM.D14*%
X99003982Y-97778249D03*
X93980000Y-93250000D03*
X119329200Y-97129600D03*
%TO.N,/mcu/SDRAM.D4*%
X130600000Y-93000000D03*
X83993550Y-98871925D03*
X109780000Y-94221750D03*
%TO.N,/mcu/SDRAM.D11*%
X123590000Y-95010000D03*
X89600000Y-95200000D03*
X103621750Y-95000000D03*
%TO.N,/mcu/SDRAM.A12*%
X90680000Y-84370000D03*
X119466018Y-84341751D03*
X102616000Y-83769200D03*
%TO.N,/mcu/SDRAM.D10*%
X89535000Y-93954600D03*
X117850000Y-93338250D03*
X98400000Y-93578250D03*
%TO.N,/mcu/SDRAM.A9*%
X82608885Y-91208885D03*
X98310000Y-83778250D03*
X117870000Y-83860000D03*
%TO.N,/mcu/SDRAM.D13*%
X118008400Y-96774000D03*
X99400000Y-96400000D03*
X95003982Y-94221750D03*
%TO.N,/mcu/SDRAM.CLK*%
X122670000Y-86718250D03*
X99131319Y-86304319D03*
X94307268Y-86210532D03*
%TO.N,/mcu/SDRAM.D6*%
X110020000Y-91440000D03*
X130200000Y-90400000D03*
X87400000Y-91800000D03*
%TO.N,/mcu/SDRAM.BS1*%
X130000000Y-82400000D03*
X96800000Y-83200000D03*
X110728471Y-83265287D03*
%TO.N,/mcu/SDRAM.A5*%
X117860000Y-79000000D03*
X76980000Y-81770000D03*
X99180000Y-79000000D03*
%TO.N,/mcu/SDRAM.~{CS1}*%
X77250000Y-75057000D03*
X133600000Y-83200000D03*
%TO.N,/mcu/SDRAM.A0*%
X72967461Y-82248098D03*
X108170000Y-80181750D03*
X127700000Y-80600000D03*
%TO.N,/mcu/SDRAM.A10*%
X109930000Y-81978250D03*
X129800000Y-81600000D03*
X83400000Y-91643200D03*
%TO.N,/mcu/SDRAM.A6*%
X97850000Y-80869000D03*
X118622556Y-80471756D03*
X80000000Y-91200000D03*
%TO.N,/mcu/SDRAM.A2*%
X75080776Y-81541207D03*
X128975000Y-77975000D03*
X109800000Y-78199997D03*
%TO.N,/mcu/SDMMC.CD*%
X113100000Y-118400000D03*
X72376000Y-96261250D03*
%TO.N,/mcu/SDRAM.D1*%
X130903135Y-96303135D03*
X98196400Y-97129600D03*
X110515400Y-97586800D03*
%TO.N,/mcu/SDRAM.D9*%
X97231200Y-92329250D03*
X90000000Y-92600000D03*
X117860000Y-91978250D03*
%TO.N,/mcu/SDRAM.D8*%
X122600000Y-90200000D03*
X89600000Y-91200000D03*
X102707173Y-90667173D03*
%TO.N,/mcu/SDRAM.~{RAS}*%
X108740000Y-86178250D03*
X130000000Y-84600000D03*
X85179250Y-89978250D03*
%TO.N,/mcu/SDRAM.A8*%
X81800000Y-91800000D03*
X117757402Y-82841750D03*
X98250000Y-82620750D03*
%TO.N,/mcu/SDRAM.A1*%
X127770000Y-79579250D03*
X108305600Y-79290000D03*
X72896115Y-83107865D03*
%TO.N,/mcu/SDRAM.~{CKE0}*%
X103800000Y-99600000D03*
X77286585Y-99268815D03*
%TO.N,/mcu/SDRAM.LDQM*%
X89010000Y-88978250D03*
X131037386Y-87562613D03*
X110200000Y-89000000D03*
%TO.N,/mcu/SDRAM.D5*%
X84200243Y-96542471D03*
X109340000Y-92979250D03*
X130000000Y-91800000D03*
%TO.N,/mcu/SDRAM.~{CAS}*%
X109915740Y-86845740D03*
X89012563Y-87160478D03*
X130600000Y-86000000D03*
%TO.N,/mcu/SDRAM.~{WE}*%
X108762800Y-87511250D03*
X85830000Y-89100000D03*
X130608885Y-86808885D03*
%TO.N,/mcu/SDRAM.D3*%
X88345875Y-86124125D03*
X130800000Y-94200000D03*
X110124766Y-94800000D03*
%TO.N,/mcu/SDRAM.BS0*%
X130000000Y-83200003D03*
X98657458Y-84755790D03*
X108170000Y-84800000D03*
%TO.N,/mcu/SDRAM.D0*%
X130294250Y-98494250D03*
X95297105Y-101375355D03*
X109600000Y-100600000D03*
%TO.N,/mcu/SDRAM.A11*%
X84600000Y-90556500D03*
X99160000Y-85378250D03*
X117703600Y-85562050D03*
%TO.N,/mcu/SDRAM.~{CS0}*%
X115750000Y-99500000D03*
X76800000Y-100200000D03*
%TO.N,/mcu/SDRAM.D2*%
X89603982Y-86621751D03*
X130400000Y-95600000D03*
X107855442Y-95141750D03*
%TO.N,/mcu/USB_DN*%
X87500000Y-58600000D03*
X85900000Y-58900000D03*
%TO.N,/connectors/AD_ALERT*%
X69200000Y-76456500D03*
X53100000Y-90100000D03*
%TD*%
D19*
%TO.N,+3V3*%
X91590000Y-98980000D02*
X91470000Y-98980000D01*
X91750000Y-98820000D02*
X91590000Y-98980000D01*
%TO.N,/mcu/BUTTON_1*%
X97534000Y-70360000D02*
X123860000Y-70360000D01*
X123860000Y-70360000D02*
X124120000Y-70100000D01*
X83631250Y-70371250D02*
X90171250Y-70371250D01*
X90810000Y-71010000D02*
X96884000Y-71010000D01*
X83623768Y-70363768D02*
X83631250Y-70371250D01*
X96884000Y-71010000D02*
X97534000Y-70360000D01*
X90171250Y-70371250D02*
X90810000Y-71010000D01*
%TO.N,/mcu/SDMMC.D3*%
X90260000Y-72090000D02*
X89019500Y-70849500D01*
X89019500Y-70849500D02*
X82610500Y-70849500D01*
X116995400Y-73555400D02*
X115530000Y-72090000D01*
X115530000Y-72090000D02*
X90260000Y-72090000D01*
X82157566Y-71302434D02*
X82150952Y-71302434D01*
X82610500Y-70849500D02*
X82157566Y-71302434D01*
%TO.N,/mcu/SDMMC.D2*%
X116179600Y-73660000D02*
X115504242Y-74335358D01*
X87887950Y-71428750D02*
X82810730Y-71428750D01*
X90794558Y-74335358D02*
X87887950Y-71428750D01*
X82810730Y-71428750D02*
X82703731Y-71535749D01*
X115504242Y-74335358D02*
X90794558Y-74335358D01*
%TO.N,/connectors/PSSI.D11*%
X85160000Y-72670000D02*
X81810000Y-72670000D01*
X87372107Y-73892107D02*
X86810000Y-73330000D01*
X86810000Y-73330000D02*
X85820000Y-73330000D01*
X81460000Y-72320000D02*
X58980000Y-72320000D01*
X81810000Y-72670000D02*
X81460000Y-72320000D01*
X58980000Y-72320000D02*
X57600000Y-73700000D01*
X85820000Y-73330000D02*
X85160000Y-72670000D01*
X87372107Y-73932107D02*
X87372107Y-73892107D01*
%TO.N,/connectors/PSSI.DE*%
X74552000Y-100200000D02*
X66011600Y-100200000D01*
X59094361Y-92842057D02*
X58602857Y-92842057D01*
X66011600Y-100200000D02*
X59370998Y-93559398D01*
X55432834Y-90154250D02*
X55016400Y-89737816D01*
X55016400Y-89737816D02*
X55016400Y-89217814D01*
X52880000Y-87078586D02*
X52880000Y-85497154D01*
X55915050Y-90154250D02*
X55432834Y-90154250D01*
X59370998Y-93118694D02*
X59094361Y-92842057D01*
X58602857Y-92842057D02*
X55915050Y-90154250D01*
X55016400Y-89217814D02*
X53818315Y-88019729D01*
X52880000Y-85497154D02*
X52876423Y-85493577D01*
X59370998Y-93559398D02*
X59370998Y-93118694D01*
X75355935Y-99396065D02*
X74552000Y-100200000D01*
X53818315Y-88019729D02*
X53818315Y-88016901D01*
X75457836Y-99396065D02*
X75355935Y-99396065D01*
X53818315Y-88016901D02*
X52880000Y-87078586D01*
%TO.N,/connectors/PSSI.PDCK*%
X55327133Y-88682103D02*
X55242280Y-88597250D01*
X59615755Y-92900015D02*
X59509688Y-92793948D01*
X56964092Y-89930154D02*
X57123192Y-89771055D01*
X56175665Y-89530635D02*
X56090812Y-89445782D01*
X60464287Y-93748547D02*
X60358220Y-93642480D01*
X66952137Y-99600000D02*
X61949219Y-94597082D01*
X55242280Y-88257838D02*
X55256423Y-88243696D01*
X56345370Y-88710390D02*
X56062527Y-88427547D01*
X58661156Y-91627218D02*
X58820256Y-91468119D01*
X60701167Y-92641923D02*
X60616314Y-92557070D01*
X60941586Y-93589449D02*
X60782485Y-93748547D01*
X60093054Y-92740917D02*
X59933953Y-92900015D01*
X58579838Y-90860006D02*
X58395990Y-91043853D01*
X55171571Y-87819434D02*
X54432200Y-87080063D01*
X61206754Y-94172817D02*
X61365852Y-94013716D01*
X57971724Y-90619587D02*
X58155571Y-90435739D01*
X60276902Y-92557070D02*
X60093054Y-92740917D01*
X58395990Y-91043853D02*
X58236889Y-91202951D01*
X58155571Y-90096327D02*
X58070718Y-90011474D01*
X55850394Y-88498257D02*
X55680687Y-88667961D01*
X70851250Y-99600000D02*
X66952137Y-99600000D01*
X61365852Y-94013715D02*
X61549699Y-93829867D01*
X59244522Y-91892385D02*
X59085421Y-92051483D01*
X61312821Y-94597082D02*
X61206754Y-94491015D01*
X56882774Y-89162942D02*
X56698926Y-89346789D01*
X57070159Y-90354419D02*
X56964092Y-90248352D01*
X61549699Y-93490455D02*
X61464846Y-93405602D01*
X58767223Y-92051483D02*
X58661156Y-91945416D01*
X59428370Y-91708538D02*
X59244522Y-91892385D01*
X57123192Y-89771055D02*
X57307039Y-89587207D01*
X60517320Y-93165183D02*
X60701167Y-92981335D01*
X59668788Y-92316651D02*
X59852635Y-92132803D01*
X55680687Y-88667961D02*
X55666545Y-88682103D01*
X61365852Y-94013716D02*
X61365852Y-94013715D01*
X55921105Y-88427547D02*
X55850394Y-88498257D01*
X57307039Y-89247795D02*
X57222186Y-89162942D01*
X60358220Y-93324282D02*
X60517320Y-93165183D01*
X71069200Y-99728750D02*
X70980000Y-99728750D01*
X59852635Y-91793391D02*
X59767782Y-91708538D01*
X70980000Y-99728750D02*
X70851250Y-99600000D01*
X57547458Y-90195321D02*
X57388357Y-90354419D01*
X59004103Y-90944859D02*
X58919250Y-90860006D01*
X57918691Y-91202951D02*
X57812624Y-91096884D01*
X57812624Y-90778686D02*
X57971724Y-90619587D01*
X56698926Y-89346789D02*
X56515077Y-89530635D01*
X59509688Y-92475750D02*
X59668788Y-92316651D01*
X55256422Y-87904284D02*
X55171571Y-87819434D01*
X54432200Y-87080063D02*
X54213219Y-86861082D01*
X56274660Y-88922523D02*
X56345370Y-88851812D01*
X54213219Y-86861082D02*
X53451250Y-86861082D01*
X58820256Y-91468119D02*
X59004103Y-91284271D01*
X57731306Y-90011474D02*
X57547458Y-90195321D01*
X61125434Y-93405602D02*
X60941586Y-93589449D01*
X56090812Y-89106370D02*
X56274660Y-88922523D01*
X59004103Y-91284271D02*
G75*
G03*
X59004068Y-90944894I-169703J169671D01*
G01*
X58236889Y-91202951D02*
G75*
G02*
X57918691Y-91202951I-159099J159099D01*
G01*
X59767782Y-91708538D02*
G75*
G03*
X59428370Y-91708538I-169706J-169704D01*
G01*
X56090812Y-89445782D02*
G75*
G02*
X56090836Y-89106394I169688J169682D01*
G01*
X61206754Y-94491015D02*
G75*
G02*
X61206738Y-94172801I159146J159115D01*
G01*
X55256423Y-88243696D02*
G75*
G03*
X55256413Y-87904293I-169723J169696D01*
G01*
X58155571Y-90435739D02*
G75*
G03*
X58155604Y-90096294I-169671J169739D01*
G01*
X61949219Y-94597082D02*
G75*
G03*
X61631001Y-94597062I-159119J-159118D01*
G01*
X58070718Y-90011474D02*
G75*
G03*
X57731306Y-90011474I-169706J-169704D01*
G01*
X60782485Y-93748547D02*
G75*
G02*
X60464287Y-93748547I-159099J159099D01*
G01*
X56515077Y-89530635D02*
G75*
G02*
X56175665Y-89530635I-169706J169701D01*
G01*
X61464846Y-93405602D02*
G75*
G03*
X61125434Y-93405602I-169706J-169704D01*
G01*
X59085421Y-92051483D02*
G75*
G02*
X58767223Y-92051483I-159099J159099D01*
G01*
X58661156Y-91945416D02*
G75*
G02*
X58661139Y-91627201I159144J159116D01*
G01*
X60701167Y-92981335D02*
G75*
G03*
X60701196Y-92641894I-169667J169735D01*
G01*
X55666545Y-88682103D02*
G75*
G02*
X55327133Y-88682103I-169706J169701D01*
G01*
X56062527Y-88427547D02*
G75*
G03*
X55921105Y-88427547I-70711J-70713D01*
G01*
X60358220Y-93642480D02*
G75*
G02*
X60358239Y-93324301I159080J159080D01*
G01*
X60616314Y-92557070D02*
G75*
G03*
X60276902Y-92557070I-169706J-169704D01*
G01*
X57388357Y-90354419D02*
G75*
G02*
X57070159Y-90354419I-159099J159099D01*
G01*
X61631019Y-94597081D02*
G75*
G02*
X61312801Y-94597102I-159119J159081D01*
G01*
X58919250Y-90860006D02*
G75*
G03*
X58579838Y-90860006I-169706J-169704D01*
G01*
X59509688Y-92793948D02*
G75*
G02*
X59509639Y-92475701I159112J159148D01*
G01*
X56964092Y-90248352D02*
G75*
G02*
X56964139Y-89930201I159108J159052D01*
G01*
X55242280Y-88597250D02*
G75*
G02*
X55242236Y-88257794I169720J169750D01*
G01*
X61549699Y-93829867D02*
G75*
G03*
X61549660Y-93490494I-169699J169667D01*
G01*
X59933953Y-92900015D02*
G75*
G02*
X59615755Y-92900015I-159099J159099D01*
G01*
X56345370Y-88851812D02*
G75*
G03*
X56345371Y-88710389I-70670J70712D01*
G01*
X59852635Y-92132803D02*
G75*
G03*
X59852632Y-91793394I-169735J169703D01*
G01*
X57307039Y-89587207D02*
G75*
G03*
X57307040Y-89247794I-169739J169707D01*
G01*
X57222186Y-89162942D02*
G75*
G03*
X56882774Y-89162942I-169706J-169704D01*
G01*
X57812624Y-91096884D02*
G75*
G02*
X57812639Y-90778701I159076J159084D01*
G01*
%TO.N,/connectors/PSSI.D1*%
X58630000Y-79654400D02*
X58674000Y-79654400D01*
X63719600Y-84700000D02*
X81900000Y-84700000D01*
X58674000Y-79654400D02*
X63719600Y-84700000D01*
X81900000Y-84700000D02*
X84400000Y-82200000D01*
X84400000Y-82200000D02*
X90200000Y-82200000D01*
%TO.N,/connectors/PSSI.D5*%
X69600000Y-78200000D02*
X69000000Y-77600000D01*
X84200000Y-78200000D02*
X69600000Y-78200000D01*
%TO.N,/connectors/PSSI.D14*%
X61565656Y-92084361D02*
X61381807Y-92268207D01*
X63495285Y-94381685D02*
X64293099Y-94381685D01*
X53210000Y-83230000D02*
X55045750Y-85065750D01*
X55695613Y-85065750D02*
X56430000Y-85800137D01*
X59515050Y-90377787D02*
X59515050Y-90401450D01*
X59500907Y-91094414D02*
X59585759Y-91179266D01*
X62046485Y-93639992D02*
X62131337Y-93724844D01*
X61381807Y-92268207D02*
X61197959Y-92452054D01*
X59515050Y-90740861D02*
X59500907Y-90755003D01*
X64628315Y-95540115D02*
X65398200Y-96310000D01*
X64628315Y-94716901D02*
X64628315Y-95540115D01*
X59515050Y-89707187D02*
X59515050Y-90377787D01*
X61806070Y-92692470D02*
X61989916Y-92508621D01*
X62329330Y-92508623D02*
X62414182Y-92593475D01*
X61480804Y-91660097D02*
X61565656Y-91744949D01*
X74590000Y-95790000D02*
X75180000Y-96380000D01*
X62230333Y-93116733D02*
X62060627Y-93286438D01*
X69447250Y-95804568D02*
X69447250Y-95802750D01*
X60773697Y-92027792D02*
X60957544Y-91843944D01*
X62824302Y-93710701D02*
X62909155Y-93795555D01*
X62414182Y-92932887D02*
X62230333Y-93116733D01*
X59939313Y-91165123D02*
X60109018Y-90995418D01*
X60632278Y-90811571D02*
X60717130Y-90896423D01*
X61622223Y-92876318D02*
X61806070Y-92692470D01*
X53210000Y-83010000D02*
X53210000Y-83230000D01*
X64293099Y-94381685D02*
X64628315Y-94716901D01*
X56430000Y-86622137D02*
X59515050Y-89707187D01*
X60533281Y-91419681D02*
X60349433Y-91603528D01*
X60109018Y-90995418D02*
X60292864Y-90811569D01*
X53099000Y-82920000D02*
X53120000Y-82920000D01*
X69460000Y-95790000D02*
X74590000Y-95790000D01*
X53120000Y-82920000D02*
X53210000Y-83010000D01*
X69447250Y-95802750D02*
X69460000Y-95790000D01*
X69112034Y-96139784D02*
X69447250Y-95804568D01*
X62470749Y-93724844D02*
X62484891Y-93710701D01*
X61197959Y-92791466D02*
X61282811Y-92876318D01*
X69110216Y-96139784D02*
X69112034Y-96139784D01*
X65398200Y-96310000D02*
X68940000Y-96310000D01*
X56430000Y-85800137D02*
X56430000Y-86622137D01*
X60349433Y-91942940D02*
X60434285Y-92027792D01*
X63246712Y-94133112D02*
X63495285Y-94381685D01*
X60957544Y-91843944D02*
X61141390Y-91660095D01*
X62909155Y-93795555D02*
X63246712Y-94133112D01*
X55045750Y-85065750D02*
X55695613Y-85065750D01*
X62060627Y-93286438D02*
X62046485Y-93300580D01*
X59925171Y-91179266D02*
X59939313Y-91165123D01*
X68940000Y-96310000D02*
X69110216Y-96139784D01*
X60717130Y-91235835D02*
X60533281Y-91419681D01*
X60717130Y-90896423D02*
G75*
G02*
X60717101Y-91235806I-169730J-169677D01*
G01*
X62131337Y-93724844D02*
G75*
G03*
X62470749Y-93724844I169706J169704D01*
G01*
X59585759Y-91179266D02*
G75*
G03*
X59925171Y-91179266I169706J169704D01*
G01*
X61565656Y-91744949D02*
G75*
G02*
X61565701Y-92084406I-169756J-169751D01*
G01*
X59500907Y-90755003D02*
G75*
G03*
X59500915Y-91094405I169693J-169697D01*
G01*
X61141390Y-91660095D02*
G75*
G02*
X61480808Y-91660093I169710J-169705D01*
G01*
X61197959Y-92452054D02*
G75*
G03*
X61197919Y-92791506I169741J-169746D01*
G01*
X62414182Y-92593475D02*
G75*
G02*
X62414201Y-92932906I-169682J-169725D01*
G01*
X60292864Y-90811569D02*
G75*
G02*
X60632308Y-90811541I169736J-169731D01*
G01*
X61989916Y-92508621D02*
G75*
G02*
X62329308Y-92508645I169684J-169679D01*
G01*
X62046485Y-93300580D02*
G75*
G03*
X62046471Y-93640006I169715J-169720D01*
G01*
X62484891Y-93710701D02*
G75*
G02*
X62824302Y-93710700I169706J-169707D01*
G01*
X61282811Y-92876318D02*
G75*
G03*
X61622223Y-92876318I169706J169704D01*
G01*
X59515050Y-90401450D02*
G75*
G02*
X59515095Y-90740905I-169750J-169750D01*
G01*
X60349433Y-91603528D02*
G75*
G03*
X60349467Y-91942906I169667J-169672D01*
G01*
X60434285Y-92027792D02*
G75*
G03*
X60773697Y-92027792I169706J169704D01*
G01*
%TO.N,/connectors/PSSI.D13*%
X53200000Y-82022192D02*
X53200000Y-82000000D01*
X54965600Y-84124800D02*
X54965600Y-83362800D01*
X91472340Y-90728800D02*
X86671200Y-90728800D01*
X55422800Y-84582000D02*
X54965600Y-84124800D01*
X65400000Y-94630000D02*
X59588400Y-88818400D01*
X59588400Y-88818400D02*
X59588400Y-88198400D01*
X59588400Y-88198400D02*
X55972000Y-84582000D01*
X82770000Y-94630000D02*
X65400000Y-94630000D01*
X86671200Y-90728800D02*
X82770000Y-94630000D01*
X91521893Y-90778353D02*
X91472340Y-90728800D01*
X55972000Y-84582000D02*
X55422800Y-84582000D01*
X54965600Y-83362800D02*
X54129711Y-82526911D01*
X54129711Y-82526911D02*
X53704719Y-82526911D01*
X53704719Y-82526911D02*
X53200000Y-82022192D01*
%TO.N,/connectors/PSSI.RDY*%
X51100000Y-80210000D02*
X53310000Y-78000000D01*
X51100000Y-81100000D02*
X51100000Y-80210000D01*
X62941042Y-77063600D02*
X81642850Y-77063600D01*
X81642850Y-77063600D02*
X82200000Y-77620750D01*
X60400000Y-78400000D02*
X61604642Y-78400000D01*
X60000000Y-78000000D02*
X60400000Y-78400000D01*
X53310000Y-78000000D02*
X60000000Y-78000000D01*
X61604642Y-78400000D02*
X62941042Y-77063600D01*
%TO.N,/connectors/PSSI.D9*%
X58130000Y-71770000D02*
X55500000Y-74400000D01*
X81736685Y-71770000D02*
X58130000Y-71770000D01*
X86626000Y-72136000D02*
X82102685Y-72136000D01*
X82102685Y-72136000D02*
X81736685Y-71770000D01*
X87897107Y-73407107D02*
X86626000Y-72136000D01*
%TO.N,/connectors/PSSI.D2*%
X62812777Y-76470064D02*
X62671355Y-76328642D01*
X63972433Y-76441780D02*
X64057285Y-76356927D01*
X61653122Y-77007467D02*
X61285427Y-76639772D01*
X61300000Y-77700000D02*
X61653121Y-77346879D01*
X71551753Y-73916743D02*
X71942979Y-73916743D01*
X64730400Y-74269600D02*
X64733638Y-74269600D01*
X82292823Y-74270600D02*
X82511886Y-74051537D01*
X62247092Y-76752908D02*
X62388513Y-76894329D01*
X64733638Y-74269600D02*
X65089238Y-73914000D01*
X63519883Y-75480113D02*
X63519885Y-75480115D01*
X63095621Y-75904379D02*
X63633022Y-76441780D01*
X71945722Y-73914000D02*
X79629000Y-73914000D01*
X71942979Y-73916743D02*
X71945722Y-73914000D01*
X64057285Y-76017515D02*
X63519883Y-75480113D01*
X63350180Y-75310410D02*
X62982484Y-74942714D01*
X71549010Y-73914000D02*
X71551753Y-73916743D01*
X62133957Y-75451830D02*
X62218809Y-75366979D01*
X64113857Y-74886146D02*
X64198709Y-74801292D01*
X62247094Y-76752911D02*
X62247092Y-76752908D01*
X61285426Y-76300362D02*
X61370280Y-76215509D01*
X63519885Y-75480115D02*
X63350180Y-75310410D01*
X62558221Y-75366979D02*
X63095623Y-75904381D01*
X82511886Y-73993963D02*
X82540673Y-74022750D01*
X79629000Y-73914000D02*
X79985600Y-74270600D01*
X62671355Y-76328642D02*
X62671357Y-76328643D01*
X79985600Y-74270600D02*
X82292823Y-74270600D01*
X63095623Y-75904381D02*
X63095621Y-75904379D01*
X62982485Y-74603302D02*
X63067337Y-74518451D01*
X64198709Y-74801292D02*
X64730400Y-74269600D01*
X82511886Y-74051537D02*
X82511886Y-73993963D01*
X65089238Y-73914000D02*
X71549010Y-73914000D01*
X63406749Y-74518451D02*
X63774445Y-74886147D01*
X62077388Y-76583205D02*
X62247094Y-76752911D01*
X62671356Y-76894329D02*
X62812777Y-76752907D01*
X62671357Y-76328643D02*
X62133956Y-75791242D01*
X61709692Y-76215509D02*
X62077388Y-76583205D01*
X62388513Y-76894329D02*
G75*
G03*
X62671356Y-76894330I141422J141424D01*
G01*
X63633022Y-76441780D02*
G75*
G03*
X63972433Y-76441781I169706J169707D01*
G01*
X62982484Y-74942714D02*
G75*
G02*
X62982476Y-74603294I169716J169714D01*
G01*
X63774445Y-74886147D02*
G75*
G03*
X64113906Y-74886196I169755J169747D01*
G01*
X61285427Y-76639772D02*
G75*
G02*
X61285459Y-76300396I169673J169672D01*
G01*
X64057285Y-76356927D02*
G75*
G03*
X64057306Y-76017494I-169685J169727D01*
G01*
X62218809Y-75366979D02*
G75*
G02*
X62558221Y-75366979I169706J-169701D01*
G01*
X62812777Y-76752907D02*
G75*
G03*
X62812763Y-76470079I-141377J141407D01*
G01*
X61370280Y-76215509D02*
G75*
G02*
X61709692Y-76215509I169706J-169708D01*
G01*
X63067337Y-74518451D02*
G75*
G02*
X63406749Y-74518451I169706J-169701D01*
G01*
X62133956Y-75791242D02*
G75*
G02*
X62133920Y-75451794I169744J169742D01*
G01*
X61653121Y-77346879D02*
G75*
G03*
X61653095Y-77007494I-169721J169679D01*
G01*
%TO.N,/connectors/PSSI.D12*%
X85744291Y-90222493D02*
X82146784Y-93820000D01*
X60350400Y-88679684D02*
X60350400Y-87655589D01*
X90177507Y-90222493D02*
X85744291Y-90222493D01*
X54672230Y-81977419D02*
X53914292Y-81977419D01*
X91795600Y-89763600D02*
X90636400Y-89763600D01*
X93939049Y-91757299D02*
X93789299Y-91757299D01*
X53914292Y-81977419D02*
X53132231Y-81195358D01*
X65490716Y-93820000D02*
X60350400Y-88679684D01*
X93789299Y-91757299D02*
X91795600Y-89763600D01*
X90636400Y-89763600D02*
X90177507Y-90222493D01*
X53132231Y-81195358D02*
X53204642Y-81195358D01*
X60350400Y-87655589D02*
X54672230Y-81977419D01*
X82146784Y-93820000D02*
X65490716Y-93820000D01*
%TO.N,/connectors/PSSI.D3*%
X86497600Y-82702400D02*
X84040000Y-85160000D01*
X90897600Y-82702400D02*
X86497600Y-82702400D01*
X91203935Y-82396065D02*
X90897600Y-82702400D01*
X84040000Y-85160000D02*
X62960000Y-85160000D01*
X62960000Y-85160000D02*
X59000000Y-81200000D01*
%TO.N,/connectors/PWM.1_HI*%
X62798213Y-87979808D02*
X62798213Y-89381787D01*
X62798213Y-89381787D02*
X62330000Y-89850000D01*
X60990000Y-86562000D02*
X61380405Y-86562000D01*
X61380405Y-86562000D02*
X62798213Y-87979808D01*
%TO.N,/connectors/I2C.SCL*%
X58889152Y-94879152D02*
X53011549Y-89001549D01*
X86450000Y-101990000D02*
X65949774Y-101990000D01*
X89050000Y-98850000D02*
X89050000Y-99390000D01*
X89050000Y-99390000D02*
X86450000Y-101990000D01*
X65949774Y-101990000D02*
X58889152Y-94929378D01*
X53011549Y-89001549D02*
X52961323Y-89001549D01*
X58889152Y-94929378D02*
X58889152Y-94879152D01*
%TO.N,/connectors/I2C.SDA*%
X86532865Y-100880000D02*
X87500000Y-99912865D01*
X53543200Y-88787223D02*
X65635977Y-100880000D01*
X53543200Y-88493600D02*
X53543200Y-88787223D01*
X87500000Y-99912865D02*
X87500000Y-99312865D01*
X65635977Y-100880000D02*
X86532865Y-100880000D01*
%TO.N,/connectors/PSSI.D8*%
X58920284Y-78456500D02*
X64593784Y-84130000D01*
X64593784Y-84130000D02*
X81650000Y-84130000D01*
X53581259Y-85390543D02*
X52627750Y-84437034D01*
X89020000Y-81200000D02*
X89350000Y-80870000D01*
X54080640Y-85390543D02*
X53581259Y-85390543D01*
X52627750Y-79412250D02*
X53583500Y-78456500D01*
X53583500Y-78456500D02*
X58920284Y-78456500D01*
X52627750Y-84437034D02*
X52627750Y-79412250D01*
X81650000Y-84130000D02*
X84580000Y-81200000D01*
X84580000Y-81200000D02*
X89020000Y-81200000D01*
%TO.N,/connectors/PSSI.D10*%
X83840000Y-73720000D02*
X83420000Y-73300000D01*
X81630000Y-73300000D02*
X81170000Y-72840000D01*
X83420000Y-73300000D02*
X81630000Y-73300000D01*
X59560000Y-72840000D02*
X56762000Y-75638000D01*
X81170000Y-72840000D02*
X59560000Y-72840000D01*
X56762000Y-75638000D02*
X54900000Y-75638000D01*
%TO.N,/connectors/PSSI.D0*%
X71290000Y-85640000D02*
X62240000Y-85640000D01*
X62240000Y-85640000D02*
X57836373Y-81236373D01*
X89255600Y-83210400D02*
X88138000Y-84328000D01*
X85723046Y-86440000D02*
X72090000Y-86440000D01*
X88138000Y-84328000D02*
X87835046Y-84328000D01*
X57836373Y-81236373D02*
X57836373Y-79139199D01*
X72090000Y-86440000D02*
X71290000Y-85640000D01*
X87835046Y-84328000D02*
X85723046Y-86440000D01*
%TO.N,/mcu/SDRAM.A3*%
X78849520Y-78790000D02*
X85840000Y-78790000D01*
X110041000Y-76159000D02*
X109200000Y-77000000D01*
X85840000Y-78790000D02*
X87630000Y-77000000D01*
X87630000Y-77000000D02*
X109200000Y-77000000D01*
X128359000Y-76159000D02*
X110041000Y-76159000D01*
X74635635Y-83003885D02*
X78849520Y-78790000D01*
X130011400Y-77811400D02*
X128359000Y-76159000D01*
%TO.N,/mcu/SDRAM.D15*%
X109423200Y-98882200D02*
X116154969Y-98882200D01*
D20*
X98312865Y-99400000D02*
X98400000Y-99312865D01*
X92618231Y-97618230D02*
X92618231Y-97618231D01*
X95890000Y-98640000D02*
X95890000Y-99160000D01*
X92731370Y-96656569D02*
X92363673Y-97024263D01*
X95890000Y-99400000D02*
X95890000Y-100160000D01*
X92929357Y-99004159D02*
X93466758Y-98466757D01*
X92193968Y-97193968D02*
X91656566Y-97731369D01*
D19*
X116994969Y-99122200D02*
X116994969Y-98642200D01*
D20*
X91939412Y-96600001D02*
X92307106Y-96232304D01*
X93466758Y-98466758D02*
X93636462Y-98297051D01*
X96490000Y-100160000D02*
X96490000Y-99400000D01*
X93466758Y-98466757D02*
X93466758Y-98466758D01*
D19*
X117234969Y-98182200D02*
X117354969Y-98182200D01*
X116994969Y-98642200D02*
X116994969Y-98422200D01*
D20*
X92363673Y-97024263D02*
X92193967Y-97193969D01*
X95890000Y-99160000D02*
X95890000Y-99400000D01*
X96490000Y-99160000D02*
X96490000Y-98640000D01*
D19*
X116994969Y-99642200D02*
X116994969Y-99122200D01*
X118117800Y-98882200D02*
X118577419Y-98422580D01*
X117594969Y-98422200D02*
X117594969Y-98642200D01*
D20*
X93495043Y-97080829D02*
X93579895Y-97165681D01*
D19*
X117954969Y-98882200D02*
X118117800Y-98882200D01*
D20*
X97330000Y-99400000D02*
X97450000Y-99400000D01*
D19*
X116394969Y-99122200D02*
X116394969Y-99642200D01*
X98340378Y-99400000D02*
X98426609Y-99400000D01*
D20*
X92080830Y-98155632D02*
X92618231Y-97618230D01*
D19*
X116634969Y-99882200D02*
X116754969Y-99882200D01*
D20*
X91656566Y-98070780D02*
X91741418Y-98155632D01*
X94428422Y-98353620D02*
X94060727Y-98721316D01*
X92646518Y-96232305D02*
X92731370Y-96317157D01*
X94060726Y-99060726D02*
X94145580Y-99145580D01*
X96130000Y-100400000D02*
X96250000Y-100400000D01*
X92505093Y-98919307D02*
X92589945Y-99004159D01*
X95530000Y-98400000D02*
X95650000Y-98400000D01*
X96490000Y-99400000D02*
X96490000Y-99160000D01*
X92193967Y-97193969D02*
X92193968Y-97193968D01*
X93636462Y-98297051D02*
X94004158Y-97929355D01*
D19*
X98959535Y-99312865D02*
X99822000Y-98450400D01*
D20*
X93579895Y-97505093D02*
X93042494Y-98042495D01*
D19*
X118577419Y-98422580D02*
X118578267Y-98421733D01*
D20*
X93042494Y-98042495D02*
X93042495Y-98042495D01*
D19*
X98400000Y-99312865D02*
X98959535Y-99312865D01*
X98340378Y-99372487D02*
X98340378Y-99400000D01*
X98400000Y-99312865D02*
X98340378Y-99372487D01*
D20*
X94400000Y-99400000D02*
X95050000Y-99400000D01*
X95290000Y-99160000D02*
X95290000Y-98640000D01*
X93042495Y-98042495D02*
X92505093Y-98579896D01*
X97450000Y-99400000D02*
X98312865Y-99400000D01*
X97090000Y-98640000D02*
X97090000Y-99160000D01*
X96730000Y-98400000D02*
X96850000Y-98400000D01*
X92618231Y-97618231D02*
X93155631Y-97080828D01*
D19*
X91200000Y-96200000D02*
X91600000Y-96600000D01*
X99822000Y-98450400D02*
X108991400Y-98450400D01*
X91200000Y-93443500D02*
X91200000Y-96200000D01*
X117834969Y-98882200D02*
X117954969Y-98882200D01*
X91178250Y-93421750D02*
X91200000Y-93443500D01*
X118578267Y-98421733D02*
X118600000Y-98400000D01*
D20*
X94145580Y-99145580D02*
X94400000Y-99400000D01*
X94343570Y-97929356D02*
X94428422Y-98014208D01*
D19*
X108991400Y-98450400D02*
X109423200Y-98882200D01*
D20*
X92589945Y-99004159D02*
G75*
G03*
X92929357Y-99004159I169706J169704D01*
G01*
X96250000Y-100400000D02*
G75*
G03*
X96490000Y-100160000I0J240000D01*
G01*
D19*
X116754969Y-99882200D02*
G75*
G03*
X116995000Y-99642200I31J240000D01*
G01*
D20*
X91741418Y-98155632D02*
G75*
G03*
X92080830Y-98155632I169706J169704D01*
G01*
X94060727Y-98721316D02*
G75*
G03*
X94060747Y-99060704I169673J-169684D01*
G01*
X91656566Y-97731369D02*
G75*
G03*
X91656540Y-98070805I169734J-169731D01*
G01*
X93155631Y-97080828D02*
G75*
G02*
X93495006Y-97080865I169669J-169672D01*
G01*
X92505093Y-98579896D02*
G75*
G03*
X92505094Y-98919306I169707J-169704D01*
G01*
D19*
X117594969Y-98642200D02*
G75*
G03*
X117834969Y-98882231I240031J0D01*
G01*
D20*
X92731370Y-96317157D02*
G75*
G02*
X92731407Y-96656606I-169670J-169743D01*
G01*
X95290000Y-98640000D02*
G75*
G02*
X95530000Y-98400000I240000J0D01*
G01*
X97090000Y-99160000D02*
G75*
G03*
X97330000Y-99400000I240000J0D01*
G01*
D19*
X116994969Y-98422200D02*
G75*
G02*
X117234969Y-98182169I240031J0D01*
G01*
D20*
X93579895Y-97165681D02*
G75*
G02*
X93579908Y-97505106I-169695J-169719D01*
G01*
X92307106Y-96232304D02*
G75*
G02*
X92646506Y-96232316I169694J-169696D01*
G01*
D19*
X117354969Y-98182200D02*
G75*
G02*
X117595000Y-98422200I31J-240000D01*
G01*
D20*
X95050000Y-99400000D02*
G75*
G03*
X95290000Y-99160000I0J240000D01*
G01*
X91600000Y-96600000D02*
G75*
G03*
X91939405Y-96599995I169700J169700D01*
G01*
X94428422Y-98014208D02*
G75*
G02*
X94428408Y-98353606I-169722J-169692D01*
G01*
X96850000Y-98400000D02*
G75*
G02*
X97090000Y-98640000I0J-240000D01*
G01*
X95890000Y-100160000D02*
G75*
G03*
X96130000Y-100400000I240000J0D01*
G01*
X96490000Y-98640000D02*
G75*
G02*
X96730000Y-98400000I240000J0D01*
G01*
X95650000Y-98400000D02*
G75*
G02*
X95890000Y-98640000I0J-240000D01*
G01*
X94004158Y-97929355D02*
G75*
G02*
X94343606Y-97929319I169742J-169745D01*
G01*
D19*
X116154969Y-98882200D02*
G75*
G02*
X116395000Y-99122200I31J-240000D01*
G01*
X116394969Y-99642200D02*
G75*
G03*
X116634969Y-99882231I240031J0D01*
G01*
D20*
%TO.N,/mcu/SDRAM.D14*%
X95544961Y-95896433D02*
X95608600Y-95960072D01*
X96400000Y-97610000D02*
X96510000Y-97720000D01*
X95311615Y-96511615D02*
X94555010Y-97268219D01*
D19*
X111845721Y-98497200D02*
X112195721Y-98497200D01*
X99003982Y-97778249D02*
X99119231Y-97663000D01*
X96630800Y-97840800D02*
X98941431Y-97840800D01*
D20*
X94194389Y-94474389D02*
X94014389Y-94474389D01*
X94014389Y-94024389D02*
X94194389Y-94024389D01*
D19*
X113995721Y-98247200D02*
X115043616Y-98247200D01*
X112920721Y-97487200D02*
X112920721Y-98247200D01*
X110645721Y-98497200D02*
X110995721Y-98497200D01*
D20*
X94049671Y-93250000D02*
X93980000Y-93250000D01*
X95629812Y-96829811D02*
X95629812Y-96829812D01*
X96244995Y-96851026D02*
X96075288Y-97020730D01*
X94236814Y-96950022D02*
X94866139Y-96320696D01*
X94014022Y-93574389D02*
X92074389Y-93574389D01*
X94194389Y-95104389D02*
X94194389Y-95194389D01*
X91974389Y-94924389D02*
X94014389Y-94924389D01*
D19*
X111720721Y-98247200D02*
X111720721Y-98372200D01*
X112560721Y-97247200D02*
X112680721Y-97247200D01*
D20*
X94555010Y-97522777D02*
X94618649Y-97586416D01*
X94294389Y-94474389D02*
X94194389Y-94474389D01*
X96181355Y-96532827D02*
X96244994Y-96596466D01*
X94547942Y-96002500D02*
X93918616Y-96631825D01*
X94993418Y-96193417D02*
X94993418Y-96193418D01*
X95608601Y-96214632D02*
X95311615Y-96511615D01*
X94394389Y-94124389D02*
X94394389Y-94374389D01*
D19*
X112920721Y-98247200D02*
X112920721Y-98372200D01*
D20*
X95629812Y-96829812D02*
X95757090Y-96702531D01*
X96400000Y-97600000D02*
X96400000Y-97610000D01*
D19*
X112320721Y-98247200D02*
X112320721Y-97487200D01*
X109628016Y-98247200D02*
X110395721Y-98247200D01*
D20*
X94194225Y-93410123D02*
X94194225Y-93394554D01*
X93918616Y-96886383D02*
X93982255Y-96950022D01*
X94866139Y-96320696D02*
X94993418Y-96193417D01*
X96138928Y-97338928D02*
X96400000Y-97600000D01*
D19*
X99119231Y-97663000D02*
X109043816Y-97663000D01*
X113645721Y-98247200D02*
X113995721Y-98247200D01*
X113045721Y-98497200D02*
X113395721Y-98497200D01*
D20*
X96075289Y-97275290D02*
X96138928Y-97338928D01*
D19*
X115450016Y-97840800D02*
X118618000Y-97840800D01*
D20*
X92074389Y-94024389D02*
X94014389Y-94024389D01*
D19*
X96510000Y-97720000D02*
X96630800Y-97840800D01*
X112320721Y-98372200D02*
X112320721Y-98247200D01*
D20*
X94194389Y-95394389D02*
X94547942Y-95747942D01*
D19*
X115186174Y-98104642D02*
X115450016Y-97840800D01*
D20*
X95757090Y-96702531D02*
X95926795Y-96532826D01*
D19*
X98941431Y-97840800D02*
X99003982Y-97778249D01*
X111720721Y-97487200D02*
X111720721Y-98247200D01*
X109043816Y-97663000D02*
X109628016Y-98247200D01*
X118618000Y-97840800D02*
X119329200Y-97129600D01*
X111360721Y-97247200D02*
X111480721Y-97247200D01*
D20*
X91794389Y-94654389D02*
X91794389Y-94744389D01*
X94194225Y-93394554D02*
X94049671Y-93250000D01*
D19*
X115043616Y-98247200D02*
X115186174Y-98104642D01*
D20*
X94194389Y-94024389D02*
X94294389Y-94024389D01*
D19*
X111120721Y-98372200D02*
X111120721Y-98247200D01*
X111120721Y-98247200D02*
X111120721Y-97487200D01*
D20*
X94014389Y-94474389D02*
X91974389Y-94474389D01*
X91894389Y-93754389D02*
X91894389Y-93844389D01*
X94873208Y-97586416D02*
X95629812Y-96829811D01*
X94194389Y-95194389D02*
X94194389Y-95394389D01*
X94993418Y-96193418D02*
X95290401Y-95896432D01*
X94547942Y-95747942D02*
G75*
G02*
X94547921Y-96002479I-127242J-127258D01*
G01*
X94555010Y-97268219D02*
G75*
G03*
X94555008Y-97522779I127290J-127281D01*
G01*
X94014389Y-94924389D02*
G75*
G02*
X94194411Y-95104389I11J-180011D01*
G01*
D19*
X110395721Y-98247200D02*
G75*
G02*
X110520700Y-98372200I-21J-125000D01*
G01*
X94014022Y-93574389D02*
G75*
G03*
X94194215Y-93410122I-22J180989D01*
G01*
X111480721Y-97247200D02*
G75*
G02*
X111720700Y-97487200I-21J-240000D01*
G01*
D20*
X93982255Y-96950022D02*
G75*
G03*
X94236814Y-96950023I127280J127283D01*
G01*
D19*
X112195721Y-98497200D02*
G75*
G03*
X112320700Y-98372200I-21J125000D01*
G01*
D20*
X92074389Y-93574389D02*
G75*
G03*
X91894389Y-93754389I11J-180011D01*
G01*
X95290401Y-95896432D02*
G75*
G02*
X95544981Y-95896413I127299J-127268D01*
G01*
D19*
X112680721Y-97247200D02*
G75*
G02*
X112920700Y-97487200I-21J-240000D01*
G01*
D20*
X94394389Y-94374389D02*
G75*
G02*
X94294389Y-94474389I-99989J-11D01*
G01*
X91974389Y-94474389D02*
G75*
G03*
X91794389Y-94654389I11J-180011D01*
G01*
X96075288Y-97020730D02*
G75*
G03*
X96075298Y-97275281I127312J-127270D01*
G01*
X91894389Y-93844389D02*
G75*
G03*
X92074389Y-94024411I180011J-11D01*
G01*
D19*
X110520721Y-98372200D02*
G75*
G03*
X110645721Y-98497179I124979J0D01*
G01*
D20*
X95926795Y-96532826D02*
G75*
G02*
X96181380Y-96532801I127305J-127274D01*
G01*
D19*
X111720721Y-98372200D02*
G75*
G03*
X111845721Y-98497179I124979J0D01*
G01*
X111120721Y-97487200D02*
G75*
G02*
X111360721Y-97247221I239979J0D01*
G01*
X112320721Y-97487200D02*
G75*
G02*
X112560721Y-97247221I239979J0D01*
G01*
X110995721Y-98497200D02*
G75*
G03*
X111120700Y-98372200I-21J125000D01*
G01*
X113395721Y-98497200D02*
G75*
G03*
X113520700Y-98372200I-21J125000D01*
G01*
D20*
X91794389Y-94744389D02*
G75*
G03*
X91974389Y-94924411I180011J-11D01*
G01*
X94294389Y-94024389D02*
G75*
G02*
X94394411Y-94124389I11J-100011D01*
G01*
X95608600Y-95960072D02*
G75*
G02*
X95608649Y-96214679I-127300J-127328D01*
G01*
X94618649Y-97586416D02*
G75*
G03*
X94873208Y-97586417I127280J127283D01*
G01*
D19*
X112920721Y-98372200D02*
G75*
G03*
X113045721Y-98497179I124979J0D01*
G01*
D20*
X93918616Y-96631825D02*
G75*
G03*
X93918620Y-96886379I127284J-127275D01*
G01*
D19*
X113520721Y-98372200D02*
G75*
G02*
X113645721Y-98247221I124979J0D01*
G01*
D20*
X96244994Y-96596466D02*
G75*
G02*
X96244949Y-96850979I-127294J-127234D01*
G01*
D19*
%TO.N,/mcu/SDRAM.A12*%
X112028600Y-84400000D02*
X112028600Y-83940000D01*
X112988600Y-83240000D02*
X112868600Y-83240000D01*
X117130816Y-83940000D02*
X117068600Y-83940000D01*
X92170493Y-84370000D02*
X90680000Y-84370000D01*
X116228600Y-83940000D02*
X116228600Y-84400000D01*
X97618800Y-83261200D02*
X97074669Y-83805331D01*
X97074669Y-83805331D02*
X92735162Y-83805331D01*
X115028600Y-83480000D02*
X115028600Y-83940000D01*
X112628600Y-83940000D02*
X112628600Y-84400000D01*
X92735162Y-83805331D02*
X92170493Y-84370000D01*
X113228600Y-83940000D02*
X113228600Y-83480000D01*
X110192200Y-83616800D02*
X110515400Y-83940000D01*
X119368519Y-84439250D02*
X117630066Y-84439250D01*
X115028600Y-83940000D02*
X115028600Y-84400000D01*
X114788600Y-84640000D02*
X114668600Y-84640000D01*
X115628600Y-84400000D02*
X115628600Y-83940000D01*
X111788600Y-83240000D02*
X111668600Y-83240000D01*
X102616000Y-83769200D02*
X102108000Y-83261200D01*
X113828600Y-83480000D02*
X113828600Y-83940000D01*
X102870000Y-83616800D02*
X110192200Y-83616800D01*
X115388600Y-83240000D02*
X115268600Y-83240000D01*
X112628600Y-83480000D02*
X112628600Y-83940000D01*
X113228600Y-84400000D02*
X113228600Y-83940000D01*
X116228600Y-83480000D02*
X116228600Y-83700000D01*
X114428600Y-84400000D02*
X114428600Y-83940000D01*
X102108000Y-83261200D02*
X97618800Y-83261200D01*
X115988600Y-84640000D02*
X115868600Y-84640000D01*
X111068600Y-83940000D02*
X110515400Y-83940000D01*
X102616000Y-83769200D02*
X102717600Y-83769200D01*
X116828600Y-83700000D02*
X116828600Y-83480000D01*
X112028600Y-83940000D02*
X112028600Y-83700000D01*
X115628600Y-83940000D02*
X115628600Y-83480000D01*
X113588600Y-84640000D02*
X113468600Y-84640000D01*
X113828600Y-83940000D02*
X113828600Y-84400000D01*
X111428600Y-83480000D02*
X111428600Y-83700000D01*
X111188600Y-83940000D02*
X111068600Y-83940000D01*
X119466018Y-84341751D02*
X119368519Y-84439250D01*
X112388600Y-84640000D02*
X112268600Y-84640000D01*
X102717600Y-83769200D02*
X102870000Y-83616800D01*
X117630066Y-84439250D02*
X117130816Y-83940000D01*
X116588600Y-83240000D02*
X116468600Y-83240000D01*
X114188600Y-83240000D02*
X114068600Y-83240000D01*
X116228600Y-83700000D02*
X116228600Y-83940000D01*
X114428600Y-83940000D02*
X114428600Y-83480000D01*
X112028600Y-83700000D02*
X112028600Y-83480000D01*
X117068600Y-83940000D02*
G75*
G02*
X116828600Y-83700000I0J240000D01*
G01*
X115628600Y-83480000D02*
G75*
G03*
X115388600Y-83240000I-240000J0D01*
G01*
X115868600Y-84640000D02*
G75*
G02*
X115628600Y-84400000I0J240000D01*
G01*
X114068600Y-83240000D02*
G75*
G03*
X113828600Y-83480000I0J-240000D01*
G01*
X112628600Y-84400000D02*
G75*
G02*
X112388600Y-84640000I-240000J0D01*
G01*
X111428600Y-83700000D02*
G75*
G02*
X111188600Y-83940000I-240000J0D01*
G01*
X112268600Y-84640000D02*
G75*
G02*
X112028600Y-84400000I0J240000D01*
G01*
X113468600Y-84640000D02*
G75*
G02*
X113228600Y-84400000I0J240000D01*
G01*
X114668600Y-84640000D02*
G75*
G02*
X114428600Y-84400000I0J240000D01*
G01*
X113828600Y-84400000D02*
G75*
G02*
X113588600Y-84640000I-240000J0D01*
G01*
X113228600Y-83480000D02*
G75*
G03*
X112988600Y-83240000I-240000J0D01*
G01*
X112028600Y-83480000D02*
G75*
G03*
X111788600Y-83240000I-240000J0D01*
G01*
X115028600Y-84400000D02*
G75*
G02*
X114788600Y-84640000I-240000J0D01*
G01*
X114428600Y-83480000D02*
G75*
G03*
X114188600Y-83240000I-240000J0D01*
G01*
X116828600Y-83480000D02*
G75*
G03*
X116588600Y-83240000I-240000J0D01*
G01*
X111668600Y-83240000D02*
G75*
G03*
X111428600Y-83480000I0J-240000D01*
G01*
X112868600Y-83240000D02*
G75*
G03*
X112628600Y-83480000I0J-240000D01*
G01*
X116468600Y-83240000D02*
G75*
G03*
X116228600Y-83480000I0J-240000D01*
G01*
X115268600Y-83240000D02*
G75*
G03*
X115028600Y-83480000I0J-240000D01*
G01*
X116228600Y-84400000D02*
G75*
G02*
X115988600Y-84640000I-240000J0D01*
G01*
%TO.N,/mcu/SDRAM.D13*%
X101142918Y-96400000D02*
X99400000Y-96400000D01*
X113675998Y-97774000D02*
X113555998Y-97774000D01*
X117290998Y-97224000D02*
X117140998Y-97224000D01*
D20*
X98124452Y-95784451D02*
X98124452Y-95784452D01*
D19*
X114875998Y-97774000D02*
X114755998Y-97774000D01*
D20*
X95563982Y-94381750D02*
X95563982Y-94061750D01*
D19*
X113915998Y-97014000D02*
X113915998Y-97534000D01*
X115715998Y-96774000D02*
X115715998Y-96599000D01*
X98707600Y-96367600D02*
X99277600Y-96367600D01*
X112955998Y-96774000D02*
X112592790Y-96774000D01*
X116090998Y-97224000D02*
X115940998Y-97224000D01*
D20*
X96123982Y-94221750D02*
X96203982Y-94221750D01*
X96540534Y-96463275D02*
X96597102Y-96519843D01*
D19*
X102899450Y-97049350D02*
X101792268Y-97049350D01*
D20*
X98435582Y-94341957D02*
X97558768Y-95218768D01*
X95563982Y-95361750D02*
X95563982Y-94381750D01*
X98520430Y-96180430D02*
X98577000Y-96237000D01*
D19*
X98706000Y-96366000D02*
X98707600Y-96367600D01*
D20*
X98124452Y-95784452D02*
X98011314Y-95897589D01*
D19*
X101792268Y-97049350D02*
X101142918Y-96400000D01*
D20*
X98577000Y-96237000D02*
X98706000Y-96366000D01*
D19*
X99310000Y-96400000D02*
X99400000Y-96400000D01*
D20*
X98011314Y-95897589D02*
X96717309Y-97191594D01*
D19*
X116915998Y-96999000D02*
X116915998Y-96774000D01*
X113915998Y-96774000D02*
X113915998Y-97014000D01*
X115115998Y-96599000D02*
X115115998Y-96774000D01*
D20*
X97275927Y-94935926D02*
X97275927Y-94935927D01*
X96151628Y-95720816D02*
X96208196Y-95777384D01*
X95963982Y-91681750D02*
X95963982Y-94061750D01*
X98195162Y-95713740D02*
X98124452Y-95784451D01*
D19*
X115540998Y-96424000D02*
X115290998Y-96424000D01*
X114515998Y-97534000D02*
X114515998Y-96774000D01*
D20*
X95723982Y-91521750D02*
X95803982Y-91521750D01*
X96434470Y-95777384D02*
X97162789Y-95049064D01*
X97275927Y-94935927D02*
X98152738Y-94059113D01*
X96879948Y-94766222D02*
X96151628Y-95494541D01*
D19*
X103174800Y-96774000D02*
X102899450Y-97049350D01*
D20*
X96823376Y-96519843D02*
X97841609Y-95501609D01*
X96561750Y-94221750D02*
X96879948Y-94539948D01*
X97162789Y-95049064D02*
X97275927Y-94935926D01*
X96717309Y-97417868D02*
X96773877Y-97474436D01*
X96203982Y-94221750D02*
X96561750Y-94221750D01*
D19*
X114340998Y-96424000D02*
X114090998Y-96424000D01*
X113075998Y-96774000D02*
X112955998Y-96774000D01*
X116315998Y-96774000D02*
X116315998Y-96999000D01*
X113915998Y-96599000D02*
X113915998Y-96774000D01*
D20*
X95323982Y-95521750D02*
X95403982Y-95521750D01*
D19*
X112592790Y-96774000D02*
X103174800Y-96774000D01*
X99277600Y-96367600D02*
X99310000Y-96400000D01*
D20*
X97000151Y-97474436D02*
X98294156Y-96180430D01*
D19*
X118008400Y-96774000D02*
X117740998Y-96774000D01*
D20*
X95163982Y-94381750D02*
X95163982Y-95361750D01*
D19*
X113315998Y-97534000D02*
X113315998Y-97014000D01*
X116315998Y-96599000D02*
X116315998Y-96774000D01*
X115115998Y-96774000D02*
X115115998Y-97534000D01*
X116915998Y-96774000D02*
X116915998Y-96599000D01*
X116740998Y-96424000D02*
X116490998Y-96424000D01*
D20*
X98379014Y-94059115D02*
X98435582Y-94115683D01*
D19*
X114515998Y-96774000D02*
X114515998Y-96599000D01*
X115715998Y-96999000D02*
X115715998Y-96774000D01*
D20*
X95563982Y-94061750D02*
X95563982Y-91681750D01*
X98053742Y-95430899D02*
X98195163Y-95572320D01*
X97841609Y-95501609D02*
X97912318Y-95430897D01*
X97558768Y-95218768D02*
X96540534Y-96237001D01*
D19*
X113915998Y-97534000D02*
G75*
G02*
X113675998Y-97773998I-239998J0D01*
G01*
D20*
X95003982Y-94221750D02*
G75*
G02*
X95164050Y-94381750I18J-160050D01*
G01*
D19*
X116490998Y-96424000D02*
G75*
G03*
X116316000Y-96599000I2J-175000D01*
G01*
X115115998Y-97534000D02*
G75*
G02*
X114875998Y-97773998I-239998J0D01*
G01*
D20*
X95403982Y-95521750D02*
G75*
G03*
X95564050Y-95361750I18J160050D01*
G01*
X96717309Y-97191594D02*
G75*
G03*
X96717340Y-97417837I113091J-113106D01*
G01*
D19*
X113555998Y-97774000D02*
G75*
G02*
X113316000Y-97534000I2J240000D01*
G01*
X116315998Y-96999000D02*
G75*
G02*
X116090998Y-97223998I-224998J0D01*
G01*
D20*
X96208196Y-95777384D02*
G75*
G03*
X96434470Y-95777384I113137J113137D01*
G01*
D19*
X115940998Y-97224000D02*
G75*
G02*
X115716000Y-96999000I2J225000D01*
G01*
D20*
X95963982Y-94061750D02*
G75*
G03*
X96123982Y-94221718I160018J50D01*
G01*
D19*
X114515998Y-96599000D02*
G75*
G03*
X114340998Y-96424002I-174998J0D01*
G01*
X116915998Y-96599000D02*
G75*
G03*
X116740998Y-96424002I-174998J0D01*
G01*
D20*
X98435582Y-94115683D02*
G75*
G02*
X98435562Y-94341937I-113182J-113117D01*
G01*
D19*
X117140998Y-97224000D02*
G75*
G02*
X116916000Y-96999000I2J225000D01*
G01*
X115290998Y-96424000D02*
G75*
G03*
X115116000Y-96599000I2J-175000D01*
G01*
X114755998Y-97774000D02*
G75*
G02*
X114516000Y-97534000I2J240000D01*
G01*
X115715998Y-96599000D02*
G75*
G03*
X115540998Y-96424002I-174998J0D01*
G01*
D20*
X96151628Y-95494541D02*
G75*
G03*
X96151606Y-95720837I113172J-113159D01*
G01*
X98152738Y-94059113D02*
G75*
G02*
X98379039Y-94059090I113162J-113187D01*
G01*
X95163982Y-95361750D02*
G75*
G03*
X95323982Y-95521718I160018J50D01*
G01*
X96597102Y-96519843D02*
G75*
G03*
X96823376Y-96519843I113137J113137D01*
G01*
X98294156Y-96180430D02*
G75*
G02*
X98520430Y-96180430I113137J-113137D01*
G01*
D19*
X113315998Y-97014000D02*
G75*
G03*
X113075998Y-96774002I-239998J0D01*
G01*
D20*
X98195163Y-95572320D02*
G75*
G02*
X98195133Y-95713710I-70663J-70680D01*
G01*
X95563982Y-91681750D02*
G75*
G02*
X95723982Y-91521782I160018J-50D01*
G01*
X96540534Y-96237001D02*
G75*
G03*
X96540572Y-96463237I113166J-113099D01*
G01*
D19*
X114090998Y-96424000D02*
G75*
G03*
X113916000Y-96599000I2J-175000D01*
G01*
D20*
X96879948Y-94539948D02*
G75*
G02*
X96879963Y-94766237I-113148J-113152D01*
G01*
D19*
X117515998Y-96999000D02*
G75*
G02*
X117290998Y-97223998I-224998J0D01*
G01*
D20*
X96773877Y-97474436D02*
G75*
G03*
X97000151Y-97474436I113137J113137D01*
G01*
D19*
X117740998Y-96774000D02*
G75*
G03*
X117516000Y-96999000I2J-225000D01*
G01*
D20*
X95803982Y-91521750D02*
G75*
G02*
X95964050Y-91681750I18J-160050D01*
G01*
X97912318Y-95430897D02*
G75*
G02*
X98053713Y-95430928I70682J-70703D01*
G01*
D19*
%TO.N,/mcu/SDRAM.CLK*%
X109677200Y-87477600D02*
X108915200Y-86715600D01*
X95368032Y-86330000D02*
X95368032Y-86230000D01*
X95868032Y-86230000D02*
X95868032Y-86330000D01*
X98568032Y-86330000D02*
X98668032Y-86330000D01*
X118583990Y-86718250D02*
X117824640Y-87477600D01*
X95368032Y-86530000D02*
X95368032Y-86330000D01*
X98668032Y-86330000D02*
X99105638Y-86330000D01*
X97868032Y-86330000D02*
X97868032Y-86530000D01*
X96868032Y-86330000D02*
X96868032Y-88380000D01*
X99105638Y-86330000D02*
X99131319Y-86304319D01*
X94868032Y-86530000D02*
X94868032Y-88630000D01*
X95868032Y-86330000D02*
X95868032Y-88630000D01*
X97868032Y-84030000D02*
X97868032Y-86330000D01*
X94307268Y-86210532D02*
X94426736Y-86330000D01*
X117824640Y-87477600D02*
X109677200Y-87477600D01*
X97368032Y-88380000D02*
X97368032Y-86330000D01*
X96568032Y-84130000D02*
X96668032Y-84130000D01*
X96368032Y-88630000D02*
X96368032Y-86330000D01*
X96068032Y-88830000D02*
X96168032Y-88830000D01*
X97068032Y-88580000D02*
X97168032Y-88580000D01*
X98368032Y-87880000D02*
X98368032Y-86530000D01*
X96868032Y-84330000D02*
X96868032Y-86330000D01*
X99491238Y-86715600D02*
X99105638Y-86330000D01*
X97568032Y-83830000D02*
X97668032Y-83830000D01*
X97368032Y-86330000D02*
X97368032Y-84030000D01*
X95068032Y-88830000D02*
X95168032Y-88830000D01*
X97868032Y-86530000D02*
X97868032Y-87880000D01*
X94426736Y-86330000D02*
X94668032Y-86330000D01*
X98068032Y-88080000D02*
X98168032Y-88080000D01*
X95368032Y-88630000D02*
X95368032Y-86530000D01*
X95468032Y-86130000D02*
X95768032Y-86130000D01*
X96368032Y-86330000D02*
X96368032Y-84330000D01*
X108915200Y-86715600D02*
X99491238Y-86715600D01*
X122670000Y-86718250D02*
X118583990Y-86718250D01*
X95368032Y-86230000D02*
G75*
G02*
X95468032Y-86130032I99968J0D01*
G01*
X96668032Y-84130000D02*
G75*
G02*
X96868000Y-84330000I-32J-200000D01*
G01*
X95868032Y-88630000D02*
G75*
G03*
X96068032Y-88829968I199968J0D01*
G01*
X96368032Y-84330000D02*
G75*
G02*
X96568032Y-84130032I199968J0D01*
G01*
X94668032Y-86330000D02*
G75*
G02*
X94868000Y-86530000I-32J-200000D01*
G01*
X95168032Y-88830000D02*
G75*
G03*
X95368000Y-88630000I-32J200000D01*
G01*
X94868032Y-88630000D02*
G75*
G03*
X95068032Y-88829968I199968J0D01*
G01*
X96168032Y-88830000D02*
G75*
G03*
X96368000Y-88630000I-32J200000D01*
G01*
X95768032Y-86130000D02*
G75*
G02*
X95868000Y-86230000I-32J-100000D01*
G01*
X97668032Y-83830000D02*
G75*
G02*
X97868000Y-84030000I-32J-200000D01*
G01*
X97168032Y-88580000D02*
G75*
G03*
X97368000Y-88380000I-32J200000D01*
G01*
X98168032Y-88080000D02*
G75*
G03*
X98368000Y-87880000I-32J200000D01*
G01*
X98368032Y-86530000D02*
G75*
G02*
X98568032Y-86330032I199968J0D01*
G01*
X96868032Y-88380000D02*
G75*
G03*
X97068032Y-88579968I199968J0D01*
G01*
X97368032Y-84030000D02*
G75*
G02*
X97568032Y-83830032I199968J0D01*
G01*
X97868032Y-87880000D02*
G75*
G03*
X98068032Y-88079968I199968J0D01*
G01*
%TO.N,/mcu/SDRAM.A5*%
X115844400Y-78560750D02*
X115844400Y-78820750D01*
X115844400Y-78820750D02*
X115844400Y-79060750D01*
X114044400Y-79080750D02*
X114044400Y-78820750D01*
X117680750Y-78820750D02*
X117860000Y-79000000D01*
X114044400Y-78820750D02*
X114044400Y-78560750D01*
X116804400Y-78820750D02*
X117072838Y-78820750D01*
X112244400Y-78560750D02*
X112244400Y-78580750D01*
X79340000Y-79450000D02*
X98730000Y-79450000D01*
X114884400Y-79320750D02*
X115004400Y-79320750D01*
X99359250Y-78820750D02*
X111404400Y-78820750D01*
X117072838Y-78820750D02*
X117680750Y-78820750D01*
X115244400Y-78820750D02*
X115244400Y-78560750D01*
X115244400Y-79080750D02*
X115244400Y-78820750D01*
X112844400Y-79080750D02*
X112844400Y-78820750D01*
X114644400Y-78820750D02*
X114644400Y-79080750D01*
X114284400Y-78320750D02*
X114404400Y-78320750D01*
X112484400Y-79320750D02*
X112604400Y-79320750D01*
X113444400Y-78560750D02*
X113444400Y-78820750D01*
X116444400Y-79080750D02*
X116444400Y-79060750D01*
X99180000Y-79000000D02*
X99333400Y-79000000D01*
X77020000Y-81770000D02*
X79340000Y-79450000D01*
X113084400Y-78320750D02*
X113204400Y-78320750D01*
X112244400Y-78580750D02*
X112244400Y-78820750D01*
X112844400Y-78820750D02*
X112844400Y-78560750D01*
X99180000Y-79000000D02*
X99359250Y-78820750D01*
X114644400Y-78560750D02*
X114644400Y-78820750D01*
X112244400Y-78820750D02*
X112244400Y-79080750D01*
X113684400Y-79320750D02*
X113804400Y-79320750D01*
X115484400Y-78320750D02*
X115604400Y-78320750D01*
X115844400Y-79060750D02*
X115844400Y-79080750D01*
X111644400Y-78580750D02*
X111644400Y-78560750D01*
X76980000Y-81770000D02*
X77020000Y-81770000D01*
X98730000Y-79450000D02*
X99180000Y-79000000D01*
X116084400Y-79320750D02*
X116204400Y-79320750D01*
X111884400Y-78320750D02*
X112004400Y-78320750D01*
X113444400Y-78820750D02*
X113444400Y-79080750D01*
X116684400Y-78820750D02*
X116804400Y-78820750D01*
X111404400Y-78820750D02*
G75*
G03*
X111644350Y-78580750I0J239950D01*
G01*
X112844400Y-78560750D02*
G75*
G02*
X113084400Y-78320700I240000J50D01*
G01*
X116204400Y-79320750D02*
G75*
G03*
X116444350Y-79080750I0J239950D01*
G01*
X115844400Y-79080750D02*
G75*
G03*
X116084400Y-79320800I240000J-50D01*
G01*
X114044400Y-78560750D02*
G75*
G02*
X114284400Y-78320700I240000J50D01*
G01*
X113444400Y-79080750D02*
G75*
G03*
X113684400Y-79320800I240000J-50D01*
G01*
X113204400Y-78320750D02*
G75*
G02*
X113444350Y-78560750I0J-239950D01*
G01*
X115004400Y-79320750D02*
G75*
G03*
X115244350Y-79080750I0J239950D01*
G01*
X114644400Y-79080750D02*
G75*
G03*
X114884400Y-79320800I240000J-50D01*
G01*
X114404400Y-78320750D02*
G75*
G02*
X114644350Y-78560750I0J-239950D01*
G01*
X111644400Y-78560750D02*
G75*
G02*
X111884400Y-78320700I240000J50D01*
G01*
X115244400Y-78560750D02*
G75*
G02*
X115484400Y-78320700I240000J50D01*
G01*
X115604400Y-78320750D02*
G75*
G02*
X115844350Y-78560750I0J-239950D01*
G01*
X116444400Y-79060750D02*
G75*
G02*
X116684400Y-78820700I240000J50D01*
G01*
X112004400Y-78320750D02*
G75*
G02*
X112244350Y-78560750I0J-239950D01*
G01*
X112244400Y-79080750D02*
G75*
G03*
X112484400Y-79320800I240000J-50D01*
G01*
X112604400Y-79320750D02*
G75*
G03*
X112844350Y-79080750I0J239950D01*
G01*
X113804400Y-79320750D02*
G75*
G03*
X114044350Y-79080750I0J239950D01*
G01*
%TO.N,/mcu/SDRAM.A0*%
X74302498Y-83583135D02*
X72967461Y-82248098D01*
X75986049Y-83583135D02*
X74302498Y-83583135D01*
X108392550Y-79959200D02*
X127059200Y-79959200D01*
X127059200Y-79959200D02*
X127700000Y-80600000D01*
X79278434Y-80290750D02*
X75986049Y-83583135D01*
X108170000Y-80181750D02*
X108392550Y-79959200D01*
X108170000Y-80181750D02*
X108184650Y-80181750D01*
X108061000Y-80290750D02*
X79278434Y-80290750D01*
X108170000Y-80181750D02*
X108061000Y-80290750D01*
%TO.N,/mcu/SDRAM.A10*%
X109790803Y-82072447D02*
X109885000Y-81978250D01*
X121545800Y-81864200D02*
X121860000Y-81550000D01*
X83400000Y-91643200D02*
X83413600Y-91629600D01*
X109122940Y-82350500D02*
X109514166Y-82350500D01*
X121860000Y-81550000D02*
X129750000Y-81550000D01*
X109885000Y-81978250D02*
X109930000Y-81978250D01*
X110566200Y-81864200D02*
X121545800Y-81864200D01*
X129750000Y-81550000D02*
X129800000Y-81600000D01*
X98552000Y-82169000D02*
X98679000Y-82042000D01*
X83413600Y-91216462D02*
X83591290Y-91038772D01*
X110452150Y-81978250D02*
X110566200Y-81864200D01*
X108846303Y-82073863D02*
X109122940Y-82350500D01*
X90786352Y-83790750D02*
X92408102Y-82169000D01*
X83591290Y-89688243D02*
X89488783Y-83790750D01*
X83591290Y-91038772D02*
X83591290Y-89688243D01*
X98679000Y-82042000D02*
X108846303Y-82042000D01*
X109514166Y-82350500D02*
X109790803Y-82073863D01*
X109790803Y-82073863D02*
X109790803Y-82072447D01*
X83413600Y-91629600D02*
X83413600Y-91216462D01*
X109930000Y-81978250D02*
X110452150Y-81978250D01*
X89488783Y-83790750D02*
X90786352Y-83790750D01*
X92408102Y-82169000D02*
X98552000Y-82169000D01*
X108846303Y-82042000D02*
X108846303Y-82073863D01*
%TO.N,/mcu/SDRAM.D3*%
X120690000Y-94200000D02*
X130800000Y-94200000D01*
X113231317Y-95124883D02*
X113233200Y-95123000D01*
X108516000Y-94800000D02*
X110124766Y-94800000D01*
X114935000Y-95123000D02*
X114936883Y-95124883D01*
X101978762Y-90576400D02*
X102385162Y-90170000D01*
X102385162Y-90170000D02*
X103886000Y-90170000D01*
X114689113Y-95123000D02*
X114935000Y-95123000D01*
X114936883Y-95124883D02*
X119765117Y-95124883D01*
X113690887Y-95123000D02*
X113994387Y-94819500D01*
X103886000Y-90170000D02*
X108516000Y-94800000D01*
X110449649Y-95124883D02*
X113231317Y-95124883D01*
X89832525Y-86124125D02*
X94284800Y-90576400D01*
X113233200Y-95123000D02*
X113690887Y-95123000D01*
X88345875Y-86124125D02*
X89832525Y-86124125D01*
X119765117Y-95124883D02*
X120690000Y-94200000D01*
X113994387Y-94819500D02*
X114385613Y-94819500D01*
X110124766Y-94800000D02*
X110449649Y-95124883D01*
X94284800Y-90576400D02*
X101978762Y-90576400D01*
X114385613Y-94819500D02*
X114689113Y-95123000D01*
%TO.N,/mcu/SDRAM.BS0*%
X103221915Y-84256500D02*
X103341915Y-84256500D01*
X103581915Y-84496500D02*
X103581915Y-84756500D01*
X101906915Y-84506500D02*
X102256915Y-84506500D01*
X101181915Y-84756500D02*
X101181915Y-85016500D01*
X125153800Y-84190000D02*
X125153800Y-84450000D01*
X98657458Y-84755790D02*
X98658168Y-84756500D01*
X126953800Y-84190000D02*
X126953800Y-83930000D01*
X128799956Y-84190000D02*
X129010003Y-84190000D01*
X100581915Y-84756500D02*
X100581915Y-84556500D01*
X108757288Y-84759800D02*
X109138288Y-85140800D01*
X104181915Y-84756500D02*
X104181915Y-84496500D01*
X108126500Y-84756500D02*
X108129800Y-84759800D01*
X124193800Y-84690000D02*
X124313800Y-84690000D01*
X100781915Y-84356500D02*
X100981915Y-84356500D01*
X107421915Y-84756500D02*
X107541915Y-84756500D01*
X100581915Y-85016500D02*
X100581915Y-84996500D01*
X108165250Y-84795250D02*
X108170000Y-84800000D01*
X99981915Y-84996500D02*
X99981915Y-85016500D01*
X128513800Y-84190000D02*
X128799956Y-84190000D01*
X102381915Y-84631500D02*
X102381915Y-84756500D01*
X123953800Y-83930000D02*
X123953800Y-83950000D01*
X109138288Y-85140800D02*
X120669200Y-85140800D01*
X125993800Y-83690000D02*
X126113800Y-83690000D01*
X105381915Y-85016500D02*
X105381915Y-84756500D01*
X106581915Y-84516500D02*
X106581915Y-84496500D01*
X105981915Y-84756500D02*
X105981915Y-85016500D01*
X127553800Y-83930000D02*
X127553800Y-84190000D01*
X101181915Y-84556500D02*
X101181915Y-84756500D01*
X102621915Y-85256500D02*
X102741915Y-85256500D01*
X105021915Y-85256500D02*
X105141915Y-85256500D01*
X127193800Y-83690000D02*
X127313800Y-83690000D01*
X127793800Y-84690000D02*
X127913800Y-84690000D01*
X104781915Y-84496500D02*
X104781915Y-84756500D01*
X103821915Y-85256500D02*
X103941915Y-85256500D01*
X108126500Y-84756500D02*
X108165250Y-84795250D01*
X125393800Y-84690000D02*
X125513800Y-84690000D01*
X107181915Y-84496500D02*
X107181915Y-84516500D01*
X129010003Y-84190000D02*
X130000000Y-83200003D01*
X125753800Y-84450000D02*
X125753800Y-84190000D01*
X126353800Y-84190000D02*
X126353800Y-84450000D01*
X103581915Y-84756500D02*
X103581915Y-85016500D01*
X104181915Y-85016500D02*
X104181915Y-84756500D01*
X106581915Y-84756500D02*
X106581915Y-84516500D01*
X106221915Y-85256500D02*
X106341915Y-85256500D01*
X104421915Y-84256500D02*
X104541915Y-84256500D01*
X126953800Y-84450000D02*
X126953800Y-84190000D01*
X127553800Y-84430000D02*
X127553800Y-84450000D01*
X105621915Y-84256500D02*
X105741915Y-84256500D01*
X124793800Y-83690000D02*
X124913800Y-83690000D01*
X101781915Y-84756500D02*
X101781915Y-84631500D01*
X108129800Y-84759800D02*
X108757288Y-84759800D01*
X100221915Y-85256500D02*
X100341915Y-85256500D01*
X104781915Y-84756500D02*
X104781915Y-85016500D01*
X123953800Y-83950000D02*
X123953800Y-84190000D01*
X123353800Y-83950000D02*
X123353800Y-83930000D01*
X128393800Y-84190000D02*
X128513800Y-84190000D01*
X105381915Y-84756500D02*
X105381915Y-84496500D01*
X125753800Y-84190000D02*
X125753800Y-83930000D01*
X107541915Y-84756500D02*
X108126500Y-84756500D01*
X123593800Y-83690000D02*
X123713800Y-83690000D01*
X105981915Y-84496500D02*
X105981915Y-84756500D01*
X102981915Y-84756500D02*
X102981915Y-84496500D01*
X100581915Y-84996500D02*
X100581915Y-84756500D01*
X102981915Y-85016500D02*
X102981915Y-84756500D01*
X124553800Y-84190000D02*
X124553800Y-83930000D01*
X126353800Y-83930000D02*
X126353800Y-84190000D01*
X120669200Y-85140800D02*
X121620000Y-84190000D01*
X123953800Y-84190000D02*
X123953800Y-84450000D01*
X102381915Y-84756500D02*
X102381915Y-85016500D01*
X128153800Y-84450000D02*
X128153800Y-84430000D01*
X101421915Y-85256500D02*
X101541915Y-85256500D01*
X106581915Y-85016500D02*
X106581915Y-84756500D01*
X124553800Y-84450000D02*
X124553800Y-84190000D01*
X125153800Y-83930000D02*
X125153800Y-84190000D01*
X126593800Y-84690000D02*
X126713800Y-84690000D01*
X106821915Y-84256500D02*
X106941915Y-84256500D01*
X101781915Y-85016500D02*
X101781915Y-84756500D01*
X98658168Y-84756500D02*
X99741915Y-84756500D01*
X127553800Y-84190000D02*
X127553800Y-84430000D01*
X121620000Y-84190000D02*
X123113800Y-84190000D01*
X105741915Y-84256500D02*
G75*
G02*
X105981900Y-84496500I-15J-240000D01*
G01*
X123113800Y-84190000D02*
G75*
G03*
X123353800Y-83950000I0J240000D01*
G01*
X105981915Y-85016500D02*
G75*
G03*
X106221915Y-85256485I239985J0D01*
G01*
X107181915Y-84516500D02*
G75*
G03*
X107421915Y-84756485I239985J0D01*
G01*
X126353800Y-84450000D02*
G75*
G03*
X126593800Y-84690000I240000J0D01*
G01*
X125753800Y-83930000D02*
G75*
G02*
X125993800Y-83690000I240000J0D01*
G01*
X104781915Y-85016500D02*
G75*
G03*
X105021915Y-85256485I239985J0D01*
G01*
X103941915Y-85256500D02*
G75*
G03*
X104181900Y-85016500I-15J240000D01*
G01*
X105141915Y-85256500D02*
G75*
G03*
X105381900Y-85016500I-15J240000D01*
G01*
X104181915Y-84496500D02*
G75*
G02*
X104421915Y-84256515I239985J0D01*
G01*
X106581915Y-84496500D02*
G75*
G02*
X106821915Y-84256515I239985J0D01*
G01*
X127313800Y-83690000D02*
G75*
G02*
X127553800Y-83930000I0J-240000D01*
G01*
X127913800Y-84690000D02*
G75*
G03*
X128153800Y-84450000I0J240000D01*
G01*
X102381915Y-85016500D02*
G75*
G03*
X102621915Y-85256485I239985J0D01*
G01*
X101781915Y-84631500D02*
G75*
G02*
X101906915Y-84506515I124985J0D01*
G01*
X126113800Y-83690000D02*
G75*
G02*
X126353800Y-83930000I0J-240000D01*
G01*
X123713800Y-83690000D02*
G75*
G02*
X123953800Y-83930000I0J-240000D01*
G01*
X126953800Y-83930000D02*
G75*
G02*
X127193800Y-83690000I240000J0D01*
G01*
X124313800Y-84690000D02*
G75*
G03*
X124553800Y-84450000I0J240000D01*
G01*
X102981915Y-84496500D02*
G75*
G02*
X103221915Y-84256515I239985J0D01*
G01*
X106941915Y-84256500D02*
G75*
G02*
X107181900Y-84496500I-15J-240000D01*
G01*
X99741915Y-84756500D02*
G75*
G02*
X99981900Y-84996500I-15J-240000D01*
G01*
X100981915Y-84356500D02*
G75*
G02*
X101181900Y-84556500I-15J-200000D01*
G01*
X104541915Y-84256500D02*
G75*
G02*
X104781900Y-84496500I-15J-240000D01*
G01*
X125513800Y-84690000D02*
G75*
G03*
X125753800Y-84450000I0J240000D01*
G01*
X99981915Y-85016500D02*
G75*
G03*
X100221915Y-85256485I239985J0D01*
G01*
X123953800Y-84450000D02*
G75*
G03*
X124193800Y-84690000I240000J0D01*
G01*
X103581915Y-85016500D02*
G75*
G03*
X103821915Y-85256485I239985J0D01*
G01*
X103341915Y-84256500D02*
G75*
G02*
X103581900Y-84496500I-15J-240000D01*
G01*
X106341915Y-85256500D02*
G75*
G03*
X106581900Y-85016500I-15J240000D01*
G01*
X124553800Y-83930000D02*
G75*
G02*
X124793800Y-83690000I240000J0D01*
G01*
X125153800Y-84450000D02*
G75*
G03*
X125393800Y-84690000I240000J0D01*
G01*
X102256915Y-84506500D02*
G75*
G02*
X102381900Y-84631500I-15J-125000D01*
G01*
X100581915Y-84556500D02*
G75*
G02*
X100781915Y-84356515I199985J0D01*
G01*
X123353800Y-83930000D02*
G75*
G02*
X123593800Y-83690000I240000J0D01*
G01*
X126713800Y-84690000D02*
G75*
G03*
X126953800Y-84450000I0J240000D01*
G01*
X102741915Y-85256500D02*
G75*
G03*
X102981900Y-85016500I-15J240000D01*
G01*
X105381915Y-84496500D02*
G75*
G02*
X105621915Y-84256515I239985J0D01*
G01*
X101541915Y-85256500D02*
G75*
G03*
X101781900Y-85016500I-15J240000D01*
G01*
X127553800Y-84450000D02*
G75*
G03*
X127793800Y-84690000I240000J0D01*
G01*
X101181915Y-85016500D02*
G75*
G03*
X101421915Y-85256485I239985J0D01*
G01*
X128153800Y-84430000D02*
G75*
G02*
X128393800Y-84190000I240000J0D01*
G01*
X124913800Y-83690000D02*
G75*
G02*
X125153800Y-83930000I0J-240000D01*
G01*
X100341915Y-85256500D02*
G75*
G03*
X100581900Y-85016500I-15J240000D01*
G01*
%TO.N,/mcu/SDRAM.D2*%
X89603982Y-87546582D02*
X89603982Y-86621751D01*
X92024200Y-89103200D02*
X91160600Y-89103200D01*
X129901200Y-95600000D02*
X130400000Y-95600000D01*
X94107000Y-91186000D02*
X92024200Y-89103200D01*
X122043341Y-97083341D02*
X128417859Y-97083341D01*
X103886000Y-94361000D02*
X100965000Y-94361000D01*
X100965000Y-94361000D02*
X97790000Y-91186000D01*
X97790000Y-91186000D02*
X94107000Y-91186000D01*
X107855442Y-95141750D02*
X108827292Y-96113600D01*
X107855442Y-95141750D02*
X107696392Y-95300800D01*
X104825800Y-95300800D02*
X103886000Y-94361000D01*
X108827292Y-96113600D02*
X121073600Y-96113600D01*
X91160600Y-89103200D02*
X89603982Y-87546582D01*
X107696392Y-95300800D02*
X104825800Y-95300800D01*
X128417859Y-97083341D02*
X129901200Y-95600000D01*
X121073600Y-96113600D02*
X122043341Y-97083341D01*
%TD*%
%TA.AperFunction,Conductor*%
%TO.N,/adc-frontend/VOCM_BUFF*%
G36*
X98894858Y-109019685D02*
G01*
X98916480Y-109037309D01*
X99719438Y-109858516D01*
X99752232Y-109920212D01*
X99754144Y-109957722D01*
X98940442Y-117978515D01*
X98914091Y-118043226D01*
X98856939Y-118083417D01*
X98817075Y-118090000D01*
X97615124Y-118090000D01*
X97548085Y-118070315D01*
X97502330Y-118017511D01*
X97491124Y-117966292D01*
X97490125Y-117542786D01*
X97487938Y-116614529D01*
X97504551Y-116552242D01*
X97538332Y-116493732D01*
X97565625Y-116391872D01*
X97565625Y-116286418D01*
X97538332Y-116184558D01*
X97503249Y-116123793D01*
X97486637Y-116062086D01*
X97470293Y-109124292D01*
X97489820Y-109057206D01*
X97542516Y-109011327D01*
X97594293Y-109000000D01*
X98827819Y-109000000D01*
X98894858Y-109019685D01*
G37*
%TD.AperFunction*%
%TD*%
%TA.AperFunction,Conductor*%
%TO.N,+3V3*%
G36*
X129898766Y-52091799D02*
G01*
X129920732Y-52144003D01*
X129920733Y-52144680D01*
X129910108Y-55123813D01*
X129888434Y-55175875D01*
X126571674Y-58492636D01*
X126519348Y-58514310D01*
X125140000Y-58514310D01*
X124910000Y-58744310D01*
X124910000Y-64800000D01*
X124206000Y-67310000D01*
X124910000Y-69084310D01*
X124851674Y-69142636D01*
X124799348Y-69164310D01*
X76040000Y-69164310D01*
X76029457Y-69168677D01*
X76001138Y-69174310D01*
X73864000Y-69174310D01*
X73811674Y-69152636D01*
X73790000Y-69100310D01*
X73790000Y-68387270D01*
X119309500Y-68387270D01*
X119309500Y-68492729D01*
X119336791Y-68594582D01*
X119336792Y-68594585D01*
X119336793Y-68594587D01*
X119389520Y-68685913D01*
X119464087Y-68760480D01*
X119555413Y-68813207D01*
X119657270Y-68840499D01*
X119657271Y-68840500D01*
X119657273Y-68840500D01*
X119762729Y-68840500D01*
X119762729Y-68840499D01*
X119864587Y-68813207D01*
X119955913Y-68760480D01*
X120030480Y-68685913D01*
X120083207Y-68594587D01*
X120110499Y-68492729D01*
X120110500Y-68492729D01*
X120110500Y-68387271D01*
X120110499Y-68387270D01*
X120083208Y-68285417D01*
X120083207Y-68285413D01*
X120030480Y-68194087D01*
X119955913Y-68119520D01*
X119864591Y-68066795D01*
X119864582Y-68066791D01*
X119762729Y-68039500D01*
X119762727Y-68039500D01*
X119657273Y-68039500D01*
X119657271Y-68039500D01*
X119555417Y-68066791D01*
X119555408Y-68066795D01*
X119464086Y-68119520D01*
X119389520Y-68194086D01*
X119336795Y-68285408D01*
X119336791Y-68285417D01*
X119309500Y-68387270D01*
X73790000Y-68387270D01*
X73790000Y-59180073D01*
X73811674Y-59127747D01*
X73864000Y-59106073D01*
X73865442Y-59106088D01*
X78404419Y-59199473D01*
X78449790Y-59216213D01*
X83330000Y-63214310D01*
X97169348Y-63214310D01*
X97221674Y-63235984D01*
X100980000Y-66994310D01*
X108680000Y-66994310D01*
X108997040Y-66677270D01*
X113999500Y-66677270D01*
X113999500Y-66782729D01*
X114026791Y-66884582D01*
X114026792Y-66884585D01*
X114026793Y-66884587D01*
X114079520Y-66975913D01*
X114154087Y-67050480D01*
X114245413Y-67103207D01*
X114347270Y-67130499D01*
X114347271Y-67130500D01*
X114347273Y-67130500D01*
X114452729Y-67130500D01*
X114452729Y-67130499D01*
X114554587Y-67103207D01*
X114645913Y-67050480D01*
X114706174Y-66990219D01*
X114758500Y-66968545D01*
X114810826Y-66990219D01*
X114816087Y-66995480D01*
X114907413Y-67048207D01*
X115009270Y-67075499D01*
X115009271Y-67075500D01*
X115009273Y-67075500D01*
X115114729Y-67075500D01*
X115114729Y-67075499D01*
X115216587Y-67048207D01*
X115307913Y-66995480D01*
X115382480Y-66920913D01*
X115435207Y-66829587D01*
X115462499Y-66727729D01*
X115462500Y-66727729D01*
X115462500Y-66622271D01*
X115462499Y-66622270D01*
X115435208Y-66520417D01*
X115435207Y-66520413D01*
X115382480Y-66429087D01*
X115307913Y-66354520D01*
X115264577Y-66329500D01*
X115216591Y-66301795D01*
X115216582Y-66301791D01*
X115114729Y-66274500D01*
X115114727Y-66274500D01*
X115009273Y-66274500D01*
X115009271Y-66274500D01*
X114907417Y-66301791D01*
X114907408Y-66301795D01*
X114816086Y-66354520D01*
X114755826Y-66414781D01*
X114703500Y-66436455D01*
X114651174Y-66414781D01*
X114645913Y-66409520D01*
X114554591Y-66356795D01*
X114554582Y-66356791D01*
X114452729Y-66329500D01*
X114452727Y-66329500D01*
X114347273Y-66329500D01*
X114347271Y-66329500D01*
X114245417Y-66356791D01*
X114245408Y-66356795D01*
X114154086Y-66409520D01*
X114079520Y-66484086D01*
X114026795Y-66575408D01*
X114026791Y-66575417D01*
X113999500Y-66677270D01*
X108997040Y-66677270D01*
X109110000Y-66564310D01*
X109110000Y-64287270D01*
X121779500Y-64287270D01*
X121779500Y-64392729D01*
X121806791Y-64494582D01*
X121806792Y-64494585D01*
X121806793Y-64494587D01*
X121859520Y-64585913D01*
X121934087Y-64660480D01*
X122025413Y-64713207D01*
X122127270Y-64740499D01*
X122127271Y-64740500D01*
X122127273Y-64740500D01*
X122232729Y-64740500D01*
X122232729Y-64740499D01*
X122334587Y-64713207D01*
X122425913Y-64660480D01*
X122500480Y-64585913D01*
X122553207Y-64494587D01*
X122580499Y-64392729D01*
X122580500Y-64392729D01*
X122580500Y-64287271D01*
X122580499Y-64287270D01*
X122565884Y-64232727D01*
X122553207Y-64185413D01*
X122500480Y-64094087D01*
X122425913Y-64019520D01*
X122372185Y-63988500D01*
X122334591Y-63966795D01*
X122334582Y-63966791D01*
X122232729Y-63939500D01*
X122232727Y-63939500D01*
X122127273Y-63939500D01*
X122127271Y-63939500D01*
X122025417Y-63966791D01*
X122025408Y-63966795D01*
X121934086Y-64019520D01*
X121859520Y-64094086D01*
X121806795Y-64185408D01*
X121806791Y-64185417D01*
X121779500Y-64287270D01*
X109110000Y-64287270D01*
X109110000Y-63932115D01*
X109131674Y-63879789D01*
X109184000Y-63858115D01*
X109198437Y-63859537D01*
X109351586Y-63890000D01*
X109558416Y-63890000D01*
X109761267Y-63849651D01*
X109761274Y-63849649D01*
X109952361Y-63770498D01*
X110042455Y-63710299D01*
X110042455Y-63710298D01*
X109640176Y-63308019D01*
X109647993Y-63305925D01*
X109762007Y-63240099D01*
X109855099Y-63147007D01*
X109920925Y-63032993D01*
X109923019Y-63025176D01*
X110325298Y-63427455D01*
X110325299Y-63427455D01*
X110385498Y-63337361D01*
X110464649Y-63146274D01*
X110464651Y-63146267D01*
X110505000Y-62943415D01*
X110505000Y-62736584D01*
X110945000Y-62736584D01*
X110945000Y-62943415D01*
X110985348Y-63146267D01*
X110985350Y-63146274D01*
X111064502Y-63337362D01*
X111124699Y-63427455D01*
X111526980Y-63025174D01*
X111529075Y-63032993D01*
X111594901Y-63147007D01*
X111687993Y-63240099D01*
X111802007Y-63305925D01*
X111809822Y-63308019D01*
X111407543Y-63710298D01*
X111497637Y-63770497D01*
X111688725Y-63849649D01*
X111688732Y-63849651D01*
X111891584Y-63890000D01*
X112098416Y-63890000D01*
X112301267Y-63849651D01*
X112301274Y-63849649D01*
X112492361Y-63770498D01*
X112582455Y-63710299D01*
X112582455Y-63710298D01*
X112180177Y-63308019D01*
X112187993Y-63305925D01*
X112302007Y-63240099D01*
X112395099Y-63147007D01*
X112460925Y-63032993D01*
X112463019Y-63025176D01*
X112865298Y-63427455D01*
X112865299Y-63427455D01*
X112925498Y-63337361D01*
X113004649Y-63146274D01*
X113004651Y-63146267D01*
X113045000Y-62943415D01*
X113045000Y-62736591D01*
X113044998Y-62736577D01*
X113044990Y-62736535D01*
X113484500Y-62736535D01*
X113484500Y-62943465D01*
X113491129Y-62976793D01*
X113524868Y-63146413D01*
X113524870Y-63146420D01*
X113604059Y-63337598D01*
X113715636Y-63504587D01*
X113719023Y-63509655D01*
X113865345Y-63655977D01*
X114037402Y-63770941D01*
X114228580Y-63850130D01*
X114431535Y-63890500D01*
X114431536Y-63890500D01*
X114638464Y-63890500D01*
X114638465Y-63890500D01*
X114841420Y-63850130D01*
X115032598Y-63770941D01*
X115204655Y-63655977D01*
X115350977Y-63509655D01*
X115465941Y-63337598D01*
X115545130Y-63146420D01*
X115585500Y-62943465D01*
X115585500Y-62736535D01*
X116024500Y-62736535D01*
X116024500Y-62943465D01*
X116031129Y-62976793D01*
X116064868Y-63146413D01*
X116064870Y-63146420D01*
X116144059Y-63337598D01*
X116255636Y-63504587D01*
X116259023Y-63509655D01*
X116405345Y-63655977D01*
X116577402Y-63770941D01*
X116768580Y-63850130D01*
X116971535Y-63890500D01*
X116971536Y-63890500D01*
X117178464Y-63890500D01*
X117178465Y-63890500D01*
X117381420Y-63850130D01*
X117572598Y-63770941D01*
X117744655Y-63655977D01*
X117890977Y-63509655D01*
X117892571Y-63507270D01*
X122819500Y-63507270D01*
X122819500Y-63612729D01*
X122846791Y-63714582D01*
X122846795Y-63714591D01*
X122879073Y-63770498D01*
X122899520Y-63805913D01*
X122974087Y-63880480D01*
X123065413Y-63933207D01*
X123167270Y-63960499D01*
X123167271Y-63960500D01*
X123167273Y-63960500D01*
X123272729Y-63960500D01*
X123272729Y-63960499D01*
X123374587Y-63933207D01*
X123465913Y-63880480D01*
X123540480Y-63805913D01*
X123593207Y-63714587D01*
X123620499Y-63612729D01*
X123620500Y-63612729D01*
X123620500Y-63507271D01*
X123620499Y-63507270D01*
X123593208Y-63405417D01*
X123593207Y-63405413D01*
X123540480Y-63314087D01*
X123465913Y-63239520D01*
X123422248Y-63214310D01*
X123374591Y-63186795D01*
X123374582Y-63186791D01*
X123272729Y-63159500D01*
X123272727Y-63159500D01*
X123167273Y-63159500D01*
X123167271Y-63159500D01*
X123065417Y-63186791D01*
X123065408Y-63186795D01*
X122974086Y-63239520D01*
X122899520Y-63314086D01*
X122846795Y-63405408D01*
X122846791Y-63405417D01*
X122819500Y-63507270D01*
X117892571Y-63507270D01*
X118005941Y-63337598D01*
X118085130Y-63146420D01*
X118125500Y-62943465D01*
X118125500Y-62736535D01*
X118085130Y-62533580D01*
X118005941Y-62342402D01*
X117890977Y-62170345D01*
X117744655Y-62024023D01*
X117664180Y-61970252D01*
X117572598Y-61909059D01*
X117381420Y-61829870D01*
X117381413Y-61829868D01*
X117228516Y-61799455D01*
X117178465Y-61789500D01*
X116971535Y-61789500D01*
X116931385Y-61797486D01*
X116768586Y-61829868D01*
X116768579Y-61829870D01*
X116577401Y-61909059D01*
X116405345Y-62024022D01*
X116405344Y-62024024D01*
X116259024Y-62170344D01*
X116259022Y-62170345D01*
X116144059Y-62342401D01*
X116064870Y-62533579D01*
X116064868Y-62533586D01*
X116036943Y-62673978D01*
X116024500Y-62736535D01*
X115585500Y-62736535D01*
X115545130Y-62533580D01*
X115465941Y-62342402D01*
X115350977Y-62170345D01*
X115204655Y-62024023D01*
X115124180Y-61970252D01*
X115032598Y-61909059D01*
X114841420Y-61829870D01*
X114841413Y-61829868D01*
X114688516Y-61799455D01*
X114638465Y-61789500D01*
X114431535Y-61789500D01*
X114391385Y-61797486D01*
X114228586Y-61829868D01*
X114228579Y-61829870D01*
X114037401Y-61909059D01*
X113865345Y-62024022D01*
X113865344Y-62024024D01*
X113719024Y-62170344D01*
X113719022Y-62170345D01*
X113604059Y-62342401D01*
X113524870Y-62533579D01*
X113524868Y-62533586D01*
X113496943Y-62673978D01*
X113484500Y-62736535D01*
X113044990Y-62736535D01*
X113004651Y-62533732D01*
X113004649Y-62533725D01*
X112925497Y-62342637D01*
X112865298Y-62252543D01*
X112463019Y-62654821D01*
X112460925Y-62647007D01*
X112395099Y-62532993D01*
X112302007Y-62439901D01*
X112187993Y-62374075D01*
X112180174Y-62371980D01*
X112582455Y-61969699D01*
X112492362Y-61909502D01*
X112301274Y-61830350D01*
X112301267Y-61830348D01*
X112098416Y-61790000D01*
X111891584Y-61790000D01*
X111688732Y-61830348D01*
X111688725Y-61830350D01*
X111497634Y-61909503D01*
X111407543Y-61969698D01*
X111407543Y-61969699D01*
X111809823Y-62371980D01*
X111802007Y-62374075D01*
X111687993Y-62439901D01*
X111594901Y-62532993D01*
X111529075Y-62647007D01*
X111526980Y-62654823D01*
X111124699Y-62252543D01*
X111124698Y-62252543D01*
X111064503Y-62342634D01*
X110985350Y-62533725D01*
X110985348Y-62533732D01*
X110945000Y-62736584D01*
X110505000Y-62736584D01*
X110464651Y-62533732D01*
X110464649Y-62533725D01*
X110385497Y-62342637D01*
X110325298Y-62252543D01*
X109923019Y-62654821D01*
X109920925Y-62647007D01*
X109855099Y-62532993D01*
X109762007Y-62439901D01*
X109647993Y-62374075D01*
X109640174Y-62371980D01*
X110042455Y-61969699D01*
X109952362Y-61909502D01*
X109761274Y-61830350D01*
X109761267Y-61830348D01*
X109558416Y-61790000D01*
X109351584Y-61790000D01*
X109148732Y-61830348D01*
X109148725Y-61830350D01*
X108957634Y-61909503D01*
X108867543Y-61969698D01*
X108867543Y-61969699D01*
X109269823Y-62371980D01*
X109262007Y-62374075D01*
X109147993Y-62439901D01*
X109054901Y-62532993D01*
X108989075Y-62647007D01*
X108986980Y-62654823D01*
X108584699Y-62252543D01*
X108584698Y-62252543D01*
X108524503Y-62342634D01*
X108445350Y-62533725D01*
X108445348Y-62533731D01*
X108422758Y-62647303D01*
X108391292Y-62694395D01*
X108335743Y-62705444D01*
X108288651Y-62673978D01*
X108283282Y-62664499D01*
X108275151Y-62647303D01*
X107642874Y-61310129D01*
X107584128Y-61185890D01*
X107581354Y-61129320D01*
X107598698Y-61101933D01*
X107730977Y-60969655D01*
X107845941Y-60797598D01*
X107925130Y-60606420D01*
X107965500Y-60403465D01*
X107965500Y-60196535D01*
X108404500Y-60196535D01*
X108404500Y-60403464D01*
X108444868Y-60606413D01*
X108444870Y-60606420D01*
X108524059Y-60797598D01*
X108639023Y-60969655D01*
X108785345Y-61115977D01*
X108957402Y-61230941D01*
X109148580Y-61310130D01*
X109351535Y-61350500D01*
X109351536Y-61350500D01*
X109558464Y-61350500D01*
X109558465Y-61350500D01*
X109761420Y-61310130D01*
X109952598Y-61230941D01*
X110124655Y-61115977D01*
X110270977Y-60969655D01*
X110385941Y-60797598D01*
X110465130Y-60606420D01*
X110505500Y-60403465D01*
X110505500Y-60196535D01*
X110944500Y-60196535D01*
X110944500Y-60403464D01*
X110984868Y-60606413D01*
X110984870Y-60606420D01*
X111064059Y-60797598D01*
X111179023Y-60969655D01*
X111325345Y-61115977D01*
X111497402Y-61230941D01*
X111688580Y-61310130D01*
X111891535Y-61350500D01*
X111891536Y-61350500D01*
X112098464Y-61350500D01*
X112098465Y-61350500D01*
X112301420Y-61310130D01*
X112492598Y-61230941D01*
X112664655Y-61115977D01*
X112810977Y-60969655D01*
X112925941Y-60797598D01*
X113005130Y-60606420D01*
X113045500Y-60403465D01*
X113045500Y-60196535D01*
X113484500Y-60196535D01*
X113484500Y-60403464D01*
X113524868Y-60606413D01*
X113524870Y-60606420D01*
X113604059Y-60797598D01*
X113719023Y-60969655D01*
X113865345Y-61115977D01*
X114037402Y-61230941D01*
X114228580Y-61310130D01*
X114431535Y-61350500D01*
X114431536Y-61350500D01*
X114638464Y-61350500D01*
X114638465Y-61350500D01*
X114841420Y-61310130D01*
X115032598Y-61230941D01*
X115204655Y-61115977D01*
X115350977Y-60969655D01*
X115465941Y-60797598D01*
X115545130Y-60606420D01*
X115585500Y-60403465D01*
X115585500Y-60196535D01*
X116024500Y-60196535D01*
X116024500Y-60403464D01*
X116064868Y-60606413D01*
X116064870Y-60606420D01*
X116144059Y-60797598D01*
X116259023Y-60969655D01*
X116405345Y-61115977D01*
X116577402Y-61230941D01*
X116768580Y-61310130D01*
X116971535Y-61350500D01*
X116971536Y-61350500D01*
X117178464Y-61350500D01*
X117178465Y-61350500D01*
X117381420Y-61310130D01*
X117572598Y-61230941D01*
X117744655Y-61115977D01*
X117890977Y-60969655D01*
X118005941Y-60797598D01*
X118085130Y-60606420D01*
X118125500Y-60403465D01*
X118125500Y-60196535D01*
X118085130Y-59993580D01*
X118005941Y-59802402D01*
X117948725Y-59716772D01*
X117933199Y-59693535D01*
X117908968Y-59657270D01*
X119789500Y-59657270D01*
X119789500Y-59762729D01*
X119816791Y-59864582D01*
X119816792Y-59864585D01*
X119816793Y-59864587D01*
X119869520Y-59955913D01*
X119944087Y-60030480D01*
X120035413Y-60083207D01*
X120137270Y-60110499D01*
X120137271Y-60110500D01*
X120137273Y-60110500D01*
X120242729Y-60110500D01*
X120242729Y-60110499D01*
X120344587Y-60083207D01*
X120435913Y-60030480D01*
X120510480Y-59955913D01*
X120563207Y-59864587D01*
X120590499Y-59762729D01*
X120590500Y-59762729D01*
X120590500Y-59657271D01*
X120590499Y-59657270D01*
X120563208Y-59555417D01*
X120563207Y-59555413D01*
X120510480Y-59464087D01*
X120435913Y-59389520D01*
X120344591Y-59336795D01*
X120344582Y-59336791D01*
X120242729Y-59309500D01*
X120242727Y-59309500D01*
X120137273Y-59309500D01*
X120137271Y-59309500D01*
X120035417Y-59336791D01*
X120035408Y-59336795D01*
X119944086Y-59389520D01*
X119869520Y-59464086D01*
X119816795Y-59555408D01*
X119816791Y-59555417D01*
X119789500Y-59657270D01*
X117908968Y-59657270D01*
X117890977Y-59630345D01*
X117744654Y-59484022D01*
X117572598Y-59369059D01*
X117381420Y-59289870D01*
X117381413Y-59289868D01*
X117228516Y-59259455D01*
X117178465Y-59249500D01*
X116971535Y-59249500D01*
X116945096Y-59254759D01*
X116768586Y-59289868D01*
X116768579Y-59289870D01*
X116577401Y-59369059D01*
X116405345Y-59484022D01*
X116405344Y-59484024D01*
X116259024Y-59630344D01*
X116259022Y-59630345D01*
X116144059Y-59802401D01*
X116064870Y-59993579D01*
X116064868Y-59993586D01*
X116024500Y-60196535D01*
X115585500Y-60196535D01*
X115545130Y-59993580D01*
X115465941Y-59802402D01*
X115350977Y-59630345D01*
X115204655Y-59484023D01*
X115174818Y-59464087D01*
X115032598Y-59369059D01*
X114841420Y-59289870D01*
X114841413Y-59289868D01*
X114688516Y-59259455D01*
X114638465Y-59249500D01*
X114431535Y-59249500D01*
X114405096Y-59254759D01*
X114228586Y-59289868D01*
X114228579Y-59289870D01*
X114037401Y-59369059D01*
X113865345Y-59484022D01*
X113865344Y-59484024D01*
X113719024Y-59630344D01*
X113719022Y-59630345D01*
X113604059Y-59802401D01*
X113524870Y-59993579D01*
X113524868Y-59993586D01*
X113484500Y-60196535D01*
X113045500Y-60196535D01*
X113005130Y-59993580D01*
X112925941Y-59802402D01*
X112810977Y-59630345D01*
X112664655Y-59484023D01*
X112634818Y-59464087D01*
X112492598Y-59369059D01*
X112301420Y-59289870D01*
X112301413Y-59289868D01*
X112148516Y-59259455D01*
X112098465Y-59249500D01*
X111891535Y-59249500D01*
X111865096Y-59254759D01*
X111688586Y-59289868D01*
X111688579Y-59289870D01*
X111497401Y-59369059D01*
X111325345Y-59484022D01*
X111325344Y-59484024D01*
X111179024Y-59630344D01*
X111179022Y-59630345D01*
X111064059Y-59802401D01*
X110984870Y-59993579D01*
X110984868Y-59993586D01*
X110944500Y-60196535D01*
X110505500Y-60196535D01*
X110465130Y-59993580D01*
X110385941Y-59802402D01*
X110270977Y-59630345D01*
X110124655Y-59484023D01*
X110094818Y-59464087D01*
X109952598Y-59369059D01*
X109761420Y-59289870D01*
X109761413Y-59289868D01*
X109608516Y-59259455D01*
X109558465Y-59249500D01*
X109351535Y-59249500D01*
X109325096Y-59254759D01*
X109148586Y-59289868D01*
X109148579Y-59289870D01*
X108957401Y-59369059D01*
X108785345Y-59484022D01*
X108785344Y-59484024D01*
X108639024Y-59630344D01*
X108639022Y-59630345D01*
X108524059Y-59802401D01*
X108444870Y-59993579D01*
X108444868Y-59993586D01*
X108404500Y-60196535D01*
X107965500Y-60196535D01*
X107925130Y-59993580D01*
X107845941Y-59802402D01*
X107730977Y-59630345D01*
X107584655Y-59484023D01*
X107554818Y-59464087D01*
X107412598Y-59369059D01*
X107221420Y-59289870D01*
X107221413Y-59289868D01*
X107068516Y-59259455D01*
X107018465Y-59249500D01*
X106811535Y-59249500D01*
X106737453Y-59264235D01*
X106681904Y-59253185D01*
X106656120Y-59223291D01*
X104794640Y-55286537D01*
X104791867Y-55229969D01*
X104803518Y-55208976D01*
X104996061Y-54965764D01*
X107706050Y-54965764D01*
X107706050Y-55184235D01*
X107740225Y-55400009D01*
X107740228Y-55400022D01*
X107807734Y-55607784D01*
X107807735Y-55607787D01*
X107807736Y-55607788D01*
X107892080Y-55773322D01*
X107906920Y-55802445D01*
X107906920Y-55802446D01*
X107936212Y-55842763D01*
X108035331Y-55979189D01*
X108189811Y-56133669D01*
X108366556Y-56262081D01*
X108561212Y-56361264D01*
X108561215Y-56361265D01*
X108561214Y-56361265D01*
X108768977Y-56428771D01*
X108768983Y-56428772D01*
X108768988Y-56428774D01*
X108876877Y-56445862D01*
X108984764Y-56462950D01*
X108984766Y-56462950D01*
X109203236Y-56462950D01*
X109294979Y-56448419D01*
X109419012Y-56428774D01*
X109419019Y-56428771D01*
X109419022Y-56428771D01*
X109591508Y-56372727D01*
X109626788Y-56361264D01*
X109821444Y-56262081D01*
X109998189Y-56133669D01*
X110152669Y-55979189D01*
X110173165Y-55950979D01*
X110403500Y-55950979D01*
X110403500Y-56063020D01*
X110432495Y-56171232D01*
X110432499Y-56171241D01*
X110458522Y-56216314D01*
X110488515Y-56268263D01*
X110567737Y-56347485D01*
X110664763Y-56403503D01*
X110772979Y-56432499D01*
X110772980Y-56432500D01*
X110772982Y-56432500D01*
X110885020Y-56432500D01*
X110885020Y-56432499D01*
X110954282Y-56413941D01*
X111010435Y-56421333D01*
X111037520Y-56448418D01*
X111075936Y-56514956D01*
X111150503Y-56589523D01*
X111241829Y-56642250D01*
X111343686Y-56669542D01*
X111343687Y-56669543D01*
X111343689Y-56669543D01*
X111449145Y-56669543D01*
X111449145Y-56669542D01*
X111551003Y-56642250D01*
X111642329Y-56589523D01*
X111716896Y-56514956D01*
X111769623Y-56423630D01*
X111796915Y-56321772D01*
X111796916Y-56321772D01*
X111796916Y-56216314D01*
X111796915Y-56216313D01*
X111774771Y-56133671D01*
X111769623Y-56114456D01*
X111716896Y-56023130D01*
X111642329Y-55948563D01*
X111573605Y-55908885D01*
X111539128Y-55863953D01*
X111546520Y-55807800D01*
X111591453Y-55773322D01*
X111610606Y-55770800D01*
X111702529Y-55770800D01*
X111702530Y-55770800D01*
X111836957Y-55744061D01*
X111963585Y-55691610D01*
X112077547Y-55615463D01*
X112174463Y-55518547D01*
X112250610Y-55404585D01*
X112303061Y-55277957D01*
X112329800Y-55143530D01*
X112329800Y-55006470D01*
X112325114Y-54982913D01*
X112323997Y-54977295D01*
X112321703Y-54965764D01*
X112786050Y-54965764D01*
X112786050Y-55184235D01*
X112820225Y-55400009D01*
X112820228Y-55400022D01*
X112887734Y-55607784D01*
X112887735Y-55607787D01*
X112887736Y-55607788D01*
X112972080Y-55773322D01*
X112986920Y-55802445D01*
X112986920Y-55802446D01*
X113016212Y-55842763D01*
X113115331Y-55979189D01*
X113269811Y-56133669D01*
X113446556Y-56262081D01*
X113641212Y-56361264D01*
X113641215Y-56361265D01*
X113641214Y-56361265D01*
X113848977Y-56428771D01*
X113848983Y-56428772D01*
X113848988Y-56428774D01*
X113956877Y-56445862D01*
X114064764Y-56462950D01*
X114064766Y-56462950D01*
X114283236Y-56462950D01*
X114374979Y-56448419D01*
X114499012Y-56428774D01*
X114499019Y-56428771D01*
X114499022Y-56428771D01*
X114671508Y-56372727D01*
X114706788Y-56361264D01*
X114901444Y-56262081D01*
X115078189Y-56133669D01*
X115232669Y-55979189D01*
X115361081Y-55802444D01*
X115460264Y-55607788D01*
X115527774Y-55400012D01*
X115561950Y-55184234D01*
X115561950Y-54965766D01*
X115561005Y-54959801D01*
X115534068Y-54789727D01*
X115527774Y-54749988D01*
X115527772Y-54749983D01*
X115527771Y-54749977D01*
X115460265Y-54542215D01*
X115460264Y-54542214D01*
X115460264Y-54542212D01*
X115361081Y-54347556D01*
X115357272Y-54342314D01*
X115289113Y-54248500D01*
X115232669Y-54170811D01*
X115078189Y-54016331D01*
X114919073Y-53900727D01*
X114901446Y-53887920D01*
X114706784Y-53788734D01*
X114706785Y-53788734D01*
X114499022Y-53721228D01*
X114499009Y-53721225D01*
X114283236Y-53687050D01*
X114283234Y-53687050D01*
X114064766Y-53687050D01*
X114064764Y-53687050D01*
X113848990Y-53721225D01*
X113848977Y-53721228D01*
X113641215Y-53788734D01*
X113446554Y-53887920D01*
X113446553Y-53887920D01*
X113334808Y-53969108D01*
X113269811Y-54016331D01*
X113115331Y-54170811D01*
X113115328Y-54170814D01*
X113115328Y-54170815D01*
X112986920Y-54347553D01*
X112986920Y-54347554D01*
X112887734Y-54542215D01*
X112820228Y-54749977D01*
X112820225Y-54749990D01*
X112786050Y-54965764D01*
X112321703Y-54965764D01*
X112303062Y-54872048D01*
X112303061Y-54872047D01*
X112303061Y-54872043D01*
X112288084Y-54835886D01*
X112250612Y-54745419D01*
X112250611Y-54745417D01*
X112250610Y-54745415D01*
X112174463Y-54631453D01*
X112077547Y-54534537D01*
X111963585Y-54458390D01*
X111963581Y-54458388D01*
X111963579Y-54458387D01*
X111963580Y-54458387D01*
X111836961Y-54405940D01*
X111836950Y-54405937D01*
X111735680Y-54385793D01*
X111702530Y-54379200D01*
X111565470Y-54379200D01*
X111538877Y-54384489D01*
X111431049Y-54405937D01*
X111431038Y-54405940D01*
X111304419Y-54458387D01*
X111190453Y-54534536D01*
X111190452Y-54534538D01*
X111093538Y-54631452D01*
X111093536Y-54631453D01*
X111017387Y-54745419D01*
X110964940Y-54872038D01*
X110964937Y-54872049D01*
X110938200Y-55006470D01*
X110938200Y-55143529D01*
X110964937Y-55277950D01*
X110964940Y-55277961D01*
X111017387Y-55404580D01*
X111081342Y-55500296D01*
X111092391Y-55555845D01*
X111060925Y-55602937D01*
X111005376Y-55613986D01*
X110997927Y-55611727D01*
X110997921Y-55611752D01*
X110885020Y-55581500D01*
X110885018Y-55581500D01*
X110772982Y-55581500D01*
X110772980Y-55581500D01*
X110664767Y-55610495D01*
X110664758Y-55610499D01*
X110567736Y-55666515D01*
X110488515Y-55745736D01*
X110432499Y-55842758D01*
X110432495Y-55842767D01*
X110403500Y-55950979D01*
X110173165Y-55950979D01*
X110281081Y-55802444D01*
X110380264Y-55607788D01*
X110447774Y-55400012D01*
X110481950Y-55184234D01*
X110481950Y-54965766D01*
X110481005Y-54959801D01*
X110454068Y-54789727D01*
X110447774Y-54749988D01*
X110447772Y-54749983D01*
X110447771Y-54749977D01*
X110380265Y-54542215D01*
X110380264Y-54542214D01*
X110380264Y-54542212D01*
X110281081Y-54347556D01*
X110277272Y-54342314D01*
X110209113Y-54248500D01*
X110152669Y-54170811D01*
X109998189Y-54016331D01*
X109839073Y-53900727D01*
X109821446Y-53887920D01*
X109626784Y-53788734D01*
X109626785Y-53788734D01*
X109419022Y-53721228D01*
X109419009Y-53721225D01*
X109203236Y-53687050D01*
X109203234Y-53687050D01*
X108984766Y-53687050D01*
X108984764Y-53687050D01*
X108768990Y-53721225D01*
X108768977Y-53721228D01*
X108561215Y-53788734D01*
X108366554Y-53887920D01*
X108366553Y-53887920D01*
X108254808Y-53969108D01*
X108189811Y-54016331D01*
X108035331Y-54170811D01*
X108035328Y-54170814D01*
X108035328Y-54170815D01*
X107906920Y-54347553D01*
X107906920Y-54347554D01*
X107807734Y-54542215D01*
X107740228Y-54749977D01*
X107740225Y-54749990D01*
X107706050Y-54965764D01*
X104996061Y-54965764D01*
X107165938Y-52224867D01*
X107215409Y-52197295D01*
X107223535Y-52196801D01*
X107676060Y-52194273D01*
X107728506Y-52215655D01*
X107746851Y-52245405D01*
X107807734Y-52432784D01*
X107807735Y-52432787D01*
X107807736Y-52432788D01*
X107889936Y-52594114D01*
X107906920Y-52627445D01*
X107906920Y-52627446D01*
X107950387Y-52687273D01*
X108035331Y-52804189D01*
X108189811Y-52958669D01*
X108301094Y-53039520D01*
X108364645Y-53085693D01*
X108366556Y-53087081D01*
X108561212Y-53186264D01*
X108561215Y-53186265D01*
X108561214Y-53186265D01*
X108768977Y-53253771D01*
X108768983Y-53253772D01*
X108768988Y-53253774D01*
X108844469Y-53265729D01*
X108984764Y-53287950D01*
X108984766Y-53287950D01*
X109203236Y-53287950D01*
X109289545Y-53274279D01*
X109419012Y-53253774D01*
X109419019Y-53253771D01*
X109419022Y-53253771D01*
X109520087Y-53220933D01*
X109626788Y-53186264D01*
X109821444Y-53087081D01*
X109998189Y-52958669D01*
X110152669Y-52804189D01*
X110281081Y-52627444D01*
X110380264Y-52432788D01*
X110446303Y-52229537D01*
X110483085Y-52186471D01*
X110516266Y-52178406D01*
X112747297Y-52165942D01*
X112799740Y-52187323D01*
X112819663Y-52222667D01*
X112820227Y-52225018D01*
X112887734Y-52432784D01*
X112887735Y-52432787D01*
X112887736Y-52432788D01*
X112969936Y-52594114D01*
X112986920Y-52627445D01*
X112986920Y-52627446D01*
X113036004Y-52695004D01*
X113049226Y-52750076D01*
X113019633Y-52798367D01*
X112976137Y-52812500D01*
X112935271Y-52812500D01*
X112833417Y-52839791D01*
X112833408Y-52839795D01*
X112742086Y-52892520D01*
X112667520Y-52967086D01*
X112614795Y-53058408D01*
X112614791Y-53058417D01*
X112587500Y-53160270D01*
X112587500Y-53265729D01*
X112614791Y-53367582D01*
X112614795Y-53367591D01*
X112640856Y-53412729D01*
X112667520Y-53458913D01*
X112742087Y-53533480D01*
X112833413Y-53586207D01*
X112935270Y-53613499D01*
X112935271Y-53613500D01*
X112935273Y-53613500D01*
X113040729Y-53613500D01*
X113040729Y-53613499D01*
X113142587Y-53586207D01*
X113233913Y-53533480D01*
X113308480Y-53458913D01*
X113361207Y-53367587D01*
X113377368Y-53307270D01*
X116149500Y-53307270D01*
X116149500Y-53412729D01*
X116176791Y-53514582D01*
X116176792Y-53514585D01*
X116176793Y-53514587D01*
X116229520Y-53605913D01*
X116304087Y-53680480D01*
X116395413Y-53733207D01*
X116497270Y-53760499D01*
X116497271Y-53760500D01*
X116497273Y-53760500D01*
X116602729Y-53760500D01*
X116602729Y-53760499D01*
X116704587Y-53733207D01*
X116795913Y-53680480D01*
X116870480Y-53605913D01*
X116923207Y-53514587D01*
X116950499Y-53412729D01*
X116950500Y-53412729D01*
X116950500Y-53307271D01*
X116950499Y-53307270D01*
X116940646Y-53270499D01*
X116923207Y-53205413D01*
X116870480Y-53114087D01*
X116795913Y-53039520D01*
X116729160Y-53000980D01*
X116704591Y-52986795D01*
X116704582Y-52986791D01*
X116602729Y-52959500D01*
X116602727Y-52959500D01*
X116497273Y-52959500D01*
X116497271Y-52959500D01*
X116395417Y-52986791D01*
X116395408Y-52986795D01*
X116304086Y-53039520D01*
X116229520Y-53114086D01*
X116176795Y-53205408D01*
X116176791Y-53205417D01*
X116149500Y-53307270D01*
X113377368Y-53307270D01*
X113388499Y-53265729D01*
X113388500Y-53265729D01*
X113388500Y-53178256D01*
X113410174Y-53125930D01*
X113462500Y-53104256D01*
X113496091Y-53112321D01*
X113641212Y-53186264D01*
X113641215Y-53186265D01*
X113641214Y-53186265D01*
X113848977Y-53253771D01*
X113848983Y-53253772D01*
X113848988Y-53253774D01*
X113924469Y-53265729D01*
X114064764Y-53287950D01*
X114064766Y-53287950D01*
X114283236Y-53287950D01*
X114369545Y-53274279D01*
X114499012Y-53253774D01*
X114499019Y-53253771D01*
X114499022Y-53253771D01*
X114565889Y-53232045D01*
X114693815Y-53190479D01*
X114706788Y-53186264D01*
X114901444Y-53087081D01*
X115078189Y-52958669D01*
X115219588Y-52817270D01*
X125329500Y-52817270D01*
X125329500Y-52922729D01*
X125356791Y-53024582D01*
X125356795Y-53024591D01*
X125392873Y-53087079D01*
X125409520Y-53115913D01*
X125484087Y-53190480D01*
X125575413Y-53243207D01*
X125677270Y-53270499D01*
X125677271Y-53270500D01*
X125677273Y-53270500D01*
X125782729Y-53270500D01*
X125782729Y-53270499D01*
X125884587Y-53243207D01*
X125975913Y-53190480D01*
X126050480Y-53115913D01*
X126103207Y-53024587D01*
X126130499Y-52922729D01*
X126130500Y-52922729D01*
X126130500Y-52817271D01*
X126130499Y-52817270D01*
X126126995Y-52804194D01*
X126103207Y-52715413D01*
X126050480Y-52624087D01*
X125975913Y-52549520D01*
X125933916Y-52525273D01*
X125884591Y-52496795D01*
X125884582Y-52496791D01*
X125782729Y-52469500D01*
X125782727Y-52469500D01*
X125677273Y-52469500D01*
X125677271Y-52469500D01*
X125575417Y-52496791D01*
X125575408Y-52496795D01*
X125484086Y-52549520D01*
X125409520Y-52624086D01*
X125356795Y-52715408D01*
X125356791Y-52715417D01*
X125329500Y-52817270D01*
X115219588Y-52817270D01*
X115232669Y-52804189D01*
X115361081Y-52627444D01*
X115460264Y-52432788D01*
X115521148Y-52245405D01*
X115527772Y-52225019D01*
X115527772Y-52225017D01*
X115527774Y-52225012D01*
X115529769Y-52212415D01*
X115559357Y-52164126D01*
X115602441Y-52149991D01*
X129846320Y-52070417D01*
X129898766Y-52091799D01*
G37*
%TD.AperFunction*%
%TD*%
%TA.AperFunction,Conductor*%
%TO.N,/connectors/HRS_3V3*%
G36*
X64141235Y-64001585D02*
G01*
X64231613Y-64005062D01*
X64297843Y-64027307D01*
X64301156Y-64029703D01*
X64420164Y-64118793D01*
X64420171Y-64118797D01*
X64465118Y-64135561D01*
X64555017Y-64169091D01*
X64614627Y-64175500D01*
X64625185Y-64175499D01*
X64692223Y-64195179D01*
X64712872Y-64211818D01*
X65383091Y-64882037D01*
X65319507Y-64899075D01*
X65205493Y-64964901D01*
X65112401Y-65057993D01*
X65046575Y-65172007D01*
X65029537Y-65235591D01*
X64397228Y-64603282D01*
X64397227Y-64603282D01*
X64357880Y-64657439D01*
X64261404Y-64846782D01*
X64195742Y-65048869D01*
X64195742Y-65048872D01*
X64162500Y-65258753D01*
X64162500Y-65471246D01*
X64195742Y-65681127D01*
X64195742Y-65681130D01*
X64261404Y-65883217D01*
X64357875Y-66072550D01*
X64397228Y-66126716D01*
X65029537Y-65494408D01*
X65046575Y-65557993D01*
X65112401Y-65672007D01*
X65205493Y-65765099D01*
X65319507Y-65830925D01*
X65383090Y-65847962D01*
X64750782Y-66480269D01*
X64750782Y-66480270D01*
X64804949Y-66519624D01*
X64994282Y-66616095D01*
X65196370Y-66681757D01*
X65406254Y-66715000D01*
X65618746Y-66715000D01*
X65828627Y-66681757D01*
X65828630Y-66681757D01*
X66030717Y-66616095D01*
X66220054Y-66519622D01*
X66274216Y-66480270D01*
X66274217Y-66480270D01*
X65641908Y-65847962D01*
X65705493Y-65830925D01*
X65819507Y-65765099D01*
X65912599Y-65672007D01*
X65978425Y-65557993D01*
X65995462Y-65494408D01*
X66663681Y-66162627D01*
X66697166Y-66223950D01*
X66700000Y-66250308D01*
X66700000Y-67021357D01*
X66680315Y-67088396D01*
X66628861Y-67133525D01*
X58000000Y-71199999D01*
X57992458Y-71205008D01*
X57991728Y-71203910D01*
X57950834Y-71226086D01*
X57909315Y-71237211D01*
X57909312Y-71237212D01*
X57778937Y-71312486D01*
X57778934Y-71312488D01*
X56932085Y-72159336D01*
X56927282Y-72163890D01*
X51100000Y-77399999D01*
X50861070Y-78610253D01*
X50828774Y-78672210D01*
X50818094Y-78682080D01*
X50813465Y-78685879D01*
X50715884Y-78783459D01*
X50639228Y-78898182D01*
X50639221Y-78898195D01*
X50586421Y-79025667D01*
X50586418Y-79025677D01*
X50559500Y-79161004D01*
X50559500Y-79161007D01*
X50559500Y-79298993D01*
X50559500Y-79298995D01*
X50559499Y-79298995D01*
X50586418Y-79434322D01*
X50586421Y-79434332D01*
X50639222Y-79561806D01*
X50642094Y-79567178D01*
X50640055Y-79568267D01*
X50657863Y-79625132D01*
X50655535Y-79651366D01*
X50604026Y-79912273D01*
X50599463Y-79929076D01*
X50595610Y-79940127D01*
X50567213Y-79989312D01*
X50531037Y-80124328D01*
X50529856Y-80128731D01*
X50529854Y-80128740D01*
X50528250Y-80134728D01*
X50528250Y-80283985D01*
X50525902Y-80308001D01*
X50403397Y-80928532D01*
X50406679Y-80971425D01*
X50404658Y-81005073D01*
X50404032Y-81008222D01*
X50399500Y-81031007D01*
X50399500Y-81168993D01*
X50399500Y-81168995D01*
X50399499Y-81168995D01*
X50426419Y-81304325D01*
X50428189Y-81310160D01*
X50427628Y-81310329D01*
X50434961Y-81341025D01*
X50557744Y-82945523D01*
X50555722Y-82979175D01*
X50529500Y-83111002D01*
X50529500Y-83111007D01*
X50529500Y-83248993D01*
X50529500Y-83248995D01*
X50529499Y-83248995D01*
X50556419Y-83384326D01*
X50556420Y-83384329D01*
X50584676Y-83452548D01*
X50592143Y-83522018D01*
X50584677Y-83547448D01*
X50556419Y-83615674D01*
X50529500Y-83751004D01*
X50529500Y-83751007D01*
X50529500Y-83888993D01*
X50529500Y-83888995D01*
X50529499Y-83888995D01*
X50556418Y-84024322D01*
X50556421Y-84024332D01*
X50609222Y-84151806D01*
X50637278Y-84193795D01*
X50657814Y-84253224D01*
X50677379Y-84508897D01*
X50668301Y-84565810D01*
X50626421Y-84666917D01*
X50626418Y-84666927D01*
X50599500Y-84802254D01*
X50599500Y-84802257D01*
X50599500Y-84940243D01*
X50599500Y-84940245D01*
X50599499Y-84940245D01*
X50626418Y-85075572D01*
X50626421Y-85075582D01*
X50673915Y-85190244D01*
X50681384Y-85259713D01*
X50673916Y-85285148D01*
X50636418Y-85375676D01*
X50636418Y-85375677D01*
X50609500Y-85511004D01*
X50609500Y-85511007D01*
X50609500Y-85648993D01*
X50609500Y-85648995D01*
X50609499Y-85648995D01*
X50636418Y-85784322D01*
X50636421Y-85784332D01*
X50689221Y-85911804D01*
X50689228Y-85911817D01*
X50740714Y-85988870D01*
X50761592Y-86055547D01*
X50752173Y-86105213D01*
X50706421Y-86215667D01*
X50706418Y-86215677D01*
X50679500Y-86351004D01*
X50679500Y-86351007D01*
X50679500Y-86488993D01*
X50679500Y-86488995D01*
X50679499Y-86488995D01*
X50706418Y-86624322D01*
X50706421Y-86624332D01*
X50759221Y-86751804D01*
X50760672Y-86754518D01*
X50761001Y-86756101D01*
X50761556Y-86757440D01*
X50761302Y-86757545D01*
X50774912Y-86822922D01*
X50765873Y-86860421D01*
X50726421Y-86955667D01*
X50726418Y-86955677D01*
X50699500Y-87091004D01*
X50699500Y-87091007D01*
X50699500Y-87228993D01*
X50699500Y-87228995D01*
X50699499Y-87228995D01*
X50726418Y-87364322D01*
X50726421Y-87364332D01*
X50779221Y-87491804D01*
X50779228Y-87491817D01*
X50807118Y-87533557D01*
X50827996Y-87600235D01*
X50810990Y-87662222D01*
X50812098Y-87662814D01*
X50809221Y-87668195D01*
X50756421Y-87795667D01*
X50756418Y-87795677D01*
X50729500Y-87931004D01*
X50729500Y-87931007D01*
X50729500Y-88068993D01*
X50729500Y-88068995D01*
X50729499Y-88068995D01*
X50756418Y-88204322D01*
X50756421Y-88204332D01*
X50809221Y-88331804D01*
X50809228Y-88331817D01*
X50885885Y-88446541D01*
X50885888Y-88446545D01*
X50953938Y-88514595D01*
X50987423Y-88575918D01*
X50989896Y-88592815D01*
X51199639Y-91333682D01*
X51200000Y-91343143D01*
X51200000Y-94876000D01*
X51180315Y-94943039D01*
X51127511Y-94988794D01*
X51076000Y-95000000D01*
X48724000Y-95000000D01*
X48656961Y-94980315D01*
X48611206Y-94927511D01*
X48600000Y-94876000D01*
X48600000Y-74765076D01*
X48619685Y-74698037D01*
X48653552Y-74663031D01*
X64066035Y-64023446D01*
X64132387Y-64001562D01*
X64141235Y-64001585D01*
G37*
%TD.AperFunction*%
%TA.AperFunction,Conductor*%
G36*
X66576235Y-64142595D02*
G01*
X66602358Y-64140727D01*
X66610517Y-64145182D01*
X66619788Y-64145882D01*
X66640690Y-64161657D01*
X66663681Y-64174211D01*
X66668137Y-64182372D01*
X66675557Y-64187972D01*
X66684613Y-64212547D01*
X66697166Y-64235535D01*
X66698846Y-64251166D01*
X66699718Y-64253531D01*
X66699302Y-64255405D01*
X66700000Y-64261893D01*
X66700000Y-64479690D01*
X66680315Y-64546729D01*
X66663681Y-64567371D01*
X65995462Y-65235590D01*
X65978425Y-65172007D01*
X65912599Y-65057993D01*
X65819507Y-64964901D01*
X65705493Y-64899075D01*
X65641909Y-64882037D01*
X66312127Y-64211818D01*
X66373450Y-64178333D01*
X66373925Y-64178230D01*
X66386720Y-64175499D01*
X66410372Y-64175499D01*
X66469983Y-64169091D01*
X66541209Y-64142525D01*
X66550117Y-64140624D01*
X66576235Y-64142595D01*
G37*
%TD.AperFunction*%
%TD*%
%TA.AperFunction,Conductor*%
%TO.N,VDDA*%
G36*
X96391945Y-120354274D02*
G01*
X97217829Y-121341157D01*
X99576808Y-124160000D01*
X108874096Y-124160000D01*
X108941135Y-124179685D01*
X108986890Y-124232489D01*
X108998076Y-124281786D01*
X109061234Y-127818728D01*
X109042750Y-127886108D01*
X108990771Y-127932799D01*
X108940372Y-127944903D01*
X101980000Y-128120000D01*
X101970835Y-128669852D01*
X101950036Y-128736554D01*
X101934533Y-128755466D01*
X101746319Y-128943681D01*
X101684996Y-128977166D01*
X101658638Y-128980000D01*
X99171362Y-128980000D01*
X99104323Y-128960315D01*
X99083681Y-128943681D01*
X97197273Y-127057273D01*
X101419500Y-127057273D01*
X101419500Y-127162727D01*
X101446793Y-127264587D01*
X101499520Y-127355913D01*
X101574087Y-127430480D01*
X101665413Y-127483207D01*
X101767273Y-127510500D01*
X101767275Y-127510500D01*
X101872725Y-127510500D01*
X101872727Y-127510500D01*
X101974587Y-127483207D01*
X102065913Y-127430480D01*
X102140480Y-127355913D01*
X102193207Y-127264587D01*
X102220500Y-127162727D01*
X102220500Y-127057273D01*
X102193207Y-126955413D01*
X102140480Y-126864087D01*
X102065913Y-126789520D01*
X101974587Y-126736793D01*
X101872727Y-126709500D01*
X101767273Y-126709500D01*
X101665413Y-126736793D01*
X101665410Y-126736794D01*
X101574085Y-126789521D01*
X101499521Y-126864085D01*
X101446794Y-126955410D01*
X101446793Y-126955413D01*
X101419500Y-127057273D01*
X97197273Y-127057273D01*
X96404123Y-126264123D01*
X96370638Y-126202800D01*
X96367919Y-126181794D01*
X96367724Y-126177273D01*
X101989500Y-126177273D01*
X101989500Y-126282727D01*
X102016793Y-126384587D01*
X102069520Y-126475913D01*
X102144087Y-126550480D01*
X102235413Y-126603207D01*
X102337273Y-126630500D01*
X102337275Y-126630500D01*
X102442725Y-126630500D01*
X102442727Y-126630500D01*
X102544587Y-126603207D01*
X102635913Y-126550480D01*
X102710480Y-126475913D01*
X102763207Y-126384587D01*
X102790500Y-126282727D01*
X102790500Y-126247273D01*
X104799500Y-126247273D01*
X104799500Y-126352727D01*
X104826793Y-126454587D01*
X104879520Y-126545913D01*
X104954087Y-126620480D01*
X105045413Y-126673207D01*
X105147273Y-126700500D01*
X105147275Y-126700500D01*
X105252725Y-126700500D01*
X105252727Y-126700500D01*
X105354587Y-126673207D01*
X105445913Y-126620480D01*
X105520480Y-126545913D01*
X105573207Y-126454587D01*
X105600500Y-126352727D01*
X105600500Y-126247273D01*
X105573207Y-126145413D01*
X105520480Y-126054087D01*
X105445913Y-125979520D01*
X105354587Y-125926793D01*
X105252727Y-125899500D01*
X105147273Y-125899500D01*
X105045413Y-125926793D01*
X105045410Y-125926794D01*
X104954085Y-125979521D01*
X104879521Y-126054085D01*
X104826794Y-126145410D01*
X104826793Y-126145413D01*
X104799500Y-126247273D01*
X102790500Y-126247273D01*
X102790500Y-126177273D01*
X102763207Y-126075413D01*
X102710480Y-125984087D01*
X102635913Y-125909520D01*
X102544587Y-125856793D01*
X102442727Y-125829500D01*
X102337273Y-125829500D01*
X102235413Y-125856793D01*
X102235410Y-125856794D01*
X102144085Y-125909521D01*
X102069521Y-125984085D01*
X102016794Y-126075410D01*
X102016793Y-126075413D01*
X101989500Y-126177273D01*
X96367724Y-126177273D01*
X96194410Y-122160901D01*
X96140000Y-120900000D01*
X96378853Y-120342675D01*
X96391945Y-120354274D01*
G37*
%TD.AperFunction*%
%TD*%
%TA.AperFunction,Conductor*%
%TO.N,VDDA*%
G36*
X79169468Y-112329685D02*
G01*
X79215223Y-112382489D01*
X79226428Y-112433688D01*
X79246119Y-120300269D01*
X74661166Y-120300269D01*
X74596410Y-120280882D01*
X74550935Y-120227837D01*
X74540000Y-120176923D01*
X74540000Y-119714493D01*
X74540062Y-119714174D01*
X74540060Y-119689939D01*
X74941945Y-119288055D01*
X74932014Y-115926391D01*
X74930442Y-115394108D01*
X75759500Y-115394108D01*
X75759500Y-115525891D01*
X75793608Y-115653187D01*
X75826554Y-115710250D01*
X75859500Y-115767314D01*
X75952686Y-115860500D01*
X76066814Y-115926392D01*
X76194108Y-115960500D01*
X76194110Y-115960500D01*
X76325890Y-115960500D01*
X76325892Y-115960500D01*
X76453186Y-115926392D01*
X76567314Y-115860500D01*
X76660500Y-115767314D01*
X76726392Y-115653186D01*
X76760500Y-115525892D01*
X76760500Y-115394108D01*
X76726392Y-115266814D01*
X76660500Y-115152686D01*
X76567314Y-115059500D01*
X76510250Y-115026554D01*
X76453187Y-114993608D01*
X76359156Y-114968413D01*
X76325892Y-114959500D01*
X76194108Y-114959500D01*
X76066812Y-114993608D01*
X75952686Y-115059500D01*
X75952683Y-115059502D01*
X75859502Y-115152683D01*
X75859500Y-115152686D01*
X75793608Y-115266812D01*
X75759500Y-115394108D01*
X74930442Y-115394108D01*
X74930419Y-115386347D01*
X74921697Y-112434366D01*
X74941183Y-112367269D01*
X74993851Y-112321358D01*
X75045696Y-112310000D01*
X79102429Y-112310000D01*
X79169468Y-112329685D01*
G37*
%TD.AperFunction*%
%TD*%
%TA.AperFunction,Conductor*%
%TO.N,+3V3*%
G36*
X91347325Y-98117325D02*
G01*
X91357662Y-98130290D01*
X91417436Y-98225450D01*
X91418110Y-98226522D01*
X91433498Y-98241915D01*
X91433511Y-98241937D01*
X91459429Y-98267855D01*
X91459438Y-98267864D01*
X91498634Y-98307073D01*
X91498709Y-98307136D01*
X91574476Y-98382903D01*
X91574482Y-98382908D01*
X91585641Y-98394067D01*
X91671898Y-98448266D01*
X91689451Y-98463640D01*
X92048498Y-98895913D01*
X92065258Y-98950014D01*
X92038855Y-99000120D01*
X92033360Y-99004268D01*
X91617800Y-99288600D01*
X91623321Y-99424157D01*
X91613470Y-99464165D01*
X91600193Y-99487162D01*
X91600191Y-99487167D01*
X91572900Y-99589020D01*
X91572900Y-99694479D01*
X91600191Y-99796332D01*
X91600195Y-99796341D01*
X91632278Y-99851910D01*
X91642131Y-99885898D01*
X91669999Y-100569999D01*
X91670000Y-100570000D01*
X94248508Y-101576678D01*
X94280296Y-101600553D01*
X94282716Y-101603706D01*
X94282719Y-101603709D01*
X94282721Y-101603712D01*
X94357288Y-101678279D01*
X94448614Y-101731006D01*
X94550471Y-101758298D01*
X94550472Y-101758299D01*
X94550474Y-101758299D01*
X94655930Y-101758299D01*
X94655930Y-101758298D01*
X94757788Y-101731006D01*
X94767978Y-101725122D01*
X94777001Y-101719914D01*
X94814000Y-101710000D01*
X95055898Y-101710000D01*
X95092898Y-101719914D01*
X95142518Y-101748562D01*
X95244375Y-101775854D01*
X95244376Y-101775855D01*
X95244378Y-101775855D01*
X95349834Y-101775855D01*
X95349834Y-101775854D01*
X95451692Y-101748562D01*
X95501312Y-101719914D01*
X95538312Y-101710000D01*
X99580000Y-101710000D01*
X100742730Y-100547270D01*
X109199500Y-100547270D01*
X109199500Y-100652729D01*
X109226791Y-100754582D01*
X109226795Y-100754591D01*
X109249435Y-100793804D01*
X109279520Y-100845913D01*
X109354087Y-100920480D01*
X109445413Y-100973207D01*
X109454954Y-100975763D01*
X109499886Y-101010237D01*
X109509169Y-101056898D01*
X109508556Y-101061555D01*
X109508556Y-101167013D01*
X109535847Y-101268866D01*
X109535851Y-101268875D01*
X109588576Y-101360197D01*
X109663143Y-101434764D01*
X109754469Y-101487491D01*
X109856326Y-101514783D01*
X109856327Y-101514784D01*
X109856329Y-101514784D01*
X109961785Y-101514784D01*
X109961785Y-101514783D01*
X110063643Y-101487491D01*
X110154969Y-101434764D01*
X110229536Y-101360197D01*
X110282263Y-101268871D01*
X110309555Y-101167013D01*
X110309556Y-101167013D01*
X110309556Y-101061555D01*
X110309555Y-101061554D01*
X110308307Y-101056898D01*
X110282263Y-100959697D01*
X110229536Y-100868371D01*
X110154969Y-100793804D01*
X110087043Y-100754587D01*
X110063647Y-100741079D01*
X110063638Y-100741075D01*
X110054101Y-100738520D01*
X110009168Y-100704041D01*
X109999887Y-100657384D01*
X110000500Y-100652727D01*
X110000500Y-100547271D01*
X110000499Y-100547270D01*
X109973208Y-100445417D01*
X109973207Y-100445413D01*
X109920480Y-100354087D01*
X109845913Y-100279520D01*
X109779768Y-100241331D01*
X109754591Y-100226795D01*
X109754582Y-100226791D01*
X109652729Y-100199500D01*
X109652727Y-100199500D01*
X109547273Y-100199500D01*
X109547271Y-100199500D01*
X109445417Y-100226791D01*
X109445408Y-100226795D01*
X109354086Y-100279520D01*
X109279520Y-100354086D01*
X109226795Y-100445408D01*
X109226791Y-100445417D01*
X109199500Y-100547270D01*
X100742730Y-100547270D01*
X102148326Y-99141674D01*
X102200652Y-99120000D01*
X102801464Y-99120000D01*
X102853790Y-99141674D01*
X102875464Y-99194000D01*
X102870497Y-99218970D01*
X102870529Y-99218979D01*
X102870399Y-99219460D01*
X102869832Y-99222316D01*
X102869273Y-99223664D01*
X102841981Y-99325520D01*
X102841981Y-99430979D01*
X102869272Y-99532832D01*
X102869276Y-99532841D01*
X102879559Y-99550652D01*
X102922001Y-99624163D01*
X102996568Y-99698730D01*
X103087894Y-99751457D01*
X103189751Y-99778749D01*
X103189752Y-99778750D01*
X103189754Y-99778750D01*
X103295210Y-99778750D01*
X103295210Y-99778749D01*
X103366397Y-99759675D01*
X103422550Y-99767067D01*
X103449636Y-99794153D01*
X103464836Y-99820479D01*
X103479520Y-99845913D01*
X103554087Y-99920480D01*
X103645413Y-99973207D01*
X103747270Y-100000499D01*
X103747271Y-100000500D01*
X103747273Y-100000500D01*
X103852729Y-100000500D01*
X103852729Y-100000499D01*
X103954587Y-99973207D01*
X104045913Y-99920480D01*
X104120480Y-99845913D01*
X104173207Y-99754587D01*
X104200499Y-99652729D01*
X104200500Y-99652729D01*
X104200500Y-99547271D01*
X104200499Y-99547270D01*
X104196630Y-99532832D01*
X104173207Y-99445413D01*
X104120480Y-99354087D01*
X104045913Y-99279520D01*
X104008787Y-99258085D01*
X103974309Y-99213153D01*
X103981702Y-99157000D01*
X104026635Y-99122521D01*
X104045788Y-99120000D01*
X109272464Y-99120000D01*
X109300778Y-99125631D01*
X109316965Y-99132336D01*
X109316966Y-99132337D01*
X109339508Y-99141674D01*
X109369145Y-99153950D01*
X109369146Y-99153950D01*
X114443298Y-99153950D01*
X114495624Y-99175624D01*
X114504876Y-99184876D01*
X114526550Y-99237202D01*
X114524029Y-99256353D01*
X114509100Y-99312072D01*
X114509100Y-99417529D01*
X114536391Y-99519382D01*
X114536395Y-99519391D01*
X114576597Y-99589023D01*
X114589120Y-99610713D01*
X114663687Y-99685280D01*
X114755013Y-99738007D01*
X114856870Y-99765299D01*
X114856871Y-99765300D01*
X114856873Y-99765300D01*
X114962329Y-99765300D01*
X114962329Y-99765299D01*
X115064187Y-99738007D01*
X115155513Y-99685280D01*
X115230080Y-99610713D01*
X115232930Y-99605776D01*
X115277859Y-99571296D01*
X115334012Y-99578684D01*
X115368494Y-99623615D01*
X115368495Y-99623620D01*
X115376791Y-99654582D01*
X115376795Y-99654591D01*
X115408611Y-99709697D01*
X115429520Y-99745913D01*
X115504087Y-99820480D01*
X115595413Y-99873207D01*
X115697270Y-99900499D01*
X115697271Y-99900500D01*
X115697273Y-99900500D01*
X115802729Y-99900500D01*
X115802729Y-99900499D01*
X115904587Y-99873207D01*
X115995913Y-99820480D01*
X116028099Y-99788293D01*
X116080424Y-99766619D01*
X116132750Y-99788292D01*
X116145682Y-99809216D01*
X116147104Y-99808532D01*
X116198935Y-99916171D01*
X116270826Y-100006329D01*
X116360968Y-100078226D01*
X116360969Y-100078227D01*
X116360972Y-100078228D01*
X116360974Y-100078230D01*
X116464861Y-100128271D01*
X116577278Y-100153943D01*
X116577286Y-100153943D01*
X116580900Y-100153943D01*
X116580915Y-100153950D01*
X116634933Y-100153950D01*
X116634934Y-100153950D01*
X116682851Y-100153956D01*
X116682852Y-100153955D01*
X116689459Y-100153956D01*
X116689538Y-100153950D01*
X116812384Y-100153950D01*
X116812593Y-100153925D01*
X116812596Y-100153926D01*
X116812598Y-100153925D01*
X116812602Y-100153925D01*
X116925022Y-100128279D01*
X116925022Y-100128278D01*
X116925030Y-100128277D01*
X117028937Y-100078249D01*
X117119106Y-100006353D01*
X117191014Y-99916194D01*
X117226602Y-99842302D01*
X117241051Y-99812302D01*
X117241051Y-99812299D01*
X117241055Y-99812293D01*
X117266719Y-99699862D01*
X117266719Y-99642200D01*
X117266719Y-99594283D01*
X117266719Y-99463947D01*
X117288393Y-99411621D01*
X117340719Y-99389947D01*
X131530000Y-99389947D01*
X136712579Y-99389947D01*
X136740000Y-99362526D01*
X136721130Y-99866402D01*
X136721129Y-99866405D01*
X135992714Y-119317507D01*
X135969097Y-119368985D01*
X135917468Y-119388727D01*
X133212515Y-119341272D01*
X133160577Y-119318683D01*
X133139813Y-119267474D01*
X133100000Y-103819999D01*
X133099999Y-103819999D01*
X117091100Y-103922708D01*
X117090000Y-103850000D01*
X117080000Y-103840000D01*
X112830000Y-103840000D01*
X112939347Y-103949347D01*
X112939346Y-103949347D01*
X112939345Y-103949346D01*
X112939344Y-103949346D01*
X85384758Y-104126132D01*
X85347283Y-104116220D01*
X85269991Y-104071595D01*
X85269982Y-104071591D01*
X85168129Y-104044300D01*
X85168127Y-104044300D01*
X85062673Y-104044300D01*
X85062671Y-104044300D01*
X84960817Y-104071591D01*
X84960808Y-104071595D01*
X84877472Y-104119709D01*
X84840947Y-104129621D01*
X75460930Y-104189801D01*
X75408466Y-104168464D01*
X75408129Y-104168129D01*
X74089569Y-102849569D01*
X74070418Y-102816399D01*
X74058939Y-102773557D01*
X74006212Y-102682231D01*
X73931645Y-102607664D01*
X73924966Y-102603808D01*
X73840320Y-102554937D01*
X73840316Y-102554936D01*
X73797476Y-102543456D01*
X73764304Y-102524304D01*
X73628076Y-102388076D01*
X73606402Y-102335750D01*
X73628076Y-102283424D01*
X73680402Y-102261750D01*
X86504055Y-102261750D01*
X86533308Y-102249632D01*
X86603934Y-102220379D01*
X86642639Y-102181674D01*
X86694965Y-102160000D01*
X87049999Y-102160000D01*
X87050000Y-102160000D01*
X87147181Y-102047270D01*
X107809500Y-102047270D01*
X107809500Y-102152729D01*
X107836791Y-102254582D01*
X107836795Y-102254591D01*
X107853442Y-102283424D01*
X107889520Y-102345913D01*
X107964087Y-102420480D01*
X108055413Y-102473207D01*
X108157270Y-102500499D01*
X108157271Y-102500500D01*
X108157273Y-102500500D01*
X108262729Y-102500500D01*
X108262729Y-102500499D01*
X108364587Y-102473207D01*
X108455913Y-102420480D01*
X108530480Y-102345913D01*
X108583207Y-102254587D01*
X108610499Y-102152729D01*
X108610500Y-102152729D01*
X108610500Y-102047271D01*
X108610499Y-102047270D01*
X108583208Y-101945417D01*
X108583207Y-101945413D01*
X108530480Y-101854087D01*
X108455913Y-101779520D01*
X108419157Y-101758299D01*
X108364591Y-101726795D01*
X108364582Y-101726791D01*
X108262729Y-101699500D01*
X108262727Y-101699500D01*
X108157273Y-101699500D01*
X108157271Y-101699500D01*
X108055417Y-101726791D01*
X108055408Y-101726795D01*
X107964086Y-101779520D01*
X107889520Y-101854086D01*
X107836795Y-101945408D01*
X107836791Y-101945417D01*
X107809500Y-102047270D01*
X87147181Y-102047270D01*
X87548224Y-101582059D01*
X87551920Y-101578079D01*
X88318326Y-100811674D01*
X88370652Y-100790000D01*
X89209947Y-100790000D01*
X90610000Y-99389947D01*
X90610000Y-98780651D01*
X90631673Y-98728326D01*
X91242676Y-98117323D01*
X91294999Y-98095651D01*
X91347325Y-98117325D01*
G37*
%TD.AperFunction*%
%TD*%
%TA.AperFunction,Conductor*%
%TO.N,VDDA*%
G36*
X92910515Y-118729484D02*
G01*
X92511658Y-119128341D01*
X92500000Y-119124918D01*
X92500000Y-118720000D01*
X92904420Y-118720000D01*
X92910515Y-118729484D01*
G37*
%TD.AperFunction*%
%TA.AperFunction,Conductor*%
G36*
X92443039Y-116459685D02*
G01*
X92488794Y-116512489D01*
X92500000Y-116564000D01*
X92500000Y-117232272D01*
X92480315Y-117299311D01*
X92474380Y-117307753D01*
X92469521Y-117314085D01*
X92416794Y-117405410D01*
X92416793Y-117405413D01*
X92389500Y-117507273D01*
X92389500Y-117612727D01*
X92416793Y-117714587D01*
X92469520Y-117805913D01*
X92469522Y-117805915D01*
X92474377Y-117812242D01*
X92499570Y-117877412D01*
X92500000Y-117887727D01*
X92500000Y-118720000D01*
X91170000Y-118720000D01*
X91140000Y-118690000D01*
X91140000Y-116564000D01*
X91159685Y-116496961D01*
X91212489Y-116451206D01*
X91264000Y-116440000D01*
X92376000Y-116440000D01*
X92443039Y-116459685D01*
G37*
%TD.AperFunction*%
%TD*%
%TA.AperFunction,Conductor*%
%TO.N,+3V3*%
G36*
X69903424Y-85933424D02*
G01*
X70298326Y-86328326D01*
X70320000Y-86380652D01*
X70320000Y-93126000D01*
X70298326Y-93178326D01*
X70246000Y-93200000D01*
X69503852Y-93200000D01*
X69451526Y-93178326D01*
X68773926Y-92500726D01*
X68752252Y-92448400D01*
X68773926Y-92396074D01*
X68937826Y-92232174D01*
X68990152Y-92210500D01*
X69032729Y-92210500D01*
X69032729Y-92210499D01*
X69134587Y-92183207D01*
X69225913Y-92130480D01*
X69300480Y-92055913D01*
X69353207Y-91964587D01*
X69380499Y-91862729D01*
X69380500Y-91862729D01*
X69380500Y-91757271D01*
X69380499Y-91757270D01*
X69353208Y-91655417D01*
X69353207Y-91655413D01*
X69300480Y-91564087D01*
X69300479Y-91564086D01*
X69300478Y-91564084D01*
X69297527Y-91560238D01*
X69299088Y-91559039D01*
X69280000Y-91512955D01*
X69280000Y-90946304D01*
X69289914Y-90909304D01*
X69334207Y-90832587D01*
X69361499Y-90730729D01*
X69361500Y-90730729D01*
X69361500Y-90625271D01*
X69361499Y-90625270D01*
X69334208Y-90523417D01*
X69334207Y-90523413D01*
X69289914Y-90446695D01*
X69280000Y-90409695D01*
X69280000Y-88300978D01*
X69282521Y-88281826D01*
X69300500Y-88214726D01*
X69300500Y-88109274D01*
X69282521Y-88042173D01*
X69280000Y-88023021D01*
X69280000Y-86850000D01*
X68196301Y-86806648D01*
X68144883Y-86782900D01*
X68125318Y-86729749D01*
X68125454Y-86727338D01*
X68179791Y-85980380D01*
X68205204Y-85929766D01*
X68253596Y-85911750D01*
X69851098Y-85911750D01*
X69903424Y-85933424D01*
G37*
%TD.AperFunction*%
%TD*%
%TA.AperFunction,Conductor*%
%TO.N,+3V3*%
G36*
X117090000Y-103850000D02*
G01*
X117091100Y-103922709D01*
X117091100Y-103922710D01*
X117179381Y-109754597D01*
X117158501Y-109807245D01*
X117157715Y-109808042D01*
X117103197Y-109862560D01*
X117050471Y-109953884D01*
X117050467Y-109953893D01*
X117023176Y-110055746D01*
X117023176Y-110161205D01*
X117050467Y-110263058D01*
X117050471Y-110263067D01*
X117103196Y-110354389D01*
X117168559Y-110419752D01*
X117190225Y-110470958D01*
X117278219Y-116283835D01*
X117275707Y-116304103D01*
X117269500Y-116327273D01*
X117269500Y-116432729D01*
X117278756Y-116467277D01*
X117281269Y-116485307D01*
X117454744Y-127944880D01*
X117433864Y-127997528D01*
X117381872Y-128019992D01*
X117380752Y-128020000D01*
X112840000Y-128020000D01*
X112338985Y-128026036D01*
X111253390Y-128039115D01*
X111200807Y-128018072D01*
X111178514Y-127966619D01*
X111131448Y-125641561D01*
X111152059Y-125588809D01*
X111201473Y-125566171D01*
X113428009Y-125446893D01*
X113437454Y-118636231D01*
X113447366Y-118599344D01*
X113473207Y-118554587D01*
X113500500Y-118452727D01*
X113500500Y-118347273D01*
X113473207Y-118245413D01*
X113448021Y-118201790D01*
X113438108Y-118164693D01*
X113455413Y-105687270D01*
X114759500Y-105687270D01*
X114759500Y-105792729D01*
X114786791Y-105894582D01*
X114786792Y-105894585D01*
X114786793Y-105894587D01*
X114839520Y-105985913D01*
X114914087Y-106060480D01*
X115005413Y-106113207D01*
X115107270Y-106140499D01*
X115107271Y-106140500D01*
X115107273Y-106140500D01*
X115212729Y-106140500D01*
X115212729Y-106140499D01*
X115314587Y-106113207D01*
X115405913Y-106060480D01*
X115480480Y-105985913D01*
X115533207Y-105894587D01*
X115560499Y-105792729D01*
X115560500Y-105792729D01*
X115560500Y-105687271D01*
X115560499Y-105687270D01*
X115533208Y-105585417D01*
X115533207Y-105585413D01*
X115480480Y-105494087D01*
X115405913Y-105419520D01*
X115314591Y-105366795D01*
X115314582Y-105366791D01*
X115212729Y-105339500D01*
X115212727Y-105339500D01*
X115107273Y-105339500D01*
X115107271Y-105339500D01*
X115005417Y-105366791D01*
X115005408Y-105366795D01*
X114914086Y-105419520D01*
X114839520Y-105494086D01*
X114786795Y-105585408D01*
X114786791Y-105585417D01*
X114759500Y-105687270D01*
X113455413Y-105687270D01*
X113457105Y-104467105D01*
X112939347Y-103949347D01*
X112830000Y-103840000D01*
X117080000Y-103840000D01*
X117090000Y-103850000D01*
G37*
%TD.AperFunction*%
%TD*%
%TA.AperFunction,Conductor*%
%TO.N,VDDA*%
G36*
X67957820Y-102420044D02*
G01*
X67978400Y-102436361D01*
X71832521Y-106222686D01*
X73320003Y-107684003D01*
X76064626Y-109830955D01*
X76105301Y-109887764D01*
X76108000Y-109896528D01*
X76114606Y-109921182D01*
X76114607Y-109921185D01*
X76114608Y-109921186D01*
X76180500Y-110035314D01*
X76273686Y-110128500D01*
X76387814Y-110194392D01*
X76515108Y-110228500D01*
X76515110Y-110228500D01*
X76530102Y-110228500D01*
X76597141Y-110248185D01*
X76606502Y-110254832D01*
X78942743Y-112082332D01*
X78983418Y-112139141D01*
X78986923Y-112208923D01*
X78952144Y-112269522D01*
X78890124Y-112301698D01*
X78866343Y-112304000D01*
X68001362Y-112304000D01*
X67934323Y-112284315D01*
X67913681Y-112267681D01*
X65736169Y-110090169D01*
X65702684Y-110028846D01*
X65699851Y-110002856D01*
X65696411Y-108814108D01*
X68999500Y-108814108D01*
X68999500Y-108945891D01*
X69033608Y-109073187D01*
X69066554Y-109130250D01*
X69099500Y-109187314D01*
X69192686Y-109280500D01*
X69306814Y-109346392D01*
X69434108Y-109380500D01*
X69434110Y-109380500D01*
X69565890Y-109380500D01*
X69565892Y-109380500D01*
X69693186Y-109346392D01*
X69807314Y-109280500D01*
X69900500Y-109187314D01*
X69966392Y-109073186D01*
X70000500Y-108945892D01*
X70000500Y-108814108D01*
X69966392Y-108686814D01*
X69900500Y-108572686D01*
X69807314Y-108479500D01*
X69750250Y-108446554D01*
X69693187Y-108413608D01*
X69629539Y-108396554D01*
X69565892Y-108379500D01*
X69434108Y-108379500D01*
X69306812Y-108413608D01*
X69192686Y-108479500D01*
X69192683Y-108479502D01*
X69099502Y-108572683D01*
X69099500Y-108572686D01*
X69033608Y-108686812D01*
X68999500Y-108814108D01*
X65696411Y-108814108D01*
X65689610Y-106464108D01*
X69029500Y-106464108D01*
X69029500Y-106595891D01*
X69063608Y-106723187D01*
X69096554Y-106780250D01*
X69129500Y-106837314D01*
X69222686Y-106930500D01*
X69336814Y-106996392D01*
X69464108Y-107030500D01*
X69464110Y-107030500D01*
X69595890Y-107030500D01*
X69595892Y-107030500D01*
X69723186Y-106996392D01*
X69837314Y-106930500D01*
X69930500Y-106837314D01*
X69996392Y-106723186D01*
X70030500Y-106595892D01*
X70030500Y-106464108D01*
X69996392Y-106336814D01*
X69930500Y-106222686D01*
X69837314Y-106129500D01*
X69780250Y-106096554D01*
X69723187Y-106063608D01*
X69659539Y-106046554D01*
X69595892Y-106029500D01*
X69464108Y-106029500D01*
X69336812Y-106063608D01*
X69222686Y-106129500D01*
X69222683Y-106129502D01*
X69129502Y-106222683D01*
X69129500Y-106222686D01*
X69063608Y-106336812D01*
X69029500Y-106464108D01*
X65689610Y-106464108D01*
X65678253Y-102539589D01*
X65697743Y-102472495D01*
X65750414Y-102426587D01*
X65801396Y-102415235D01*
X67890648Y-102400822D01*
X67957820Y-102420044D01*
G37*
%TD.AperFunction*%
%TD*%
%TA.AperFunction,Conductor*%
%TO.N,+3V3*%
G36*
X133070000Y-88220000D02*
G01*
X133010000Y-92430000D01*
X133010000Y-93760000D01*
X132950000Y-93820000D01*
X130938978Y-93820000D01*
X130919826Y-93817479D01*
X130852727Y-93799500D01*
X130747273Y-93799500D01*
X130680174Y-93817479D01*
X130661022Y-93820000D01*
X118833563Y-93820000D01*
X118781237Y-93798326D01*
X118759563Y-93746000D01*
X118769477Y-93709000D01*
X118798500Y-93658730D01*
X118801093Y-93654239D01*
X118828385Y-93552381D01*
X118828386Y-93552381D01*
X118828386Y-93446923D01*
X118828385Y-93446922D01*
X118815946Y-93400500D01*
X118801093Y-93345065D01*
X118748366Y-93253739D01*
X118673799Y-93179172D01*
X118671674Y-93177047D01*
X118650000Y-93124721D01*
X118650000Y-92660000D01*
X118920000Y-92390000D01*
X118920000Y-91925520D01*
X121819500Y-91925520D01*
X121819500Y-92030979D01*
X121846791Y-92132832D01*
X121846795Y-92132841D01*
X121880452Y-92191137D01*
X121899520Y-92224163D01*
X121974087Y-92298730D01*
X122065413Y-92351457D01*
X122167270Y-92378749D01*
X122167271Y-92378750D01*
X122167273Y-92378750D01*
X122272729Y-92378750D01*
X122272729Y-92378749D01*
X122374587Y-92351457D01*
X122465913Y-92298730D01*
X122540480Y-92224163D01*
X122593207Y-92132837D01*
X122620499Y-92030979D01*
X122620500Y-92030979D01*
X122620500Y-91925521D01*
X122620499Y-91925520D01*
X122600994Y-91852727D01*
X122593207Y-91823663D01*
X122549102Y-91747270D01*
X129599500Y-91747270D01*
X129599500Y-91852729D01*
X129626791Y-91954582D01*
X129626795Y-91954591D01*
X129654624Y-92002792D01*
X129679520Y-92045913D01*
X129754087Y-92120480D01*
X129821301Y-92159286D01*
X129842415Y-92171476D01*
X129876894Y-92216409D01*
X129876894Y-92254714D01*
X129850700Y-92352473D01*
X129850700Y-92457929D01*
X129877991Y-92559782D01*
X129877992Y-92559785D01*
X129877993Y-92559787D01*
X129930720Y-92651113D01*
X130005287Y-92725680D01*
X130096613Y-92778407D01*
X130163346Y-92796287D01*
X130208279Y-92830766D01*
X130215672Y-92886918D01*
X130199500Y-92947273D01*
X130199500Y-93052729D01*
X130226791Y-93154582D01*
X130226792Y-93154585D01*
X130226793Y-93154587D01*
X130279520Y-93245913D01*
X130354087Y-93320480D01*
X130445413Y-93373207D01*
X130547270Y-93400499D01*
X130547271Y-93400500D01*
X130547273Y-93400500D01*
X130652729Y-93400500D01*
X130652729Y-93400499D01*
X130754587Y-93373207D01*
X130845913Y-93320480D01*
X130920480Y-93245913D01*
X130973207Y-93154587D01*
X131000499Y-93052729D01*
X131000500Y-93052729D01*
X131000500Y-92947271D01*
X131000499Y-92947270D01*
X130973208Y-92845417D01*
X130973207Y-92845413D01*
X130920480Y-92754087D01*
X130845913Y-92679520D01*
X130754591Y-92626795D01*
X130754582Y-92626791D01*
X130687853Y-92608911D01*
X130642920Y-92574432D01*
X130635528Y-92518281D01*
X130648024Y-92471645D01*
X130651700Y-92457928D01*
X130651700Y-92352471D01*
X130651699Y-92352470D01*
X130624408Y-92250617D01*
X130624407Y-92250613D01*
X130571680Y-92159287D01*
X130497113Y-92084720D01*
X130408784Y-92033723D01*
X130374305Y-91988789D01*
X130374306Y-91950484D01*
X130377162Y-91939825D01*
X130400499Y-91852729D01*
X130400500Y-91852729D01*
X130400500Y-91747271D01*
X130400499Y-91747270D01*
X130373208Y-91645417D01*
X130373207Y-91645413D01*
X130320480Y-91554087D01*
X130245913Y-91479520D01*
X130154591Y-91426795D01*
X130154582Y-91426791D01*
X130052729Y-91399500D01*
X130052727Y-91399500D01*
X129947273Y-91399500D01*
X129947271Y-91399500D01*
X129845417Y-91426791D01*
X129845408Y-91426795D01*
X129754086Y-91479520D01*
X129679520Y-91554086D01*
X129626795Y-91645408D01*
X129626791Y-91645417D01*
X129599500Y-91747270D01*
X122549102Y-91747270D01*
X122540480Y-91732337D01*
X122465913Y-91657770D01*
X122444501Y-91645408D01*
X122374591Y-91605045D01*
X122374582Y-91605041D01*
X122272729Y-91577750D01*
X122272727Y-91577750D01*
X122167273Y-91577750D01*
X122167271Y-91577750D01*
X122065417Y-91605041D01*
X122065408Y-91605045D01*
X121974086Y-91657770D01*
X121899520Y-91732336D01*
X121846795Y-91823658D01*
X121846791Y-91823667D01*
X121819500Y-91925520D01*
X118920000Y-91925520D01*
X118920000Y-90147270D01*
X122199500Y-90147270D01*
X122199500Y-90252729D01*
X122226791Y-90354582D01*
X122226795Y-90354591D01*
X122240183Y-90377779D01*
X122279520Y-90445913D01*
X122354087Y-90520480D01*
X122445413Y-90573207D01*
X122547270Y-90600499D01*
X122547271Y-90600500D01*
X122547273Y-90600500D01*
X122652726Y-90600500D01*
X122652727Y-90600500D01*
X122754587Y-90573207D01*
X122777687Y-90559870D01*
X122833839Y-90552476D01*
X122867011Y-90571627D01*
X122940914Y-90645530D01*
X123032240Y-90698257D01*
X123134097Y-90725549D01*
X123134098Y-90725550D01*
X123134100Y-90725550D01*
X123239556Y-90725550D01*
X123239556Y-90725549D01*
X123341414Y-90698257D01*
X123432740Y-90645530D01*
X123507307Y-90570963D01*
X123560034Y-90479637D01*
X123587326Y-90377779D01*
X123587327Y-90377779D01*
X123587327Y-90272321D01*
X123587326Y-90272320D01*
X123582793Y-90255404D01*
X123560034Y-90170463D01*
X123507307Y-90079137D01*
X123432740Y-90004570D01*
X123368881Y-89967701D01*
X123341418Y-89951845D01*
X123341409Y-89951841D01*
X123239556Y-89924550D01*
X123239554Y-89924550D01*
X123134100Y-89924550D01*
X123134098Y-89924550D01*
X123032244Y-89951841D01*
X123032240Y-89951843D01*
X123009138Y-89965181D01*
X122989985Y-89967701D01*
X122972139Y-89975094D01*
X122962899Y-89971266D01*
X122952985Y-89972572D01*
X122919813Y-89953420D01*
X122845913Y-89879520D01*
X122759222Y-89829469D01*
X129496374Y-89829469D01*
X129496374Y-89934928D01*
X129523665Y-90036781D01*
X129523666Y-90036784D01*
X129523667Y-90036786D01*
X129576394Y-90128112D01*
X129650961Y-90202679D01*
X129742287Y-90255406D01*
X129747153Y-90256709D01*
X129792086Y-90291184D01*
X129798818Y-90342290D01*
X129800133Y-90342464D01*
X129799500Y-90347272D01*
X129799500Y-90452729D01*
X129826791Y-90554582D01*
X129826795Y-90554591D01*
X129837542Y-90573205D01*
X129879520Y-90645913D01*
X129954087Y-90720480D01*
X130045413Y-90773207D01*
X130147270Y-90800499D01*
X130147271Y-90800500D01*
X130147273Y-90800500D01*
X130252729Y-90800500D01*
X130252729Y-90800499D01*
X130354587Y-90773207D01*
X130445913Y-90720480D01*
X130520480Y-90645913D01*
X130573207Y-90554587D01*
X130600499Y-90452729D01*
X130600500Y-90452729D01*
X130600500Y-90347271D01*
X130600499Y-90347270D01*
X130573208Y-90245417D01*
X130573207Y-90245413D01*
X130520480Y-90154087D01*
X130445913Y-90079520D01*
X130354587Y-90026793D01*
X130354582Y-90026791D01*
X130349717Y-90025488D01*
X130304784Y-89991010D01*
X130294907Y-89951681D01*
X130295176Y-89943127D01*
X130297374Y-89934926D01*
X130297374Y-89873345D01*
X130297411Y-89872171D01*
X130308619Y-89847350D01*
X130319048Y-89822174D01*
X130320205Y-89821694D01*
X130320721Y-89820553D01*
X130346200Y-89810927D01*
X130371374Y-89800500D01*
X130452729Y-89800500D01*
X130452729Y-89800499D01*
X130554587Y-89773207D01*
X130645913Y-89720480D01*
X130720480Y-89645913D01*
X130773207Y-89554587D01*
X130800499Y-89452729D01*
X130800500Y-89452729D01*
X130800500Y-89347271D01*
X130800499Y-89347270D01*
X130773208Y-89245417D01*
X130773207Y-89245413D01*
X130720480Y-89154087D01*
X130645913Y-89079520D01*
X130554591Y-89026795D01*
X130554582Y-89026791D01*
X130452729Y-88999500D01*
X130452727Y-88999500D01*
X130347273Y-88999500D01*
X130347271Y-88999500D01*
X130245417Y-89026791D01*
X130245408Y-89026795D01*
X130154086Y-89079520D01*
X130079520Y-89154086D01*
X130026795Y-89245408D01*
X130026791Y-89245417D01*
X129999500Y-89347270D01*
X129999500Y-89407699D01*
X129977826Y-89460025D01*
X129925500Y-89481699D01*
X129844145Y-89481699D01*
X129742291Y-89508990D01*
X129742282Y-89508994D01*
X129650960Y-89561719D01*
X129576394Y-89636285D01*
X129523669Y-89727607D01*
X129523665Y-89727616D01*
X129496374Y-89829469D01*
X122759222Y-89829469D01*
X122754591Y-89826795D01*
X122754582Y-89826791D01*
X122652729Y-89799500D01*
X122652727Y-89799500D01*
X122547273Y-89799500D01*
X122547271Y-89799500D01*
X122445417Y-89826791D01*
X122445408Y-89826795D01*
X122354086Y-89879520D01*
X122279520Y-89954086D01*
X122226795Y-90045408D01*
X122226791Y-90045417D01*
X122199500Y-90147270D01*
X118920000Y-90147270D01*
X118920000Y-88207263D01*
X133070000Y-88220000D01*
G37*
%TD.AperFunction*%
%TD*%
%TA.AperFunction,Conductor*%
%TO.N,+3V3*%
G36*
X136718326Y-76608326D02*
G01*
X136740000Y-76660652D01*
X136740000Y-99820849D01*
X136738906Y-99833527D01*
X136732465Y-99870565D01*
X136720972Y-99870626D01*
X136740000Y-99362526D01*
X136712579Y-99389947D01*
X131530000Y-99389947D01*
X131530000Y-98837270D01*
X132619500Y-98837270D01*
X132619500Y-98942729D01*
X132646791Y-99044582D01*
X132646792Y-99044585D01*
X132646793Y-99044587D01*
X132699520Y-99135913D01*
X132774087Y-99210480D01*
X132865413Y-99263207D01*
X132967270Y-99290499D01*
X132967271Y-99290500D01*
X132967273Y-99290500D01*
X133072729Y-99290500D01*
X133072729Y-99290499D01*
X133174587Y-99263207D01*
X133265913Y-99210480D01*
X133340480Y-99135913D01*
X133393207Y-99044587D01*
X133420499Y-98942729D01*
X133420500Y-98942729D01*
X133420500Y-98837271D01*
X133420499Y-98837270D01*
X133393208Y-98735417D01*
X133393207Y-98735413D01*
X133340480Y-98644087D01*
X133265913Y-98569520D01*
X133174591Y-98516795D01*
X133174582Y-98516791D01*
X133072729Y-98489500D01*
X133072727Y-98489500D01*
X132967273Y-98489500D01*
X132967271Y-98489500D01*
X132865417Y-98516791D01*
X132865408Y-98516795D01*
X132774086Y-98569520D01*
X132699520Y-98644086D01*
X132646795Y-98735408D01*
X132646791Y-98735417D01*
X132619500Y-98837270D01*
X131530000Y-98837270D01*
X131530000Y-94567270D01*
X133469500Y-94567270D01*
X133469500Y-94672729D01*
X133496791Y-94774582D01*
X133496792Y-94774585D01*
X133496793Y-94774587D01*
X133549520Y-94865913D01*
X133624087Y-94940480D01*
X133715413Y-94993207D01*
X133817270Y-95020499D01*
X133817271Y-95020500D01*
X133817273Y-95020500D01*
X133922729Y-95020500D01*
X133922729Y-95020499D01*
X134024587Y-94993207D01*
X134115913Y-94940480D01*
X134190480Y-94865913D01*
X134243207Y-94774587D01*
X134270499Y-94672729D01*
X134270500Y-94672729D01*
X134270500Y-94567271D01*
X134270499Y-94567270D01*
X134243208Y-94465417D01*
X134243207Y-94465413D01*
X134190480Y-94374087D01*
X134115913Y-94299520D01*
X134024591Y-94246795D01*
X134024589Y-94246794D01*
X134024587Y-94246793D01*
X134024584Y-94246792D01*
X134020109Y-94244939D01*
X134021201Y-94242300D01*
X133983456Y-94213300D01*
X133976097Y-94157143D01*
X134010603Y-94112231D01*
X134028408Y-94104862D01*
X134034587Y-94103207D01*
X134125913Y-94050480D01*
X134200480Y-93975913D01*
X134253207Y-93884587D01*
X134280499Y-93782729D01*
X134280500Y-93782729D01*
X134280500Y-93677271D01*
X134280499Y-93677270D01*
X134253208Y-93575417D01*
X134253207Y-93575413D01*
X134200480Y-93484087D01*
X134125913Y-93409520D01*
X134063017Y-93373207D01*
X134034591Y-93356795D01*
X134034582Y-93356791D01*
X133932729Y-93329500D01*
X133932727Y-93329500D01*
X133827273Y-93329500D01*
X133827271Y-93329500D01*
X133725417Y-93356791D01*
X133725408Y-93356795D01*
X133634086Y-93409520D01*
X133559520Y-93484086D01*
X133506795Y-93575408D01*
X133506791Y-93575417D01*
X133479500Y-93677270D01*
X133479500Y-93782729D01*
X133506791Y-93884582D01*
X133506792Y-93884585D01*
X133506793Y-93884587D01*
X133559520Y-93975913D01*
X133634087Y-94050480D01*
X133725413Y-94103207D01*
X133725419Y-94103208D01*
X133729891Y-94105061D01*
X133728792Y-94107713D01*
X133766514Y-94136648D01*
X133773917Y-94192800D01*
X133739447Y-94237739D01*
X133721590Y-94245138D01*
X133715414Y-94246792D01*
X133715408Y-94246795D01*
X133624086Y-94299520D01*
X133549520Y-94374086D01*
X133496795Y-94465408D01*
X133496791Y-94465417D01*
X133469500Y-94567270D01*
X131530000Y-94567270D01*
X131530000Y-93820000D01*
X132950000Y-93820000D01*
X133010000Y-93760000D01*
X133010000Y-92430000D01*
X133034409Y-90717270D01*
X134169500Y-90717270D01*
X134169500Y-90822729D01*
X134196791Y-90924582D01*
X134196792Y-90924585D01*
X134196793Y-90924587D01*
X134249520Y-91015913D01*
X134324087Y-91090480D01*
X134415413Y-91143207D01*
X134517270Y-91170499D01*
X134517271Y-91170500D01*
X134517273Y-91170500D01*
X134622729Y-91170500D01*
X134622729Y-91170499D01*
X134724587Y-91143207D01*
X134815913Y-91090480D01*
X134890480Y-91015913D01*
X134943207Y-90924587D01*
X134970499Y-90822729D01*
X134970500Y-90822729D01*
X134970500Y-90717271D01*
X134970499Y-90717270D01*
X134943208Y-90615417D01*
X134943207Y-90615413D01*
X134890480Y-90524087D01*
X134815913Y-90449520D01*
X134724591Y-90396795D01*
X134724582Y-90396791D01*
X134622729Y-90369500D01*
X134622727Y-90369500D01*
X134517273Y-90369500D01*
X134517271Y-90369500D01*
X134415417Y-90396791D01*
X134415408Y-90396795D01*
X134324086Y-90449520D01*
X134249520Y-90524086D01*
X134196795Y-90615408D01*
X134196791Y-90615417D01*
X134169500Y-90717270D01*
X133034409Y-90717270D01*
X133047521Y-89797270D01*
X133499500Y-89797270D01*
X133499500Y-89902729D01*
X133526791Y-90004582D01*
X133526795Y-90004591D01*
X133579520Y-90095913D01*
X133654087Y-90170480D01*
X133745413Y-90223207D01*
X133847270Y-90250499D01*
X133847271Y-90250500D01*
X133847273Y-90250500D01*
X133952729Y-90250500D01*
X133952729Y-90250499D01*
X134054587Y-90223207D01*
X134145913Y-90170480D01*
X134220480Y-90095913D01*
X134273207Y-90004587D01*
X134300499Y-89902729D01*
X134300500Y-89902729D01*
X134300500Y-89797271D01*
X134300499Y-89797270D01*
X134294051Y-89773207D01*
X134273207Y-89695413D01*
X134220480Y-89604087D01*
X134145913Y-89529520D01*
X134054591Y-89476795D01*
X134054582Y-89476791D01*
X133952729Y-89449500D01*
X133952727Y-89449500D01*
X133847273Y-89449500D01*
X133847271Y-89449500D01*
X133745417Y-89476791D01*
X133745408Y-89476795D01*
X133654086Y-89529520D01*
X133579520Y-89604086D01*
X133526795Y-89695408D01*
X133526791Y-89695417D01*
X133499500Y-89797270D01*
X133047521Y-89797270D01*
X133060918Y-88857270D01*
X134439500Y-88857270D01*
X134439500Y-88962729D01*
X134466791Y-89064582D01*
X134466795Y-89064591D01*
X134518466Y-89154087D01*
X134519520Y-89155913D01*
X134594087Y-89230480D01*
X134685413Y-89283207D01*
X134787270Y-89310499D01*
X134787271Y-89310500D01*
X134787273Y-89310500D01*
X134892729Y-89310500D01*
X134892729Y-89310499D01*
X134994587Y-89283207D01*
X135085913Y-89230480D01*
X135160480Y-89155913D01*
X135213207Y-89064587D01*
X135240499Y-88962729D01*
X135240500Y-88962729D01*
X135240500Y-88857271D01*
X135240499Y-88857270D01*
X135213208Y-88755417D01*
X135213207Y-88755413D01*
X135160480Y-88664087D01*
X135085913Y-88589520D01*
X134994591Y-88536795D01*
X134994582Y-88536791D01*
X134892729Y-88509500D01*
X134892727Y-88509500D01*
X134787273Y-88509500D01*
X134787271Y-88509500D01*
X134685417Y-88536791D01*
X134685408Y-88536795D01*
X134594086Y-88589520D01*
X134519520Y-88664086D01*
X134466795Y-88755408D01*
X134466791Y-88755417D01*
X134439500Y-88857270D01*
X133060918Y-88857270D01*
X133070000Y-88220000D01*
X131530000Y-88218613D01*
X131530000Y-83147270D01*
X133199500Y-83147270D01*
X133199500Y-83252729D01*
X133226791Y-83354582D01*
X133226792Y-83354585D01*
X133226793Y-83354587D01*
X133279520Y-83445913D01*
X133354087Y-83520480D01*
X133432667Y-83565848D01*
X133445415Y-83573208D01*
X133447861Y-83574221D01*
X133448804Y-83575164D01*
X133449614Y-83575632D01*
X133449488Y-83575848D01*
X133487910Y-83614269D01*
X133491022Y-83661738D01*
X133487892Y-83673419D01*
X133487892Y-83778878D01*
X133515183Y-83880731D01*
X133515187Y-83880740D01*
X133551659Y-83943911D01*
X133567912Y-83972062D01*
X133642479Y-84046629D01*
X133733805Y-84099356D01*
X133835662Y-84126648D01*
X133835663Y-84126649D01*
X133835665Y-84126649D01*
X133941121Y-84126649D01*
X133941121Y-84126648D01*
X134042979Y-84099356D01*
X134134305Y-84046629D01*
X134208872Y-83972062D01*
X134261599Y-83880736D01*
X134288891Y-83778878D01*
X134288892Y-83778878D01*
X134288892Y-83673420D01*
X134288891Y-83673419D01*
X134284226Y-83656010D01*
X134261599Y-83571562D01*
X134208872Y-83480236D01*
X134134305Y-83405669D01*
X134071922Y-83369652D01*
X134042978Y-83352941D01*
X134040529Y-83351927D01*
X134039583Y-83350981D01*
X134038779Y-83350517D01*
X134038903Y-83350301D01*
X134000481Y-83311878D01*
X133997371Y-83264403D01*
X134000500Y-83252728D01*
X134000500Y-83147271D01*
X134000499Y-83147270D01*
X133973208Y-83045417D01*
X133973208Y-83045416D01*
X133973207Y-83045413D01*
X133920480Y-82954087D01*
X133845913Y-82879520D01*
X133754591Y-82826795D01*
X133754582Y-82826791D01*
X133652729Y-82799500D01*
X133652727Y-82799500D01*
X133547273Y-82799500D01*
X133547271Y-82799500D01*
X133445417Y-82826791D01*
X133445408Y-82826795D01*
X133354086Y-82879520D01*
X133279520Y-82954086D01*
X133226795Y-83045408D01*
X133226791Y-83045417D01*
X133199500Y-83147270D01*
X131530000Y-83147270D01*
X131530000Y-77660000D01*
X130931674Y-77061674D01*
X130910000Y-77009348D01*
X130910000Y-76307270D01*
X132609500Y-76307270D01*
X132609500Y-76412729D01*
X132636791Y-76514582D01*
X132636792Y-76514585D01*
X132636793Y-76514587D01*
X132689520Y-76605913D01*
X132764087Y-76680480D01*
X132855413Y-76733207D01*
X132957270Y-76760499D01*
X132957271Y-76760500D01*
X132957273Y-76760500D01*
X133062729Y-76760500D01*
X133062729Y-76760499D01*
X133164587Y-76733207D01*
X133255913Y-76680480D01*
X133330480Y-76605913D01*
X133383207Y-76514587D01*
X133410499Y-76412729D01*
X133410500Y-76412729D01*
X133410500Y-76307271D01*
X133410499Y-76307270D01*
X133383208Y-76205417D01*
X133383207Y-76205413D01*
X133330480Y-76114087D01*
X133255913Y-76039520D01*
X133196237Y-76005066D01*
X133164591Y-75986795D01*
X133164582Y-75986791D01*
X133062729Y-75959500D01*
X133062727Y-75959500D01*
X132957273Y-75959500D01*
X132957271Y-75959500D01*
X132855417Y-75986791D01*
X132855408Y-75986795D01*
X132764086Y-76039520D01*
X132689520Y-76114086D01*
X132636795Y-76205408D01*
X132636791Y-76205417D01*
X132609500Y-76307270D01*
X130910000Y-76307270D01*
X130910000Y-75084310D01*
X125232960Y-69407270D01*
X127049500Y-69407270D01*
X127049500Y-69512729D01*
X127076791Y-69614582D01*
X127076795Y-69614591D01*
X127114555Y-69679993D01*
X127129520Y-69705913D01*
X127204087Y-69780480D01*
X127295413Y-69833207D01*
X127397270Y-69860499D01*
X127397271Y-69860500D01*
X127397273Y-69860500D01*
X127502729Y-69860500D01*
X127502729Y-69860499D01*
X127604587Y-69833207D01*
X127695913Y-69780480D01*
X127770480Y-69705913D01*
X127823207Y-69614587D01*
X127850499Y-69512729D01*
X127850500Y-69512729D01*
X127850500Y-69407271D01*
X127850499Y-69407270D01*
X127823208Y-69305417D01*
X127823207Y-69305413D01*
X127770480Y-69214087D01*
X127695913Y-69139520D01*
X127604591Y-69086795D01*
X127604582Y-69086791D01*
X127502729Y-69059500D01*
X127502727Y-69059500D01*
X127397273Y-69059500D01*
X127397271Y-69059500D01*
X127295417Y-69086791D01*
X127295408Y-69086795D01*
X127204086Y-69139520D01*
X127129520Y-69214086D01*
X127076795Y-69305408D01*
X127076791Y-69305417D01*
X127049500Y-69407270D01*
X125232960Y-69407270D01*
X124910000Y-69084310D01*
X124206000Y-67310000D01*
X124910000Y-64800000D01*
X136718326Y-76608326D01*
G37*
%TD.AperFunction*%
%TD*%
%TA.AperFunction,Conductor*%
%TO.N,+3V3*%
G36*
X96049388Y-84109685D02*
G01*
X96095143Y-84162489D01*
X96105087Y-84231647D01*
X96102123Y-84246095D01*
X96096283Y-84267887D01*
X96096282Y-84267890D01*
X96096282Y-84557013D01*
X96076597Y-84624052D01*
X96023793Y-84669807D01*
X95980529Y-84680738D01*
X94511330Y-84778670D01*
X94511328Y-84778671D01*
X93254624Y-86035375D01*
X93254624Y-86880000D01*
X93999111Y-87624487D01*
X94012558Y-87642756D01*
X94054359Y-89484200D01*
X92426138Y-88029704D01*
X92394361Y-87985100D01*
X92079612Y-87232969D01*
X92070000Y-87185100D01*
X92070000Y-85285370D01*
X92089685Y-85218331D01*
X92123932Y-85183064D01*
X93688326Y-84111692D01*
X93754760Y-84090053D01*
X93758391Y-84090000D01*
X95982349Y-84090000D01*
X96049388Y-84109685D01*
G37*
%TD.AperFunction*%
%TD*%
%TA.AperFunction,Conductor*%
%TO.N,+3V3*%
G36*
X94017678Y-87647785D02*
G01*
X94624083Y-88802470D01*
X94627637Y-88809238D01*
X94628406Y-88812106D01*
X94636551Y-88826212D01*
X94637239Y-88827522D01*
X94637251Y-88827543D01*
X94638804Y-88830500D01*
X94742000Y-89027000D01*
X94804330Y-89031225D01*
X94836316Y-89040966D01*
X94850486Y-89049145D01*
X94885964Y-89069623D01*
X95005962Y-89101759D01*
X95068075Y-89101750D01*
X95113575Y-89101750D01*
X95113665Y-89101757D01*
X95120156Y-89101756D01*
X95120159Y-89101757D01*
X95137388Y-89101754D01*
X95137464Y-89101785D01*
X95168075Y-89101780D01*
X95168075Y-89101782D01*
X95230180Y-89101773D01*
X95342376Y-89071694D01*
X95366526Y-89069340D01*
X97318414Y-89201672D01*
X97361925Y-89221445D01*
X97362438Y-89220777D01*
X97365320Y-89222988D01*
X97365733Y-89223176D01*
X97366287Y-89223730D01*
X97457613Y-89276457D01*
X97559470Y-89303749D01*
X97559471Y-89303750D01*
X97559473Y-89303750D01*
X97664929Y-89303750D01*
X97664929Y-89303749D01*
X97766787Y-89276457D01*
X97858113Y-89223730D01*
X97925902Y-89155940D01*
X97949068Y-89140256D01*
X99504873Y-88473482D01*
X99530599Y-88467581D01*
X101485754Y-88377270D01*
X114589500Y-88377270D01*
X114589500Y-88482729D01*
X114616791Y-88584582D01*
X114616795Y-88584591D01*
X114641162Y-88626795D01*
X114669520Y-88675913D01*
X114744087Y-88750480D01*
X114835413Y-88803207D01*
X114937270Y-88830499D01*
X114937271Y-88830500D01*
X114937273Y-88830500D01*
X115042729Y-88830500D01*
X115042729Y-88830499D01*
X115144587Y-88803207D01*
X115235913Y-88750480D01*
X115310480Y-88675913D01*
X115363207Y-88584587D01*
X115390499Y-88482729D01*
X115390500Y-88482729D01*
X115390500Y-88377271D01*
X115390499Y-88377270D01*
X115390244Y-88376320D01*
X115363207Y-88275413D01*
X115310480Y-88184087D01*
X115235913Y-88109520D01*
X115208822Y-88093879D01*
X115144591Y-88056795D01*
X115144582Y-88056791D01*
X115042729Y-88029500D01*
X115042727Y-88029500D01*
X114937273Y-88029500D01*
X114937271Y-88029500D01*
X114835417Y-88056791D01*
X114835408Y-88056795D01*
X114744086Y-88109520D01*
X114669520Y-88184086D01*
X114616795Y-88275408D01*
X114616791Y-88275417D01*
X114589500Y-88377270D01*
X101485754Y-88377270D01*
X102229121Y-88342933D01*
X102317971Y-88338829D01*
X102319675Y-88338750D01*
X102412727Y-88338750D01*
X102432110Y-88333556D01*
X107898509Y-88081057D01*
X107951777Y-88100292D01*
X107966006Y-88117976D01*
X107974850Y-88133294D01*
X107974852Y-88133296D01*
X107974854Y-88133299D01*
X108049421Y-88207866D01*
X108140747Y-88260593D01*
X108242604Y-88287885D01*
X108242605Y-88287886D01*
X108242607Y-88287886D01*
X108348063Y-88287886D01*
X108348063Y-88287885D01*
X108449921Y-88260593D01*
X108541247Y-88207866D01*
X108615814Y-88133299D01*
X108646219Y-88080635D01*
X108691149Y-88046159D01*
X108706879Y-88043717D01*
X114622233Y-87770480D01*
X115077973Y-87749429D01*
X115081387Y-87749350D01*
X117794191Y-87749350D01*
X117846517Y-87771024D01*
X117868191Y-87823350D01*
X117858277Y-87860350D01*
X117843145Y-87886558D01*
X117843141Y-87886567D01*
X117815850Y-87988420D01*
X117815850Y-88093879D01*
X117844398Y-88200421D01*
X117842416Y-88200951D01*
X117842415Y-88250622D01*
X117802364Y-88290668D01*
X117774049Y-88296300D01*
X117752471Y-88296300D01*
X117650617Y-88323591D01*
X117650608Y-88323595D01*
X117559286Y-88376320D01*
X117484720Y-88450886D01*
X117431995Y-88542208D01*
X117431991Y-88542217D01*
X117404700Y-88644070D01*
X117404700Y-88749529D01*
X117431991Y-88851382D01*
X117431995Y-88851391D01*
X117432217Y-88851775D01*
X117484720Y-88942713D01*
X117559287Y-89017280D01*
X117650613Y-89070007D01*
X117752470Y-89097299D01*
X117752471Y-89097300D01*
X117752473Y-89097300D01*
X117857929Y-89097300D01*
X117857929Y-89097299D01*
X117959787Y-89070007D01*
X118051113Y-89017280D01*
X118125680Y-88942713D01*
X118178407Y-88851387D01*
X118205699Y-88749529D01*
X118205700Y-88749529D01*
X118205700Y-88644071D01*
X118205699Y-88644070D01*
X118177152Y-88537529D01*
X118179133Y-88536998D01*
X118179135Y-88487328D01*
X118219186Y-88447282D01*
X118247501Y-88441650D01*
X118269079Y-88441650D01*
X118269079Y-88441649D01*
X118370937Y-88414357D01*
X118462263Y-88361630D01*
X118536830Y-88287063D01*
X118589557Y-88195737D01*
X118616849Y-88093879D01*
X118616850Y-88093879D01*
X118616850Y-88082522D01*
X118638524Y-88030196D01*
X118690850Y-88008522D01*
X118743176Y-88030196D01*
X118898326Y-88185346D01*
X118898484Y-88185728D01*
X118919999Y-88207262D01*
X118920000Y-88207262D01*
X118920000Y-92390000D01*
X118650000Y-92660000D01*
X111150767Y-92679918D01*
X111098383Y-92658383D01*
X110365520Y-91925520D01*
X117459500Y-91925520D01*
X117459500Y-92030979D01*
X117486791Y-92132832D01*
X117486795Y-92132841D01*
X117501205Y-92157799D01*
X117539520Y-92224163D01*
X117614087Y-92298730D01*
X117705413Y-92351457D01*
X117807270Y-92378749D01*
X117807271Y-92378750D01*
X117807273Y-92378750D01*
X117912729Y-92378750D01*
X117912729Y-92378749D01*
X118014587Y-92351457D01*
X118073162Y-92317639D01*
X118129315Y-92310247D01*
X118162488Y-92329399D01*
X118209090Y-92376001D01*
X118300416Y-92428728D01*
X118402273Y-92456020D01*
X118402274Y-92456021D01*
X118402276Y-92456021D01*
X118507732Y-92456021D01*
X118507732Y-92456020D01*
X118609590Y-92428728D01*
X118700916Y-92376001D01*
X118775483Y-92301434D01*
X118828210Y-92210108D01*
X118855502Y-92108250D01*
X118855503Y-92108250D01*
X118855503Y-92002792D01*
X118855502Y-92002791D01*
X118834798Y-91925523D01*
X118828210Y-91900934D01*
X118775483Y-91809608D01*
X118700916Y-91735041D01*
X118647796Y-91704372D01*
X118609594Y-91682316D01*
X118609585Y-91682312D01*
X118507732Y-91655021D01*
X118507730Y-91655021D01*
X118402276Y-91655021D01*
X118402274Y-91655021D01*
X118300420Y-91682312D01*
X118300411Y-91682316D01*
X118241841Y-91716132D01*
X118185688Y-91723524D01*
X118152515Y-91704372D01*
X118105913Y-91657770D01*
X118014591Y-91605045D01*
X118014582Y-91605041D01*
X117912729Y-91577750D01*
X117912727Y-91577750D01*
X117807273Y-91577750D01*
X117807271Y-91577750D01*
X117705417Y-91605041D01*
X117705408Y-91605045D01*
X117614086Y-91657770D01*
X117539520Y-91732336D01*
X117486795Y-91823658D01*
X117486791Y-91823667D01*
X117459500Y-91925520D01*
X110365520Y-91925520D01*
X110285522Y-91845522D01*
X110263848Y-91793196D01*
X110285521Y-91740871D01*
X110340480Y-91685913D01*
X110393207Y-91594587D01*
X110420499Y-91492729D01*
X110420500Y-91492729D01*
X110420500Y-91387271D01*
X110420499Y-91387270D01*
X110418679Y-91380479D01*
X110393207Y-91285413D01*
X110340480Y-91194087D01*
X110265913Y-91119520D01*
X110254147Y-91112727D01*
X110174590Y-91066794D01*
X110174582Y-91066791D01*
X110072729Y-91039500D01*
X110072727Y-91039500D01*
X109967273Y-91039500D01*
X109967271Y-91039500D01*
X109865417Y-91066791D01*
X109865408Y-91066795D01*
X109774084Y-91119521D01*
X109719128Y-91174477D01*
X109666802Y-91196151D01*
X109614477Y-91174477D01*
X109447270Y-91007270D01*
X114489500Y-91007270D01*
X114489500Y-91112729D01*
X114516791Y-91214582D01*
X114516795Y-91214591D01*
X114557681Y-91285408D01*
X114569520Y-91305913D01*
X114644087Y-91380480D01*
X114735413Y-91433207D01*
X114837270Y-91460499D01*
X114837271Y-91460500D01*
X114837273Y-91460500D01*
X114942729Y-91460500D01*
X114942729Y-91460499D01*
X115044587Y-91433207D01*
X115135913Y-91380480D01*
X115210480Y-91305913D01*
X115263207Y-91214587D01*
X115290499Y-91112729D01*
X115290500Y-91112729D01*
X115290500Y-91007271D01*
X115290499Y-91007270D01*
X115263208Y-90905417D01*
X115263207Y-90905413D01*
X115210480Y-90814087D01*
X115135913Y-90739520D01*
X115101930Y-90719900D01*
X115044591Y-90686795D01*
X115044582Y-90686791D01*
X114942729Y-90659500D01*
X114942727Y-90659500D01*
X114837273Y-90659500D01*
X114837271Y-90659500D01*
X114735417Y-90686791D01*
X114735408Y-90686795D01*
X114644086Y-90739520D01*
X114569520Y-90814086D01*
X114516795Y-90905408D01*
X114516791Y-90905417D01*
X114489500Y-91007270D01*
X109447270Y-91007270D01*
X107982933Y-89542933D01*
X109727489Y-89542933D01*
X109727489Y-89648392D01*
X109754780Y-89750245D01*
X109754784Y-89750254D01*
X109792141Y-89814958D01*
X109807509Y-89841576D01*
X109882076Y-89916143D01*
X109973402Y-89968870D01*
X110075259Y-89996162D01*
X110075260Y-89996163D01*
X110075262Y-89996163D01*
X110180718Y-89996163D01*
X110180718Y-89996162D01*
X110282576Y-89968870D01*
X110373902Y-89916143D01*
X110409500Y-89880544D01*
X110461825Y-89858870D01*
X110514149Y-89880542D01*
X110554087Y-89920480D01*
X110645413Y-89973207D01*
X110747270Y-90000499D01*
X110747271Y-90000500D01*
X110747273Y-90000500D01*
X110852729Y-90000500D01*
X110852729Y-90000499D01*
X110954587Y-89973207D01*
X111045913Y-89920480D01*
X111120480Y-89845913D01*
X111173207Y-89754587D01*
X111200499Y-89652729D01*
X111200500Y-89652729D01*
X111200500Y-89547271D01*
X111200499Y-89547270D01*
X111186353Y-89494477D01*
X111173207Y-89445413D01*
X111140649Y-89389020D01*
X113589500Y-89389020D01*
X113589500Y-89494479D01*
X113616791Y-89596332D01*
X113616792Y-89596335D01*
X113616793Y-89596337D01*
X113669520Y-89687663D01*
X113744087Y-89762230D01*
X113835413Y-89814957D01*
X113937270Y-89842249D01*
X113937271Y-89842250D01*
X113937273Y-89842250D01*
X114042729Y-89842250D01*
X114042729Y-89842249D01*
X114144587Y-89814957D01*
X114235913Y-89762230D01*
X114310480Y-89687663D01*
X114363207Y-89596337D01*
X114390499Y-89494479D01*
X114390500Y-89494479D01*
X114390500Y-89389021D01*
X114390499Y-89389020D01*
X114363208Y-89287167D01*
X114363207Y-89287163D01*
X114310480Y-89195837D01*
X114235913Y-89121270D01*
X114202143Y-89101773D01*
X114144591Y-89068545D01*
X114144582Y-89068541D01*
X114042729Y-89041250D01*
X114042727Y-89041250D01*
X113937273Y-89041250D01*
X113937271Y-89041250D01*
X113835417Y-89068541D01*
X113835408Y-89068545D01*
X113744086Y-89121270D01*
X113669520Y-89195836D01*
X113616795Y-89287158D01*
X113616791Y-89287167D01*
X113589500Y-89389020D01*
X111140649Y-89389020D01*
X111120480Y-89354087D01*
X111045913Y-89279520D01*
X110987704Y-89245913D01*
X110954591Y-89226795D01*
X110954582Y-89226791D01*
X110852729Y-89199500D01*
X110852727Y-89199500D01*
X110747273Y-89199500D01*
X110670581Y-89220049D01*
X110614429Y-89212656D01*
X110579950Y-89167722D01*
X110579951Y-89129417D01*
X110587358Y-89101773D01*
X110600499Y-89052729D01*
X110600500Y-89052729D01*
X110600500Y-88947271D01*
X110600499Y-88947270D01*
X110574913Y-88851782D01*
X110573207Y-88845413D01*
X110520480Y-88754087D01*
X110445913Y-88679520D01*
X110354591Y-88626795D01*
X110354582Y-88626791D01*
X110252729Y-88599500D01*
X110252727Y-88599500D01*
X110147273Y-88599500D01*
X110147271Y-88599500D01*
X110045417Y-88626791D01*
X110045408Y-88626795D01*
X109954086Y-88679520D01*
X109879520Y-88754086D01*
X109826795Y-88845408D01*
X109826791Y-88845417D01*
X109799500Y-88947270D01*
X109799500Y-89052729D01*
X109826791Y-89154582D01*
X109826792Y-89154584D01*
X109826793Y-89154587D01*
X109862778Y-89216915D01*
X109870171Y-89273066D01*
X109851018Y-89306239D01*
X109807510Y-89349747D01*
X109754784Y-89441071D01*
X109754780Y-89441080D01*
X109727489Y-89542933D01*
X107982933Y-89542933D01*
X107960000Y-89520000D01*
X102641406Y-89661999D01*
X99929477Y-90118211D01*
X99917639Y-90119235D01*
X95630983Y-90144600D01*
X94626827Y-90169091D01*
X94573988Y-90148699D01*
X94566687Y-90140642D01*
X94549952Y-90119200D01*
X94054359Y-89484200D01*
X94054360Y-89484200D01*
X94054358Y-89484199D01*
X94012512Y-87640768D01*
X94017678Y-87647785D01*
G37*
%TD.AperFunction*%
%TD*%
%TA.AperFunction,Conductor*%
%TO.N,/adc-frontend/MCU_VREF*%
G36*
X70273425Y-102281435D02*
G01*
X70294067Y-102298069D01*
X73914000Y-105918000D01*
X98043438Y-105918000D01*
X98110477Y-105937685D01*
X98131119Y-105954319D01*
X102325681Y-110148881D01*
X102359166Y-110210204D01*
X102362000Y-110236562D01*
X102362000Y-114074400D01*
X102342315Y-114141439D01*
X102289511Y-114187194D01*
X102238000Y-114198400D01*
X101266800Y-114198400D01*
X101199761Y-114178715D01*
X101154006Y-114125911D01*
X101142800Y-114074400D01*
X101142800Y-110388400D01*
X97586800Y-106832400D01*
X73609762Y-106832400D01*
X73542723Y-106812715D01*
X73522081Y-106796081D01*
X69485790Y-102759790D01*
X69452305Y-102698467D01*
X69457289Y-102628775D01*
X69491087Y-102579432D01*
X69813245Y-102293070D01*
X69876429Y-102263245D01*
X69895626Y-102261750D01*
X70206386Y-102261750D01*
X70273425Y-102281435D01*
G37*
%TD.AperFunction*%
%TD*%
%TA.AperFunction,Conductor*%
%TO.N,VDDA*%
G36*
X82575198Y-118466612D02*
G01*
X82642913Y-118505707D01*
X82744773Y-118533000D01*
X82744775Y-118533000D01*
X82850225Y-118533000D01*
X82850227Y-118533000D01*
X82952087Y-118505707D01*
X83019801Y-118466612D01*
X83081799Y-118450000D01*
X91140000Y-118450000D01*
X91140000Y-118690000D01*
X91170000Y-118720000D01*
X92500000Y-118720000D01*
X92500000Y-118450000D01*
X93433267Y-118450000D01*
X93500306Y-118469685D01*
X93500729Y-118469958D01*
X96364392Y-120329863D01*
X96378853Y-120342674D01*
X96140000Y-120900000D01*
X96194410Y-122160901D01*
X96114519Y-122160521D01*
X87641016Y-122120242D01*
X87574070Y-122100239D01*
X87553924Y-122083924D01*
X85830000Y-120359999D01*
X74663344Y-120300921D01*
X74661166Y-120300269D01*
X79246119Y-120300269D01*
X79243215Y-119140000D01*
X92500000Y-119140000D01*
X92920000Y-118720000D01*
X92500000Y-118720000D01*
X92500000Y-119140000D01*
X79243215Y-119140000D01*
X79241488Y-118450000D01*
X79241489Y-118450000D01*
X82513201Y-118450000D01*
X82575198Y-118466612D01*
G37*
%TD.AperFunction*%
%TA.AperFunction,Conductor*%
G36*
X74941945Y-119288055D02*
G01*
X74540062Y-119689937D01*
X74540006Y-118574004D01*
X74559687Y-118506966D01*
X74612489Y-118461208D01*
X74664006Y-118450000D01*
X74939469Y-118450000D01*
X74941945Y-119288055D01*
G37*
%TD.AperFunction*%
%TD*%
%TA.AperFunction,Conductor*%
%TO.N,VDDA*%
G36*
X71930248Y-96269685D02*
G01*
X71976003Y-96322489D01*
X71982982Y-96341904D01*
X72002793Y-96415837D01*
X72055520Y-96507163D01*
X72130087Y-96581730D01*
X72208002Y-96626714D01*
X72256215Y-96677278D01*
X72270000Y-96734099D01*
X72270000Y-98878638D01*
X72261355Y-98908078D01*
X72254832Y-98938065D01*
X72251077Y-98943080D01*
X72250315Y-98945677D01*
X72233681Y-98966319D01*
X72096319Y-99103681D01*
X72034996Y-99137166D01*
X72008638Y-99140000D01*
X66927812Y-99140000D01*
X66860773Y-99120315D01*
X66840131Y-99103681D01*
X66774316Y-99037866D01*
X66740831Y-98976543D01*
X66738003Y-98951439D01*
X66721158Y-97275246D01*
X66740168Y-97208012D01*
X66792510Y-97161729D01*
X66845152Y-97150000D01*
X69210000Y-97150000D01*
X69280000Y-97080000D01*
X69280000Y-96901362D01*
X69299685Y-96834323D01*
X69316319Y-96813681D01*
X69843681Y-96286319D01*
X69905004Y-96252834D01*
X69931362Y-96250000D01*
X71863209Y-96250000D01*
X71930248Y-96269685D01*
G37*
%TD.AperFunction*%
%TD*%
M02*
