%TF.GenerationSoftware,KiCad,Pcbnew,9.0.6-9.0.6~ubuntu24.04.1*%
%TF.CreationDate,2025-11-26T21:16:59+01:00*%
%TF.ProjectId,modular-processing-board,6d6f6475-6c61-4722-9d70-726f63657373,rev?*%
%TF.SameCoordinates,Original*%
%TF.FileFunction,Legend,Top*%
%TF.FilePolarity,Positive*%
%FSLAX46Y46*%
G04 Gerber Fmt 4.6, Leading zero omitted, Abs format (unit mm)*
G04 Created by KiCad (PCBNEW 9.0.6-9.0.6~ubuntu24.04.1) date 2025-11-26 21:16:59*
%MOMM*%
%LPD*%
G01*
G04 APERTURE LIST*
%ADD10C,0.200000*%
%ADD11C,0.120000*%
%ADD12C,0.127000*%
%ADD13C,0.254000*%
%ADD14C,0.100000*%
G04 APERTURE END LIST*
D10*
X95553016Y-133207819D02*
X95886349Y-134207819D01*
X95886349Y-134207819D02*
X96219682Y-133207819D01*
X96743492Y-133207819D02*
X96933968Y-133207819D01*
X96933968Y-133207819D02*
X97029206Y-133255438D01*
X97029206Y-133255438D02*
X97124444Y-133350676D01*
X97124444Y-133350676D02*
X97172063Y-133541152D01*
X97172063Y-133541152D02*
X97172063Y-133874485D01*
X97172063Y-133874485D02*
X97124444Y-134064961D01*
X97124444Y-134064961D02*
X97029206Y-134160200D01*
X97029206Y-134160200D02*
X96933968Y-134207819D01*
X96933968Y-134207819D02*
X96743492Y-134207819D01*
X96743492Y-134207819D02*
X96648254Y-134160200D01*
X96648254Y-134160200D02*
X96553016Y-134064961D01*
X96553016Y-134064961D02*
X96505397Y-133874485D01*
X96505397Y-133874485D02*
X96505397Y-133541152D01*
X96505397Y-133541152D02*
X96553016Y-133350676D01*
X96553016Y-133350676D02*
X96648254Y-133255438D01*
X96648254Y-133255438D02*
X96743492Y-133207819D01*
X98172063Y-134112580D02*
X98124444Y-134160200D01*
X98124444Y-134160200D02*
X97981587Y-134207819D01*
X97981587Y-134207819D02*
X97886349Y-134207819D01*
X97886349Y-134207819D02*
X97743492Y-134160200D01*
X97743492Y-134160200D02*
X97648254Y-134064961D01*
X97648254Y-134064961D02*
X97600635Y-133969723D01*
X97600635Y-133969723D02*
X97553016Y-133779247D01*
X97553016Y-133779247D02*
X97553016Y-133636390D01*
X97553016Y-133636390D02*
X97600635Y-133445914D01*
X97600635Y-133445914D02*
X97648254Y-133350676D01*
X97648254Y-133350676D02*
X97743492Y-133255438D01*
X97743492Y-133255438D02*
X97886349Y-133207819D01*
X97886349Y-133207819D02*
X97981587Y-133207819D01*
X97981587Y-133207819D02*
X98124444Y-133255438D01*
X98124444Y-133255438D02*
X98172063Y-133303057D01*
X98600635Y-134207819D02*
X98600635Y-133207819D01*
X98600635Y-133207819D02*
X98933968Y-133922104D01*
X98933968Y-133922104D02*
X99267301Y-133207819D01*
X99267301Y-133207819D02*
X99267301Y-134207819D01*
X127603819Y-67556336D02*
X127603819Y-68032526D01*
X127603819Y-68032526D02*
X126603819Y-68032526D01*
X127080009Y-67223002D02*
X127080009Y-66889669D01*
X127603819Y-66746812D02*
X127603819Y-67223002D01*
X127603819Y-67223002D02*
X126603819Y-67223002D01*
X126603819Y-67223002D02*
X126603819Y-66746812D01*
X127603819Y-66318240D02*
X126603819Y-66318240D01*
X126603819Y-66318240D02*
X126603819Y-66080145D01*
X126603819Y-66080145D02*
X126651438Y-65937288D01*
X126651438Y-65937288D02*
X126746676Y-65842050D01*
X126746676Y-65842050D02*
X126841914Y-65794431D01*
X126841914Y-65794431D02*
X127032390Y-65746812D01*
X127032390Y-65746812D02*
X127175247Y-65746812D01*
X127175247Y-65746812D02*
X127365723Y-65794431D01*
X127365723Y-65794431D02*
X127460961Y-65842050D01*
X127460961Y-65842050D02*
X127556200Y-65937288D01*
X127556200Y-65937288D02*
X127603819Y-66080145D01*
X127603819Y-66080145D02*
X127603819Y-66318240D01*
X126699057Y-65365859D02*
X126651438Y-65318240D01*
X126651438Y-65318240D02*
X126603819Y-65223002D01*
X126603819Y-65223002D02*
X126603819Y-64984907D01*
X126603819Y-64984907D02*
X126651438Y-64889669D01*
X126651438Y-64889669D02*
X126699057Y-64842050D01*
X126699057Y-64842050D02*
X126794295Y-64794431D01*
X126794295Y-64794431D02*
X126889533Y-64794431D01*
X126889533Y-64794431D02*
X127032390Y-64842050D01*
X127032390Y-64842050D02*
X127603819Y-65413478D01*
X127603819Y-65413478D02*
X127603819Y-64794431D01*
X80121819Y-106757983D02*
X80121819Y-106186555D01*
X81121819Y-106472269D02*
X80121819Y-106472269D01*
X81121819Y-105853221D02*
X80121819Y-105853221D01*
X80121819Y-105853221D02*
X80121819Y-105472269D01*
X80121819Y-105472269D02*
X80169438Y-105377031D01*
X80169438Y-105377031D02*
X80217057Y-105329412D01*
X80217057Y-105329412D02*
X80312295Y-105281793D01*
X80312295Y-105281793D02*
X80455152Y-105281793D01*
X80455152Y-105281793D02*
X80550390Y-105329412D01*
X80550390Y-105329412D02*
X80598009Y-105377031D01*
X80598009Y-105377031D02*
X80645628Y-105472269D01*
X80645628Y-105472269D02*
X80645628Y-105853221D01*
X80836104Y-104900840D02*
X80836104Y-104424650D01*
X81121819Y-104996078D02*
X80121819Y-104662745D01*
X80121819Y-104662745D02*
X81121819Y-104329412D01*
X81121819Y-103996078D02*
X80121819Y-103996078D01*
X80121819Y-103996078D02*
X81121819Y-103424650D01*
X81121819Y-103424650D02*
X80121819Y-103424650D01*
X59662000Y-129522745D02*
X59709619Y-129379888D01*
X59709619Y-129379888D02*
X59709619Y-129141793D01*
X59709619Y-129141793D02*
X59662000Y-129046555D01*
X59662000Y-129046555D02*
X59614380Y-128998936D01*
X59614380Y-128998936D02*
X59519142Y-128951317D01*
X59519142Y-128951317D02*
X59423904Y-128951317D01*
X59423904Y-128951317D02*
X59328666Y-128998936D01*
X59328666Y-128998936D02*
X59281047Y-129046555D01*
X59281047Y-129046555D02*
X59233428Y-129141793D01*
X59233428Y-129141793D02*
X59185809Y-129332269D01*
X59185809Y-129332269D02*
X59138190Y-129427507D01*
X59138190Y-129427507D02*
X59090571Y-129475126D01*
X59090571Y-129475126D02*
X58995333Y-129522745D01*
X58995333Y-129522745D02*
X58900095Y-129522745D01*
X58900095Y-129522745D02*
X58804857Y-129475126D01*
X58804857Y-129475126D02*
X58757238Y-129427507D01*
X58757238Y-129427507D02*
X58709619Y-129332269D01*
X58709619Y-129332269D02*
X58709619Y-129094174D01*
X58709619Y-129094174D02*
X58757238Y-128951317D01*
X59709619Y-128522745D02*
X58709619Y-128522745D01*
X58757238Y-127522746D02*
X58709619Y-127617984D01*
X58709619Y-127617984D02*
X58709619Y-127760841D01*
X58709619Y-127760841D02*
X58757238Y-127903698D01*
X58757238Y-127903698D02*
X58852476Y-127998936D01*
X58852476Y-127998936D02*
X58947714Y-128046555D01*
X58947714Y-128046555D02*
X59138190Y-128094174D01*
X59138190Y-128094174D02*
X59281047Y-128094174D01*
X59281047Y-128094174D02*
X59471523Y-128046555D01*
X59471523Y-128046555D02*
X59566761Y-127998936D01*
X59566761Y-127998936D02*
X59662000Y-127903698D01*
X59662000Y-127903698D02*
X59709619Y-127760841D01*
X59709619Y-127760841D02*
X59709619Y-127665603D01*
X59709619Y-127665603D02*
X59662000Y-127522746D01*
X59662000Y-127522746D02*
X59614380Y-127475127D01*
X59614380Y-127475127D02*
X59281047Y-127475127D01*
X59281047Y-127475127D02*
X59281047Y-127665603D01*
X59614380Y-126475127D02*
X59662000Y-126522746D01*
X59662000Y-126522746D02*
X59709619Y-126665603D01*
X59709619Y-126665603D02*
X59709619Y-126760841D01*
X59709619Y-126760841D02*
X59662000Y-126903698D01*
X59662000Y-126903698D02*
X59566761Y-126998936D01*
X59566761Y-126998936D02*
X59471523Y-127046555D01*
X59471523Y-127046555D02*
X59281047Y-127094174D01*
X59281047Y-127094174D02*
X59138190Y-127094174D01*
X59138190Y-127094174D02*
X58947714Y-127046555D01*
X58947714Y-127046555D02*
X58852476Y-126998936D01*
X58852476Y-126998936D02*
X58757238Y-126903698D01*
X58757238Y-126903698D02*
X58709619Y-126760841D01*
X58709619Y-126760841D02*
X58709619Y-126665603D01*
X58709619Y-126665603D02*
X58757238Y-126522746D01*
X58757238Y-126522746D02*
X58804857Y-126475127D01*
X58709619Y-125856079D02*
X58709619Y-125665603D01*
X58709619Y-125665603D02*
X58757238Y-125570365D01*
X58757238Y-125570365D02*
X58852476Y-125475127D01*
X58852476Y-125475127D02*
X59042952Y-125427508D01*
X59042952Y-125427508D02*
X59376285Y-125427508D01*
X59376285Y-125427508D02*
X59566761Y-125475127D01*
X59566761Y-125475127D02*
X59662000Y-125570365D01*
X59662000Y-125570365D02*
X59709619Y-125665603D01*
X59709619Y-125665603D02*
X59709619Y-125856079D01*
X59709619Y-125856079D02*
X59662000Y-125951317D01*
X59662000Y-125951317D02*
X59566761Y-126046555D01*
X59566761Y-126046555D02*
X59376285Y-126094174D01*
X59376285Y-126094174D02*
X59042952Y-126094174D01*
X59042952Y-126094174D02*
X58852476Y-126046555D01*
X58852476Y-126046555D02*
X58757238Y-125951317D01*
X58757238Y-125951317D02*
X58709619Y-125856079D01*
X59709619Y-124998936D02*
X58709619Y-124998936D01*
X58709619Y-124998936D02*
X59709619Y-124427508D01*
X59709619Y-124427508D02*
X58709619Y-124427508D01*
X59709619Y-123951317D02*
X58709619Y-123951317D01*
X58709619Y-123951317D02*
X59709619Y-123379889D01*
X59709619Y-123379889D02*
X58709619Y-123379889D01*
X65171435Y-69479219D02*
X65790482Y-69479219D01*
X65790482Y-69479219D02*
X65457149Y-69860171D01*
X65457149Y-69860171D02*
X65600006Y-69860171D01*
X65600006Y-69860171D02*
X65695244Y-69907790D01*
X65695244Y-69907790D02*
X65742863Y-69955409D01*
X65742863Y-69955409D02*
X65790482Y-70050647D01*
X65790482Y-70050647D02*
X65790482Y-70288742D01*
X65790482Y-70288742D02*
X65742863Y-70383980D01*
X65742863Y-70383980D02*
X65695244Y-70431600D01*
X65695244Y-70431600D02*
X65600006Y-70479219D01*
X65600006Y-70479219D02*
X65314292Y-70479219D01*
X65314292Y-70479219D02*
X65219054Y-70431600D01*
X65219054Y-70431600D02*
X65171435Y-70383980D01*
X66076197Y-69479219D02*
X66409530Y-70479219D01*
X66409530Y-70479219D02*
X66742863Y-69479219D01*
X66980959Y-69479219D02*
X67600006Y-69479219D01*
X67600006Y-69479219D02*
X67266673Y-69860171D01*
X67266673Y-69860171D02*
X67409530Y-69860171D01*
X67409530Y-69860171D02*
X67504768Y-69907790D01*
X67504768Y-69907790D02*
X67552387Y-69955409D01*
X67552387Y-69955409D02*
X67600006Y-70050647D01*
X67600006Y-70050647D02*
X67600006Y-70288742D01*
X67600006Y-70288742D02*
X67552387Y-70383980D01*
X67552387Y-70383980D02*
X67504768Y-70431600D01*
X67504768Y-70431600D02*
X67409530Y-70479219D01*
X67409530Y-70479219D02*
X67123816Y-70479219D01*
X67123816Y-70479219D02*
X67028578Y-70431600D01*
X67028578Y-70431600D02*
X66980959Y-70383980D01*
X73886816Y-55306019D02*
X74220149Y-56306019D01*
X74220149Y-56306019D02*
X74553482Y-55306019D01*
X75220149Y-55782209D02*
X75363006Y-55829828D01*
X75363006Y-55829828D02*
X75410625Y-55877447D01*
X75410625Y-55877447D02*
X75458244Y-55972685D01*
X75458244Y-55972685D02*
X75458244Y-56115542D01*
X75458244Y-56115542D02*
X75410625Y-56210780D01*
X75410625Y-56210780D02*
X75363006Y-56258400D01*
X75363006Y-56258400D02*
X75267768Y-56306019D01*
X75267768Y-56306019D02*
X74886816Y-56306019D01*
X74886816Y-56306019D02*
X74886816Y-55306019D01*
X74886816Y-55306019D02*
X75220149Y-55306019D01*
X75220149Y-55306019D02*
X75315387Y-55353638D01*
X75315387Y-55353638D02*
X75363006Y-55401257D01*
X75363006Y-55401257D02*
X75410625Y-55496495D01*
X75410625Y-55496495D02*
X75410625Y-55591733D01*
X75410625Y-55591733D02*
X75363006Y-55686971D01*
X75363006Y-55686971D02*
X75315387Y-55734590D01*
X75315387Y-55734590D02*
X75220149Y-55782209D01*
X75220149Y-55782209D02*
X74886816Y-55782209D01*
X75886816Y-55306019D02*
X75886816Y-56115542D01*
X75886816Y-56115542D02*
X75934435Y-56210780D01*
X75934435Y-56210780D02*
X75982054Y-56258400D01*
X75982054Y-56258400D02*
X76077292Y-56306019D01*
X76077292Y-56306019D02*
X76267768Y-56306019D01*
X76267768Y-56306019D02*
X76363006Y-56258400D01*
X76363006Y-56258400D02*
X76410625Y-56210780D01*
X76410625Y-56210780D02*
X76458244Y-56115542D01*
X76458244Y-56115542D02*
X76458244Y-55306019D01*
X76886816Y-56258400D02*
X77029673Y-56306019D01*
X77029673Y-56306019D02*
X77267768Y-56306019D01*
X77267768Y-56306019D02*
X77363006Y-56258400D01*
X77363006Y-56258400D02*
X77410625Y-56210780D01*
X77410625Y-56210780D02*
X77458244Y-56115542D01*
X77458244Y-56115542D02*
X77458244Y-56020304D01*
X77458244Y-56020304D02*
X77410625Y-55925066D01*
X77410625Y-55925066D02*
X77363006Y-55877447D01*
X77363006Y-55877447D02*
X77267768Y-55829828D01*
X77267768Y-55829828D02*
X77077292Y-55782209D01*
X77077292Y-55782209D02*
X76982054Y-55734590D01*
X76982054Y-55734590D02*
X76934435Y-55686971D01*
X76934435Y-55686971D02*
X76886816Y-55591733D01*
X76886816Y-55591733D02*
X76886816Y-55496495D01*
X76886816Y-55496495D02*
X76934435Y-55401257D01*
X76934435Y-55401257D02*
X76982054Y-55353638D01*
X76982054Y-55353638D02*
X77077292Y-55306019D01*
X77077292Y-55306019D02*
X77315387Y-55306019D01*
X77315387Y-55306019D02*
X77458244Y-55353638D01*
X96784219Y-106859583D02*
X96784219Y-106288155D01*
X97784219Y-106573869D02*
X96784219Y-106573869D01*
X97784219Y-105954821D02*
X96784219Y-105954821D01*
X96784219Y-105954821D02*
X96784219Y-105573869D01*
X96784219Y-105573869D02*
X96831838Y-105478631D01*
X96831838Y-105478631D02*
X96879457Y-105431012D01*
X96879457Y-105431012D02*
X96974695Y-105383393D01*
X96974695Y-105383393D02*
X97117552Y-105383393D01*
X97117552Y-105383393D02*
X97212790Y-105431012D01*
X97212790Y-105431012D02*
X97260409Y-105478631D01*
X97260409Y-105478631D02*
X97308028Y-105573869D01*
X97308028Y-105573869D02*
X97308028Y-105954821D01*
X97498504Y-105002440D02*
X97498504Y-104526250D01*
X97784219Y-105097678D02*
X96784219Y-104764345D01*
X96784219Y-104764345D02*
X97784219Y-104431012D01*
X97784219Y-104097678D02*
X96784219Y-104097678D01*
X96784219Y-104097678D02*
X96784219Y-103716726D01*
X96784219Y-103716726D02*
X96831838Y-103621488D01*
X96831838Y-103621488D02*
X96879457Y-103573869D01*
X96879457Y-103573869D02*
X96974695Y-103526250D01*
X96974695Y-103526250D02*
X97117552Y-103526250D01*
X97117552Y-103526250D02*
X97212790Y-103573869D01*
X97212790Y-103573869D02*
X97260409Y-103621488D01*
X97260409Y-103621488D02*
X97308028Y-103716726D01*
X97308028Y-103716726D02*
X97308028Y-104097678D01*
X88561654Y-132398104D02*
X89037844Y-132398104D01*
X88466416Y-132683819D02*
X88799749Y-131683819D01*
X88799749Y-131683819D02*
X89133082Y-132683819D01*
X89466416Y-132683819D02*
X89466416Y-131683819D01*
X89466416Y-131683819D02*
X89704511Y-131683819D01*
X89704511Y-131683819D02*
X89847368Y-131731438D01*
X89847368Y-131731438D02*
X89942606Y-131826676D01*
X89942606Y-131826676D02*
X89990225Y-131921914D01*
X89990225Y-131921914D02*
X90037844Y-132112390D01*
X90037844Y-132112390D02*
X90037844Y-132255247D01*
X90037844Y-132255247D02*
X89990225Y-132445723D01*
X89990225Y-132445723D02*
X89942606Y-132540961D01*
X89942606Y-132540961D02*
X89847368Y-132636200D01*
X89847368Y-132636200D02*
X89704511Y-132683819D01*
X89704511Y-132683819D02*
X89466416Y-132683819D01*
X91037844Y-132588580D02*
X90990225Y-132636200D01*
X90990225Y-132636200D02*
X90847368Y-132683819D01*
X90847368Y-132683819D02*
X90752130Y-132683819D01*
X90752130Y-132683819D02*
X90609273Y-132636200D01*
X90609273Y-132636200D02*
X90514035Y-132540961D01*
X90514035Y-132540961D02*
X90466416Y-132445723D01*
X90466416Y-132445723D02*
X90418797Y-132255247D01*
X90418797Y-132255247D02*
X90418797Y-132112390D01*
X90418797Y-132112390D02*
X90466416Y-131921914D01*
X90466416Y-131921914D02*
X90514035Y-131826676D01*
X90514035Y-131826676D02*
X90609273Y-131731438D01*
X90609273Y-131731438D02*
X90752130Y-131683819D01*
X90752130Y-131683819D02*
X90847368Y-131683819D01*
X90847368Y-131683819D02*
X90990225Y-131731438D01*
X90990225Y-131731438D02*
X91037844Y-131779057D01*
X91418797Y-131779057D02*
X91466416Y-131731438D01*
X91466416Y-131731438D02*
X91561654Y-131683819D01*
X91561654Y-131683819D02*
X91799749Y-131683819D01*
X91799749Y-131683819D02*
X91894987Y-131731438D01*
X91894987Y-131731438D02*
X91942606Y-131779057D01*
X91942606Y-131779057D02*
X91990225Y-131874295D01*
X91990225Y-131874295D02*
X91990225Y-131969533D01*
X91990225Y-131969533D02*
X91942606Y-132112390D01*
X91942606Y-132112390D02*
X91371178Y-132683819D01*
X91371178Y-132683819D02*
X91990225Y-132683819D01*
X125353606Y-51057809D02*
X125496463Y-51105428D01*
X125496463Y-51105428D02*
X125544082Y-51153047D01*
X125544082Y-51153047D02*
X125591701Y-51248285D01*
X125591701Y-51248285D02*
X125591701Y-51391142D01*
X125591701Y-51391142D02*
X125544082Y-51486380D01*
X125544082Y-51486380D02*
X125496463Y-51534000D01*
X125496463Y-51534000D02*
X125401225Y-51581619D01*
X125401225Y-51581619D02*
X125020273Y-51581619D01*
X125020273Y-51581619D02*
X125020273Y-50581619D01*
X125020273Y-50581619D02*
X125353606Y-50581619D01*
X125353606Y-50581619D02*
X125448844Y-50629238D01*
X125448844Y-50629238D02*
X125496463Y-50676857D01*
X125496463Y-50676857D02*
X125544082Y-50772095D01*
X125544082Y-50772095D02*
X125544082Y-50867333D01*
X125544082Y-50867333D02*
X125496463Y-50962571D01*
X125496463Y-50962571D02*
X125448844Y-51010190D01*
X125448844Y-51010190D02*
X125353606Y-51057809D01*
X125353606Y-51057809D02*
X125020273Y-51057809D01*
X126020273Y-50581619D02*
X126020273Y-51391142D01*
X126020273Y-51391142D02*
X126067892Y-51486380D01*
X126067892Y-51486380D02*
X126115511Y-51534000D01*
X126115511Y-51534000D02*
X126210749Y-51581619D01*
X126210749Y-51581619D02*
X126401225Y-51581619D01*
X126401225Y-51581619D02*
X126496463Y-51534000D01*
X126496463Y-51534000D02*
X126544082Y-51486380D01*
X126544082Y-51486380D02*
X126591701Y-51391142D01*
X126591701Y-51391142D02*
X126591701Y-50581619D01*
X126925035Y-50581619D02*
X127496463Y-50581619D01*
X127210749Y-51581619D02*
X127210749Y-50581619D01*
X127686940Y-50581619D02*
X128258368Y-50581619D01*
X127972654Y-51581619D02*
X127972654Y-50581619D01*
X128782178Y-50581619D02*
X128972654Y-50581619D01*
X128972654Y-50581619D02*
X129067892Y-50629238D01*
X129067892Y-50629238D02*
X129163130Y-50724476D01*
X129163130Y-50724476D02*
X129210749Y-50914952D01*
X129210749Y-50914952D02*
X129210749Y-51248285D01*
X129210749Y-51248285D02*
X129163130Y-51438761D01*
X129163130Y-51438761D02*
X129067892Y-51534000D01*
X129067892Y-51534000D02*
X128972654Y-51581619D01*
X128972654Y-51581619D02*
X128782178Y-51581619D01*
X128782178Y-51581619D02*
X128686940Y-51534000D01*
X128686940Y-51534000D02*
X128591702Y-51438761D01*
X128591702Y-51438761D02*
X128544083Y-51248285D01*
X128544083Y-51248285D02*
X128544083Y-50914952D01*
X128544083Y-50914952D02*
X128591702Y-50724476D01*
X128591702Y-50724476D02*
X128686940Y-50629238D01*
X128686940Y-50629238D02*
X128782178Y-50581619D01*
X129639321Y-51581619D02*
X129639321Y-50581619D01*
X129639321Y-50581619D02*
X130210749Y-51581619D01*
X130210749Y-51581619D02*
X130210749Y-50581619D01*
X71701600Y-103309945D02*
X71749219Y-103167088D01*
X71749219Y-103167088D02*
X71749219Y-102928993D01*
X71749219Y-102928993D02*
X71701600Y-102833755D01*
X71701600Y-102833755D02*
X71653980Y-102786136D01*
X71653980Y-102786136D02*
X71558742Y-102738517D01*
X71558742Y-102738517D02*
X71463504Y-102738517D01*
X71463504Y-102738517D02*
X71368266Y-102786136D01*
X71368266Y-102786136D02*
X71320647Y-102833755D01*
X71320647Y-102833755D02*
X71273028Y-102928993D01*
X71273028Y-102928993D02*
X71225409Y-103119469D01*
X71225409Y-103119469D02*
X71177790Y-103214707D01*
X71177790Y-103214707D02*
X71130171Y-103262326D01*
X71130171Y-103262326D02*
X71034933Y-103309945D01*
X71034933Y-103309945D02*
X70939695Y-103309945D01*
X70939695Y-103309945D02*
X70844457Y-103262326D01*
X70844457Y-103262326D02*
X70796838Y-103214707D01*
X70796838Y-103214707D02*
X70749219Y-103119469D01*
X70749219Y-103119469D02*
X70749219Y-102881374D01*
X70749219Y-102881374D02*
X70796838Y-102738517D01*
X71225409Y-101976612D02*
X71273028Y-101833755D01*
X71273028Y-101833755D02*
X71320647Y-101786136D01*
X71320647Y-101786136D02*
X71415885Y-101738517D01*
X71415885Y-101738517D02*
X71558742Y-101738517D01*
X71558742Y-101738517D02*
X71653980Y-101786136D01*
X71653980Y-101786136D02*
X71701600Y-101833755D01*
X71701600Y-101833755D02*
X71749219Y-101928993D01*
X71749219Y-101928993D02*
X71749219Y-102309945D01*
X71749219Y-102309945D02*
X70749219Y-102309945D01*
X70749219Y-102309945D02*
X70749219Y-101976612D01*
X70749219Y-101976612D02*
X70796838Y-101881374D01*
X70796838Y-101881374D02*
X70844457Y-101833755D01*
X70844457Y-101833755D02*
X70939695Y-101786136D01*
X70939695Y-101786136D02*
X71034933Y-101786136D01*
X71034933Y-101786136D02*
X71130171Y-101833755D01*
X71130171Y-101833755D02*
X71177790Y-101881374D01*
X71177790Y-101881374D02*
X71225409Y-101976612D01*
X71225409Y-101976612D02*
X71225409Y-102309945D01*
X71749219Y-100786136D02*
X71749219Y-101357564D01*
X71749219Y-101071850D02*
X70749219Y-101071850D01*
X70749219Y-101071850D02*
X70892076Y-101167088D01*
X70892076Y-101167088D02*
X70987314Y-101262326D01*
X70987314Y-101262326D02*
X71034933Y-101357564D01*
X100327400Y-120607345D02*
X100375019Y-120464488D01*
X100375019Y-120464488D02*
X100375019Y-120226393D01*
X100375019Y-120226393D02*
X100327400Y-120131155D01*
X100327400Y-120131155D02*
X100279780Y-120083536D01*
X100279780Y-120083536D02*
X100184542Y-120035917D01*
X100184542Y-120035917D02*
X100089304Y-120035917D01*
X100089304Y-120035917D02*
X99994066Y-120083536D01*
X99994066Y-120083536D02*
X99946447Y-120131155D01*
X99946447Y-120131155D02*
X99898828Y-120226393D01*
X99898828Y-120226393D02*
X99851209Y-120416869D01*
X99851209Y-120416869D02*
X99803590Y-120512107D01*
X99803590Y-120512107D02*
X99755971Y-120559726D01*
X99755971Y-120559726D02*
X99660733Y-120607345D01*
X99660733Y-120607345D02*
X99565495Y-120607345D01*
X99565495Y-120607345D02*
X99470257Y-120559726D01*
X99470257Y-120559726D02*
X99422638Y-120512107D01*
X99422638Y-120512107D02*
X99375019Y-120416869D01*
X99375019Y-120416869D02*
X99375019Y-120178774D01*
X99375019Y-120178774D02*
X99422638Y-120035917D01*
X99851209Y-119274012D02*
X99898828Y-119131155D01*
X99898828Y-119131155D02*
X99946447Y-119083536D01*
X99946447Y-119083536D02*
X100041685Y-119035917D01*
X100041685Y-119035917D02*
X100184542Y-119035917D01*
X100184542Y-119035917D02*
X100279780Y-119083536D01*
X100279780Y-119083536D02*
X100327400Y-119131155D01*
X100327400Y-119131155D02*
X100375019Y-119226393D01*
X100375019Y-119226393D02*
X100375019Y-119607345D01*
X100375019Y-119607345D02*
X99375019Y-119607345D01*
X99375019Y-119607345D02*
X99375019Y-119274012D01*
X99375019Y-119274012D02*
X99422638Y-119178774D01*
X99422638Y-119178774D02*
X99470257Y-119131155D01*
X99470257Y-119131155D02*
X99565495Y-119083536D01*
X99565495Y-119083536D02*
X99660733Y-119083536D01*
X99660733Y-119083536D02*
X99755971Y-119131155D01*
X99755971Y-119131155D02*
X99803590Y-119178774D01*
X99803590Y-119178774D02*
X99851209Y-119274012D01*
X99851209Y-119274012D02*
X99851209Y-119607345D01*
X99470257Y-118654964D02*
X99422638Y-118607345D01*
X99422638Y-118607345D02*
X99375019Y-118512107D01*
X99375019Y-118512107D02*
X99375019Y-118274012D01*
X99375019Y-118274012D02*
X99422638Y-118178774D01*
X99422638Y-118178774D02*
X99470257Y-118131155D01*
X99470257Y-118131155D02*
X99565495Y-118083536D01*
X99565495Y-118083536D02*
X99660733Y-118083536D01*
X99660733Y-118083536D02*
X99803590Y-118131155D01*
X99803590Y-118131155D02*
X100375019Y-118702583D01*
X100375019Y-118702583D02*
X100375019Y-118083536D01*
X72585054Y-130594704D02*
X73061244Y-130594704D01*
X72489816Y-130880419D02*
X72823149Y-129880419D01*
X72823149Y-129880419D02*
X73156482Y-130880419D01*
X73489816Y-130880419D02*
X73489816Y-129880419D01*
X73489816Y-129880419D02*
X73727911Y-129880419D01*
X73727911Y-129880419D02*
X73870768Y-129928038D01*
X73870768Y-129928038D02*
X73966006Y-130023276D01*
X73966006Y-130023276D02*
X74013625Y-130118514D01*
X74013625Y-130118514D02*
X74061244Y-130308990D01*
X74061244Y-130308990D02*
X74061244Y-130451847D01*
X74061244Y-130451847D02*
X74013625Y-130642323D01*
X74013625Y-130642323D02*
X73966006Y-130737561D01*
X73966006Y-130737561D02*
X73870768Y-130832800D01*
X73870768Y-130832800D02*
X73727911Y-130880419D01*
X73727911Y-130880419D02*
X73489816Y-130880419D01*
X75061244Y-130785180D02*
X75013625Y-130832800D01*
X75013625Y-130832800D02*
X74870768Y-130880419D01*
X74870768Y-130880419D02*
X74775530Y-130880419D01*
X74775530Y-130880419D02*
X74632673Y-130832800D01*
X74632673Y-130832800D02*
X74537435Y-130737561D01*
X74537435Y-130737561D02*
X74489816Y-130642323D01*
X74489816Y-130642323D02*
X74442197Y-130451847D01*
X74442197Y-130451847D02*
X74442197Y-130308990D01*
X74442197Y-130308990D02*
X74489816Y-130118514D01*
X74489816Y-130118514D02*
X74537435Y-130023276D01*
X74537435Y-130023276D02*
X74632673Y-129928038D01*
X74632673Y-129928038D02*
X74775530Y-129880419D01*
X74775530Y-129880419D02*
X74870768Y-129880419D01*
X74870768Y-129880419D02*
X75013625Y-129928038D01*
X75013625Y-129928038D02*
X75061244Y-129975657D01*
X75394578Y-129880419D02*
X76013625Y-129880419D01*
X76013625Y-129880419D02*
X75680292Y-130261371D01*
X75680292Y-130261371D02*
X75823149Y-130261371D01*
X75823149Y-130261371D02*
X75918387Y-130308990D01*
X75918387Y-130308990D02*
X75966006Y-130356609D01*
X75966006Y-130356609D02*
X76013625Y-130451847D01*
X76013625Y-130451847D02*
X76013625Y-130689942D01*
X76013625Y-130689942D02*
X75966006Y-130785180D01*
X75966006Y-130785180D02*
X75918387Y-130832800D01*
X75918387Y-130832800D02*
X75823149Y-130880419D01*
X75823149Y-130880419D02*
X75537435Y-130880419D01*
X75537435Y-130880419D02*
X75442197Y-130832800D01*
X75442197Y-130832800D02*
X75394578Y-130785180D01*
X101572000Y-63965345D02*
X101619619Y-63822488D01*
X101619619Y-63822488D02*
X101619619Y-63584393D01*
X101619619Y-63584393D02*
X101572000Y-63489155D01*
X101572000Y-63489155D02*
X101524380Y-63441536D01*
X101524380Y-63441536D02*
X101429142Y-63393917D01*
X101429142Y-63393917D02*
X101333904Y-63393917D01*
X101333904Y-63393917D02*
X101238666Y-63441536D01*
X101238666Y-63441536D02*
X101191047Y-63489155D01*
X101191047Y-63489155D02*
X101143428Y-63584393D01*
X101143428Y-63584393D02*
X101095809Y-63774869D01*
X101095809Y-63774869D02*
X101048190Y-63870107D01*
X101048190Y-63870107D02*
X101000571Y-63917726D01*
X101000571Y-63917726D02*
X100905333Y-63965345D01*
X100905333Y-63965345D02*
X100810095Y-63965345D01*
X100810095Y-63965345D02*
X100714857Y-63917726D01*
X100714857Y-63917726D02*
X100667238Y-63870107D01*
X100667238Y-63870107D02*
X100619619Y-63774869D01*
X100619619Y-63774869D02*
X100619619Y-63536774D01*
X100619619Y-63536774D02*
X100667238Y-63393917D01*
X100619619Y-63060583D02*
X101619619Y-62822488D01*
X101619619Y-62822488D02*
X100905333Y-62632012D01*
X100905333Y-62632012D02*
X101619619Y-62441536D01*
X101619619Y-62441536D02*
X100619619Y-62203441D01*
X101619619Y-61822488D02*
X100619619Y-61822488D01*
X100619619Y-61822488D02*
X100619619Y-61584393D01*
X100619619Y-61584393D02*
X100667238Y-61441536D01*
X100667238Y-61441536D02*
X100762476Y-61346298D01*
X100762476Y-61346298D02*
X100857714Y-61298679D01*
X100857714Y-61298679D02*
X101048190Y-61251060D01*
X101048190Y-61251060D02*
X101191047Y-61251060D01*
X101191047Y-61251060D02*
X101381523Y-61298679D01*
X101381523Y-61298679D02*
X101476761Y-61346298D01*
X101476761Y-61346298D02*
X101572000Y-61441536D01*
X101572000Y-61441536D02*
X101619619Y-61584393D01*
X101619619Y-61584393D02*
X101619619Y-61822488D01*
X101619619Y-60822488D02*
X100619619Y-60822488D01*
X100619619Y-60155822D02*
X100619619Y-59965346D01*
X100619619Y-59965346D02*
X100667238Y-59870108D01*
X100667238Y-59870108D02*
X100762476Y-59774870D01*
X100762476Y-59774870D02*
X100952952Y-59727251D01*
X100952952Y-59727251D02*
X101286285Y-59727251D01*
X101286285Y-59727251D02*
X101476761Y-59774870D01*
X101476761Y-59774870D02*
X101572000Y-59870108D01*
X101572000Y-59870108D02*
X101619619Y-59965346D01*
X101619619Y-59965346D02*
X101619619Y-60155822D01*
X101619619Y-60155822D02*
X101572000Y-60251060D01*
X101572000Y-60251060D02*
X101476761Y-60346298D01*
X101476761Y-60346298D02*
X101286285Y-60393917D01*
X101286285Y-60393917D02*
X100952952Y-60393917D01*
X100952952Y-60393917D02*
X100762476Y-60346298D01*
X100762476Y-60346298D02*
X100667238Y-60251060D01*
X100667238Y-60251060D02*
X100619619Y-60155822D01*
X81585380Y-56996298D02*
X81633000Y-57043917D01*
X81633000Y-57043917D02*
X81680619Y-57186774D01*
X81680619Y-57186774D02*
X81680619Y-57282012D01*
X81680619Y-57282012D02*
X81633000Y-57424869D01*
X81633000Y-57424869D02*
X81537761Y-57520107D01*
X81537761Y-57520107D02*
X81442523Y-57567726D01*
X81442523Y-57567726D02*
X81252047Y-57615345D01*
X81252047Y-57615345D02*
X81109190Y-57615345D01*
X81109190Y-57615345D02*
X80918714Y-57567726D01*
X80918714Y-57567726D02*
X80823476Y-57520107D01*
X80823476Y-57520107D02*
X80728238Y-57424869D01*
X80728238Y-57424869D02*
X80680619Y-57282012D01*
X80680619Y-57282012D02*
X80680619Y-57186774D01*
X80680619Y-57186774D02*
X80728238Y-57043917D01*
X80728238Y-57043917D02*
X80775857Y-56996298D01*
X81585380Y-55996298D02*
X81633000Y-56043917D01*
X81633000Y-56043917D02*
X81680619Y-56186774D01*
X81680619Y-56186774D02*
X81680619Y-56282012D01*
X81680619Y-56282012D02*
X81633000Y-56424869D01*
X81633000Y-56424869D02*
X81537761Y-56520107D01*
X81537761Y-56520107D02*
X81442523Y-56567726D01*
X81442523Y-56567726D02*
X81252047Y-56615345D01*
X81252047Y-56615345D02*
X81109190Y-56615345D01*
X81109190Y-56615345D02*
X80918714Y-56567726D01*
X80918714Y-56567726D02*
X80823476Y-56520107D01*
X80823476Y-56520107D02*
X80728238Y-56424869D01*
X80728238Y-56424869D02*
X80680619Y-56282012D01*
X80680619Y-56282012D02*
X80680619Y-56186774D01*
X80680619Y-56186774D02*
X80728238Y-56043917D01*
X80728238Y-56043917D02*
X80775857Y-55996298D01*
X80775857Y-55615345D02*
X80728238Y-55567726D01*
X80728238Y-55567726D02*
X80680619Y-55472488D01*
X80680619Y-55472488D02*
X80680619Y-55234393D01*
X80680619Y-55234393D02*
X80728238Y-55139155D01*
X80728238Y-55139155D02*
X80775857Y-55091536D01*
X80775857Y-55091536D02*
X80871095Y-55043917D01*
X80871095Y-55043917D02*
X80966333Y-55043917D01*
X80966333Y-55043917D02*
X81109190Y-55091536D01*
X81109190Y-55091536D02*
X81680619Y-55662964D01*
X81680619Y-55662964D02*
X81680619Y-55043917D01*
X59773863Y-63214819D02*
X59297673Y-63214819D01*
X59297673Y-63214819D02*
X59297673Y-62214819D01*
X60107197Y-63214819D02*
X60107197Y-62214819D01*
X60107197Y-62214819D02*
X60345292Y-62214819D01*
X60345292Y-62214819D02*
X60488149Y-62262438D01*
X60488149Y-62262438D02*
X60583387Y-62357676D01*
X60583387Y-62357676D02*
X60631006Y-62452914D01*
X60631006Y-62452914D02*
X60678625Y-62643390D01*
X60678625Y-62643390D02*
X60678625Y-62786247D01*
X60678625Y-62786247D02*
X60631006Y-62976723D01*
X60631006Y-62976723D02*
X60583387Y-63071961D01*
X60583387Y-63071961D02*
X60488149Y-63167200D01*
X60488149Y-63167200D02*
X60345292Y-63214819D01*
X60345292Y-63214819D02*
X60107197Y-63214819D01*
X61297673Y-62214819D02*
X61488149Y-62214819D01*
X61488149Y-62214819D02*
X61583387Y-62262438D01*
X61583387Y-62262438D02*
X61678625Y-62357676D01*
X61678625Y-62357676D02*
X61726244Y-62548152D01*
X61726244Y-62548152D02*
X61726244Y-62881485D01*
X61726244Y-62881485D02*
X61678625Y-63071961D01*
X61678625Y-63071961D02*
X61583387Y-63167200D01*
X61583387Y-63167200D02*
X61488149Y-63214819D01*
X61488149Y-63214819D02*
X61297673Y-63214819D01*
X61297673Y-63214819D02*
X61202435Y-63167200D01*
X61202435Y-63167200D02*
X61107197Y-63071961D01*
X61107197Y-63071961D02*
X61059578Y-62881485D01*
X61059578Y-62881485D02*
X61059578Y-62548152D01*
X61059578Y-62548152D02*
X61107197Y-62357676D01*
X61107197Y-62357676D02*
X61202435Y-62262438D01*
X61202435Y-62262438D02*
X61297673Y-62214819D01*
X118136701Y-51683219D02*
X117803368Y-51207028D01*
X117565273Y-51683219D02*
X117565273Y-50683219D01*
X117565273Y-50683219D02*
X117946225Y-50683219D01*
X117946225Y-50683219D02*
X118041463Y-50730838D01*
X118041463Y-50730838D02*
X118089082Y-50778457D01*
X118089082Y-50778457D02*
X118136701Y-50873695D01*
X118136701Y-50873695D02*
X118136701Y-51016552D01*
X118136701Y-51016552D02*
X118089082Y-51111790D01*
X118089082Y-51111790D02*
X118041463Y-51159409D01*
X118041463Y-51159409D02*
X117946225Y-51207028D01*
X117946225Y-51207028D02*
X117565273Y-51207028D01*
X118565273Y-51159409D02*
X118898606Y-51159409D01*
X119041463Y-51683219D02*
X118565273Y-51683219D01*
X118565273Y-51683219D02*
X118565273Y-50683219D01*
X118565273Y-50683219D02*
X119041463Y-50683219D01*
X119422416Y-51635600D02*
X119565273Y-51683219D01*
X119565273Y-51683219D02*
X119803368Y-51683219D01*
X119803368Y-51683219D02*
X119898606Y-51635600D01*
X119898606Y-51635600D02*
X119946225Y-51587980D01*
X119946225Y-51587980D02*
X119993844Y-51492742D01*
X119993844Y-51492742D02*
X119993844Y-51397504D01*
X119993844Y-51397504D02*
X119946225Y-51302266D01*
X119946225Y-51302266D02*
X119898606Y-51254647D01*
X119898606Y-51254647D02*
X119803368Y-51207028D01*
X119803368Y-51207028D02*
X119612892Y-51159409D01*
X119612892Y-51159409D02*
X119517654Y-51111790D01*
X119517654Y-51111790D02*
X119470035Y-51064171D01*
X119470035Y-51064171D02*
X119422416Y-50968933D01*
X119422416Y-50968933D02*
X119422416Y-50873695D01*
X119422416Y-50873695D02*
X119470035Y-50778457D01*
X119470035Y-50778457D02*
X119517654Y-50730838D01*
X119517654Y-50730838D02*
X119612892Y-50683219D01*
X119612892Y-50683219D02*
X119850987Y-50683219D01*
X119850987Y-50683219D02*
X119993844Y-50730838D01*
X120422416Y-51159409D02*
X120755749Y-51159409D01*
X120898606Y-51683219D02*
X120422416Y-51683219D01*
X120422416Y-51683219D02*
X120422416Y-50683219D01*
X120422416Y-50683219D02*
X120898606Y-50683219D01*
X121184321Y-50683219D02*
X121755749Y-50683219D01*
X121470035Y-51683219D02*
X121470035Y-50683219D01*
X117427178Y-50405600D02*
X121750988Y-50405600D01*
X59246873Y-65932619D02*
X59246873Y-64932619D01*
X59246873Y-65408809D02*
X59818301Y-65408809D01*
X59818301Y-65932619D02*
X59818301Y-64932619D01*
X60865920Y-65932619D02*
X60532587Y-65456428D01*
X60294492Y-65932619D02*
X60294492Y-64932619D01*
X60294492Y-64932619D02*
X60675444Y-64932619D01*
X60675444Y-64932619D02*
X60770682Y-64980238D01*
X60770682Y-64980238D02*
X60818301Y-65027857D01*
X60818301Y-65027857D02*
X60865920Y-65123095D01*
X60865920Y-65123095D02*
X60865920Y-65265952D01*
X60865920Y-65265952D02*
X60818301Y-65361190D01*
X60818301Y-65361190D02*
X60770682Y-65408809D01*
X60770682Y-65408809D02*
X60675444Y-65456428D01*
X60675444Y-65456428D02*
X60294492Y-65456428D01*
X61246873Y-65885000D02*
X61389730Y-65932619D01*
X61389730Y-65932619D02*
X61627825Y-65932619D01*
X61627825Y-65932619D02*
X61723063Y-65885000D01*
X61723063Y-65885000D02*
X61770682Y-65837380D01*
X61770682Y-65837380D02*
X61818301Y-65742142D01*
X61818301Y-65742142D02*
X61818301Y-65646904D01*
X61818301Y-65646904D02*
X61770682Y-65551666D01*
X61770682Y-65551666D02*
X61723063Y-65504047D01*
X61723063Y-65504047D02*
X61627825Y-65456428D01*
X61627825Y-65456428D02*
X61437349Y-65408809D01*
X61437349Y-65408809D02*
X61342111Y-65361190D01*
X61342111Y-65361190D02*
X61294492Y-65313571D01*
X61294492Y-65313571D02*
X61246873Y-65218333D01*
X61246873Y-65218333D02*
X61246873Y-65123095D01*
X61246873Y-65123095D02*
X61294492Y-65027857D01*
X61294492Y-65027857D02*
X61342111Y-64980238D01*
X61342111Y-64980238D02*
X61437349Y-64932619D01*
X61437349Y-64932619D02*
X61675444Y-64932619D01*
X61675444Y-64932619D02*
X61818301Y-64980238D01*
X121101419Y-67429336D02*
X121101419Y-67905526D01*
X121101419Y-67905526D02*
X120101419Y-67905526D01*
X120577609Y-67096002D02*
X120577609Y-66762669D01*
X121101419Y-66619812D02*
X121101419Y-67096002D01*
X121101419Y-67096002D02*
X120101419Y-67096002D01*
X120101419Y-67096002D02*
X120101419Y-66619812D01*
X121101419Y-66191240D02*
X120101419Y-66191240D01*
X120101419Y-66191240D02*
X120101419Y-65953145D01*
X120101419Y-65953145D02*
X120149038Y-65810288D01*
X120149038Y-65810288D02*
X120244276Y-65715050D01*
X120244276Y-65715050D02*
X120339514Y-65667431D01*
X120339514Y-65667431D02*
X120529990Y-65619812D01*
X120529990Y-65619812D02*
X120672847Y-65619812D01*
X120672847Y-65619812D02*
X120863323Y-65667431D01*
X120863323Y-65667431D02*
X120958561Y-65715050D01*
X120958561Y-65715050D02*
X121053800Y-65810288D01*
X121053800Y-65810288D02*
X121101419Y-65953145D01*
X121101419Y-65953145D02*
X121101419Y-66191240D01*
X121101419Y-64667431D02*
X121101419Y-65238859D01*
X121101419Y-64953145D02*
X120101419Y-64953145D01*
X120101419Y-64953145D02*
X120244276Y-65048383D01*
X120244276Y-65048383D02*
X120339514Y-65143621D01*
X120339514Y-65143621D02*
X120387133Y-65238859D01*
X99340701Y-53873980D02*
X99293082Y-53921600D01*
X99293082Y-53921600D02*
X99150225Y-53969219D01*
X99150225Y-53969219D02*
X99054987Y-53969219D01*
X99054987Y-53969219D02*
X98912130Y-53921600D01*
X98912130Y-53921600D02*
X98816892Y-53826361D01*
X98816892Y-53826361D02*
X98769273Y-53731123D01*
X98769273Y-53731123D02*
X98721654Y-53540647D01*
X98721654Y-53540647D02*
X98721654Y-53397790D01*
X98721654Y-53397790D02*
X98769273Y-53207314D01*
X98769273Y-53207314D02*
X98816892Y-53112076D01*
X98816892Y-53112076D02*
X98912130Y-53016838D01*
X98912130Y-53016838D02*
X99054987Y-52969219D01*
X99054987Y-52969219D02*
X99150225Y-52969219D01*
X99150225Y-52969219D02*
X99293082Y-53016838D01*
X99293082Y-53016838D02*
X99340701Y-53064457D01*
X100340701Y-53873980D02*
X100293082Y-53921600D01*
X100293082Y-53921600D02*
X100150225Y-53969219D01*
X100150225Y-53969219D02*
X100054987Y-53969219D01*
X100054987Y-53969219D02*
X99912130Y-53921600D01*
X99912130Y-53921600D02*
X99816892Y-53826361D01*
X99816892Y-53826361D02*
X99769273Y-53731123D01*
X99769273Y-53731123D02*
X99721654Y-53540647D01*
X99721654Y-53540647D02*
X99721654Y-53397790D01*
X99721654Y-53397790D02*
X99769273Y-53207314D01*
X99769273Y-53207314D02*
X99816892Y-53112076D01*
X99816892Y-53112076D02*
X99912130Y-53016838D01*
X99912130Y-53016838D02*
X100054987Y-52969219D01*
X100054987Y-52969219D02*
X100150225Y-52969219D01*
X100150225Y-52969219D02*
X100293082Y-53016838D01*
X100293082Y-53016838D02*
X100340701Y-53064457D01*
X101293082Y-53969219D02*
X100721654Y-53969219D01*
X101007368Y-53969219D02*
X101007368Y-52969219D01*
X101007368Y-52969219D02*
X100912130Y-53112076D01*
X100912130Y-53112076D02*
X100816892Y-53207314D01*
X100816892Y-53207314D02*
X100721654Y-53254933D01*
X134291101Y-121463380D02*
X134243482Y-121511000D01*
X134243482Y-121511000D02*
X134100625Y-121558619D01*
X134100625Y-121558619D02*
X134005387Y-121558619D01*
X134005387Y-121558619D02*
X133862530Y-121511000D01*
X133862530Y-121511000D02*
X133767292Y-121415761D01*
X133767292Y-121415761D02*
X133719673Y-121320523D01*
X133719673Y-121320523D02*
X133672054Y-121130047D01*
X133672054Y-121130047D02*
X133672054Y-120987190D01*
X133672054Y-120987190D02*
X133719673Y-120796714D01*
X133719673Y-120796714D02*
X133767292Y-120701476D01*
X133767292Y-120701476D02*
X133862530Y-120606238D01*
X133862530Y-120606238D02*
X134005387Y-120558619D01*
X134005387Y-120558619D02*
X134100625Y-120558619D01*
X134100625Y-120558619D02*
X134243482Y-120606238D01*
X134243482Y-120606238D02*
X134291101Y-120653857D01*
X134719673Y-121558619D02*
X134719673Y-120558619D01*
X134719673Y-120558619D02*
X134957768Y-120558619D01*
X134957768Y-120558619D02*
X135100625Y-120606238D01*
X135100625Y-120606238D02*
X135195863Y-120701476D01*
X135195863Y-120701476D02*
X135243482Y-120796714D01*
X135243482Y-120796714D02*
X135291101Y-120987190D01*
X135291101Y-120987190D02*
X135291101Y-121130047D01*
X135291101Y-121130047D02*
X135243482Y-121320523D01*
X135243482Y-121320523D02*
X135195863Y-121415761D01*
X135195863Y-121415761D02*
X135100625Y-121511000D01*
X135100625Y-121511000D02*
X134957768Y-121558619D01*
X134957768Y-121558619D02*
X134719673Y-121558619D01*
D11*
%TO.C,U201*%
X71890000Y-76890000D02*
X72840000Y-76890000D01*
X71890000Y-77840000D02*
X71890000Y-76890000D01*
X71890000Y-97110000D02*
X71890000Y-96160000D01*
X72840000Y-97110000D02*
X71890000Y-97110000D01*
X91160000Y-76890000D02*
X92110000Y-76890000D01*
X92110000Y-76890000D02*
X92110000Y-77840000D01*
X92110000Y-96160000D02*
X92110000Y-97110000D01*
X92110000Y-97110000D02*
X91160000Y-97110000D01*
X71250000Y-77840000D02*
X70910000Y-77370000D01*
X71590000Y-77370000D01*
X71250000Y-77840000D01*
G36*
X71250000Y-77840000D02*
G01*
X70910000Y-77370000D01*
X71590000Y-77370000D01*
X71250000Y-77840000D01*
G37*
%TO.C,J601*%
X86735000Y-128040000D02*
X86735000Y-125140000D01*
X88640000Y-123235000D02*
X91540000Y-123235000D01*
X88640000Y-129945000D02*
X91540000Y-129945000D01*
X93445000Y-128040000D02*
X93445000Y-125140000D01*
%TO.C,J201*%
X112904000Y-53805000D02*
X112904000Y-54440000D01*
X112904000Y-54440000D02*
X112269000Y-54440000D01*
%TO.C,R604*%
X102187500Y-129317742D02*
X102187500Y-129792258D01*
X103232500Y-129317742D02*
X103232500Y-129792258D01*
%TO.C,C617*%
X79609664Y-113970000D02*
X79825336Y-113970000D01*
X79609664Y-114690000D02*
X79825336Y-114690000D01*
%TO.C,C211*%
X90840000Y-99512164D02*
X90840000Y-99727836D01*
X91560000Y-99512164D02*
X91560000Y-99727836D01*
%TO.C,TP701*%
X49946200Y-90643400D02*
G75*
G02*
X49146200Y-90643400I-400000J0D01*
G01*
X49146200Y-90643400D02*
G75*
G02*
X49946200Y-90643400I400000J0D01*
G01*
%TO.C,R1009*%
X96522742Y-112467500D02*
X96997258Y-112467500D01*
X96522742Y-113512500D02*
X96997258Y-113512500D01*
%TO.C,C612*%
X94880000Y-124506267D02*
X94880000Y-124213733D01*
X95900000Y-124506267D02*
X95900000Y-124213733D01*
%TO.C,C804*%
X80862836Y-52280000D02*
X80647164Y-52280000D01*
X80862836Y-53000000D02*
X80647164Y-53000000D01*
%TO.C,U202*%
X104162000Y-51038000D02*
X105982000Y-51038000D01*
X104162000Y-51088000D02*
X104162000Y-51038000D01*
X104162000Y-54158000D02*
X104162000Y-54108000D01*
X105982000Y-51038000D02*
X105982000Y-51088000D01*
X105982000Y-54108000D02*
X105982000Y-54158000D01*
X105982000Y-54158000D02*
X104162000Y-54158000D01*
X103622000Y-51088000D02*
X103382000Y-50758000D01*
X103862000Y-50758000D01*
X103622000Y-51088000D01*
G36*
X103622000Y-51088000D02*
G01*
X103382000Y-50758000D01*
X103862000Y-50758000D01*
X103622000Y-51088000D01*
G37*
%TO.C,R209*%
X128810000Y-64548859D02*
X128810000Y-64856141D01*
X129570000Y-64548859D02*
X129570000Y-64856141D01*
%TO.C,C223*%
X66421252Y-95555000D02*
X65898748Y-95555000D01*
X66421252Y-97025000D02*
X65898748Y-97025000D01*
%TO.C,C208*%
X93877500Y-90279664D02*
X93877500Y-90495336D01*
X94597500Y-90279664D02*
X94597500Y-90495336D01*
%TO.C,C604*%
X83134400Y-117647436D02*
X83134400Y-117431764D01*
X83854400Y-117647436D02*
X83854400Y-117431764D01*
D12*
%TO.C,SW201*%
X117250000Y-55050000D02*
X121250000Y-55050000D01*
X117250000Y-55280000D02*
X117250000Y-55050000D01*
X117250000Y-57950000D02*
X117250000Y-57720000D01*
X121250000Y-55050000D02*
X121250000Y-55280000D01*
X121250000Y-57950000D02*
X117250000Y-57950000D01*
X121250000Y-57950000D02*
X121250000Y-57720000D01*
D11*
%TO.C,C1227*%
X62890000Y-89232164D02*
X62890000Y-89447836D01*
X63610000Y-89232164D02*
X63610000Y-89447836D01*
%TO.C,C209*%
X93915000Y-84724664D02*
X93915000Y-84940336D01*
X94635000Y-84724664D02*
X94635000Y-84940336D01*
%TO.C,R620*%
X97064724Y-107457500D02*
X96555276Y-107457500D01*
X97064724Y-108502500D02*
X96555276Y-108502500D01*
%TO.C,R206*%
X122880000Y-64708859D02*
X122880000Y-65016141D01*
X123640000Y-64708859D02*
X123640000Y-65016141D01*
%TO.C,C309*%
X133460000Y-96177836D02*
X133460000Y-95962164D01*
X134180000Y-96177836D02*
X134180000Y-95962164D01*
%TO.C,C614*%
X70131233Y-118870000D02*
X70423767Y-118870000D01*
X70131233Y-119890000D02*
X70423767Y-119890000D01*
%TO.C,R1001*%
X87445724Y-107221500D02*
X86936276Y-107221500D01*
X87445724Y-108266500D02*
X86936276Y-108266500D01*
D13*
%TO.C,J602*%
X81962500Y-104905000D02*
X81962500Y-105444000D01*
X81962500Y-106906000D02*
X81962500Y-105444000D01*
X81962500Y-106906000D02*
X81962500Y-107445000D01*
X81962500Y-107445000D02*
X82029000Y-107445000D01*
X82029000Y-104905000D02*
X81962500Y-104905000D01*
X84691000Y-107445000D02*
X84757500Y-107445000D01*
X84757500Y-104905000D02*
X84691000Y-104905000D01*
X84757500Y-105444000D02*
X84757500Y-104905000D01*
X84757500Y-107445000D02*
X84757500Y-106906000D01*
X83928000Y-106175000D02*
G75*
G02*
X82792000Y-106175000I-568000J0D01*
G01*
X82792000Y-106175000D02*
G75*
G02*
X83928000Y-106175000I568000J0D01*
G01*
D11*
%TO.C,TP404*%
X75752600Y-57217000D02*
G75*
G02*
X74952600Y-57217000I-400000J0D01*
G01*
X74952600Y-57217000D02*
G75*
G02*
X75752600Y-57217000I400000J0D01*
G01*
%TO.C,C215*%
X75493748Y-100957500D02*
X76016252Y-100957500D01*
X75493748Y-102427500D02*
X76016252Y-102427500D01*
%TO.C,R810*%
X91422258Y-60837500D02*
X90947742Y-60837500D01*
X91422258Y-61882500D02*
X90947742Y-61882500D01*
%TO.C,C304*%
X114372164Y-87440000D02*
X114587836Y-87440000D01*
X114372164Y-88160000D02*
X114587836Y-88160000D01*
%TO.C,R214*%
X109037742Y-57177500D02*
X109512258Y-57177500D01*
X109037742Y-58222500D02*
X109512258Y-58222500D01*
%TO.C,C218*%
X69492836Y-93335000D02*
X69277164Y-93335000D01*
X69492836Y-94055000D02*
X69277164Y-94055000D01*
%TO.C,C1016*%
X86263733Y-114600000D02*
X86556267Y-114600000D01*
X86263733Y-115620000D02*
X86556267Y-115620000D01*
D10*
%TO.C,J401*%
X114500000Y-110850000D02*
X114500000Y-110850000D01*
X114700000Y-110860000D02*
X114700000Y-110860000D01*
D14*
X115750000Y-109650000D02*
X115750000Y-106650000D01*
X118000000Y-120550000D02*
X124500000Y-120550000D01*
X124500000Y-105750000D02*
X118000000Y-105750000D01*
X128000000Y-120550000D02*
X130250000Y-120550000D01*
X130250000Y-105750000D02*
X128500000Y-105750000D01*
X130250000Y-120550000D02*
X130250000Y-105750000D01*
D10*
X114500000Y-110850000D02*
G75*
G02*
X114700000Y-110850000I100000J0D01*
G01*
X114700000Y-110850000D02*
G75*
G02*
X114500000Y-110850000I-100000J0D01*
G01*
D11*
%TO.C,C601*%
X102690000Y-124242836D02*
X102690000Y-124027164D01*
X103410000Y-124242836D02*
X103410000Y-124027164D01*
%TO.C,TP202*%
X65606200Y-100046200D02*
G75*
G02*
X64806200Y-100046200I-400000J0D01*
G01*
X64806200Y-100046200D02*
G75*
G02*
X65606200Y-100046200I400000J0D01*
G01*
%TO.C,R616*%
X74837500Y-118477621D02*
X74837500Y-118142379D01*
X75597500Y-118477621D02*
X75597500Y-118142379D01*
%TO.C,C1101*%
X113710000Y-77117836D02*
X113710000Y-76902164D01*
X114430000Y-77117836D02*
X114430000Y-76902164D01*
%TO.C,Y1201*%
X63840000Y-87690000D02*
X63840000Y-91110000D01*
X63840000Y-91110000D02*
X67960000Y-91110000D01*
%TO.C,R614*%
X77325000Y-108202742D02*
X77325000Y-108677258D01*
X78370000Y-108202742D02*
X78370000Y-108677258D01*
%TO.C,R208*%
X119912258Y-53377500D02*
X119437742Y-53377500D01*
X119912258Y-54422500D02*
X119437742Y-54422500D01*
%TO.C,R606*%
X100577500Y-132397742D02*
X100577500Y-132872258D01*
X101622500Y-132397742D02*
X101622500Y-132872258D01*
%TO.C,D703*%
X74397500Y-65100000D02*
X70537500Y-65100000D01*
X74397500Y-67100000D02*
X70537500Y-67100000D01*
X74397500Y-67100000D02*
X74397500Y-65100000D01*
%TO.C,C210*%
X84804664Y-74025000D02*
X85020336Y-74025000D01*
X84804664Y-74745000D02*
X85020336Y-74745000D01*
%TO.C,C204*%
X69507836Y-80640000D02*
X69292164Y-80640000D01*
X69507836Y-81360000D02*
X69292164Y-81360000D01*
D13*
%TO.C,J1001*%
X99283500Y-105232000D02*
X99283500Y-105771000D01*
X99283500Y-107233000D02*
X99283500Y-107772000D01*
X99283500Y-107772000D02*
X99350000Y-107772000D01*
X99350000Y-105232000D02*
X99283500Y-105232000D01*
X102012000Y-107772000D02*
X102078500Y-107772000D01*
X102078500Y-105232000D02*
X102012000Y-105232000D01*
X102078500Y-105771000D02*
X102078500Y-105232000D01*
X102078500Y-105771000D02*
X102078500Y-107233000D01*
X102078500Y-107772000D02*
X102078500Y-107233000D01*
X101249000Y-106502000D02*
G75*
G02*
X100113000Y-106502000I-568000J0D01*
G01*
X100113000Y-106502000D02*
G75*
G02*
X101249000Y-106502000I568000J0D01*
G01*
D11*
%TO.C,RN707*%
X133500000Y-112120000D02*
X132500000Y-112120000D01*
X133500000Y-115480000D02*
X132500000Y-115480000D01*
%TO.C,C214*%
X73992836Y-98755000D02*
X73777164Y-98755000D01*
X73992836Y-99475000D02*
X73777164Y-99475000D01*
%TO.C,TP402*%
X81875800Y-50922600D02*
G75*
G02*
X81075800Y-50922600I-400000J0D01*
G01*
X81075800Y-50922600D02*
G75*
G02*
X81875800Y-50922600I400000J0D01*
G01*
%TO.C,R805*%
X94601258Y-51234500D02*
X94126742Y-51234500D01*
X94601258Y-52279500D02*
X94126742Y-52279500D01*
%TO.C,JP202*%
X67726200Y-98046600D02*
X70526200Y-98046600D01*
X67726200Y-100046600D02*
X67726200Y-98046600D01*
X70526200Y-98046600D02*
X70526200Y-100046600D01*
X70526200Y-100046600D02*
X67726200Y-100046600D01*
%TO.C,C618*%
X79609664Y-114970000D02*
X79825336Y-114970000D01*
X79609664Y-115690000D02*
X79825336Y-115690000D01*
%TO.C,R216*%
X120828641Y-58320000D02*
X120521359Y-58320000D01*
X120828641Y-59080000D02*
X120521359Y-59080000D01*
%TO.C,C1107*%
X107304420Y-100295000D02*
X107585580Y-100295000D01*
X107304420Y-101315000D02*
X107585580Y-101315000D01*
%TO.C,R1024*%
X86172742Y-112817500D02*
X86647258Y-112817500D01*
X86172742Y-113862500D02*
X86647258Y-113862500D01*
%TO.C,TP401*%
X132978800Y-120971000D02*
G75*
G02*
X132178800Y-120971000I-400000J0D01*
G01*
X132178800Y-120971000D02*
G75*
G02*
X132978800Y-120971000I400000J0D01*
G01*
%TO.C,R618*%
X72355000Y-108242742D02*
X72355000Y-108717258D01*
X73400000Y-108242742D02*
X73400000Y-108717258D01*
%TO.C,TP403*%
X98072000Y-53490000D02*
G75*
G02*
X97272000Y-53490000I-400000J0D01*
G01*
X97272000Y-53490000D02*
G75*
G02*
X98072000Y-53490000I400000J0D01*
G01*
%TO.C,R628*%
X96937258Y-109147500D02*
X96462742Y-109147500D01*
X96937258Y-110192500D02*
X96462742Y-110192500D01*
%TO.C,C1012*%
X96763733Y-114470000D02*
X97056267Y-114470000D01*
X96763733Y-115490000D02*
X97056267Y-115490000D01*
%TO.C,R1006*%
X98017258Y-122987500D02*
X97542742Y-122987500D01*
X98017258Y-124032500D02*
X97542742Y-124032500D01*
%TO.C,R215*%
X113112258Y-57177500D02*
X112637742Y-57177500D01*
X113112258Y-58222500D02*
X112637742Y-58222500D01*
%TO.C,R629*%
X86592742Y-109097500D02*
X87067258Y-109097500D01*
X86592742Y-110142500D02*
X87067258Y-110142500D01*
%TO.C,C217*%
X126307836Y-53415000D02*
X126092164Y-53415000D01*
X126307836Y-54135000D02*
X126092164Y-54135000D01*
%TO.C,C207*%
X69450000Y-92337836D02*
X69450000Y-92122164D01*
X70170000Y-92337836D02*
X70170000Y-92122164D01*
%TO.C,R210*%
X127153641Y-60595000D02*
X126846359Y-60595000D01*
X127153641Y-61355000D02*
X126846359Y-61355000D01*
%TO.C,C307*%
X118897836Y-93900000D02*
X118682164Y-93900000D01*
X118897836Y-94620000D02*
X118682164Y-94620000D01*
%TO.C,R602*%
X106927500Y-123472742D02*
X106927500Y-123947258D01*
X107972500Y-123472742D02*
X107972500Y-123947258D01*
%TO.C,D201*%
X122525000Y-66055000D02*
X122525000Y-68340000D01*
X123995000Y-66055000D02*
X122525000Y-66055000D01*
X123995000Y-68340000D02*
X123995000Y-66055000D01*
%TO.C,C813*%
X70995000Y-75400336D02*
X70995000Y-75184664D01*
X71715000Y-75400336D02*
X71715000Y-75184664D01*
%TO.C,R627*%
X86397258Y-118887500D02*
X85922742Y-118887500D01*
X86397258Y-119932500D02*
X85922742Y-119932500D01*
%TO.C,R608*%
X81735242Y-120237500D02*
X82209758Y-120237500D01*
X81735242Y-121282500D02*
X82209758Y-121282500D01*
%TO.C,U301*%
X101500000Y-76879600D02*
X101500000Y-76479600D01*
X101500000Y-99079600D02*
X101500000Y-98679600D01*
X112100000Y-76479600D02*
X101500000Y-76479600D01*
X112100000Y-76879600D02*
X112100000Y-76479600D01*
X112100000Y-98679600D02*
X112100000Y-99079600D01*
X112100000Y-99079600D02*
X101500000Y-99079600D01*
X112740000Y-99009600D02*
X112260000Y-99009600D01*
X112500000Y-98679600D01*
X112740000Y-99009600D01*
G36*
X112740000Y-99009600D02*
G01*
X112260000Y-99009600D01*
X112500000Y-98679600D01*
X112740000Y-99009600D01*
G37*
%TO.C,C619*%
X91707836Y-114390000D02*
X91492164Y-114390000D01*
X91707836Y-115110000D02*
X91492164Y-115110000D01*
%TO.C,R615*%
X77205000Y-111332742D02*
X77205000Y-111807258D01*
X78250000Y-111332742D02*
X78250000Y-111807258D01*
%TO.C,D602*%
X71702500Y-59365000D02*
X71702500Y-60835000D01*
X71702500Y-60835000D02*
X73987500Y-60835000D01*
X73987500Y-59365000D02*
X71702500Y-59365000D01*
%TO.C,J202*%
X102995000Y-58920000D02*
X118455000Y-58920000D01*
X102995000Y-61570000D02*
X102995000Y-58920000D01*
X102995000Y-64220000D02*
X102995000Y-62840000D01*
X104375000Y-64220000D02*
X102995000Y-64220000D01*
X105645000Y-61570000D02*
X102995000Y-61570000D01*
X105645000Y-64220000D02*
X105645000Y-61570000D01*
X105645000Y-64220000D02*
X118455000Y-64220000D01*
X118455000Y-64220000D02*
X118455000Y-58920000D01*
%TO.C,C1103*%
X113730000Y-96617836D02*
X113730000Y-96402164D01*
X114450000Y-96617836D02*
X114450000Y-96402164D01*
%TO.C,C608*%
X84153000Y-117635836D02*
X84153000Y-117420164D01*
X84873000Y-117635836D02*
X84873000Y-117420164D01*
%TO.C,C610*%
X79007500Y-120996267D02*
X79007500Y-120703733D01*
X80027500Y-120996267D02*
X80027500Y-120703733D01*
%TO.C,R1201*%
X69032379Y-88620000D02*
X69367621Y-88620000D01*
X69032379Y-89380000D02*
X69367621Y-89380000D01*
D12*
%TO.C,SW602*%
X125550000Y-55300000D02*
X125780000Y-55300000D01*
X125550000Y-59300000D02*
X125550000Y-55300000D01*
X125550000Y-59300000D02*
X125780000Y-59300000D01*
X128220000Y-55300000D02*
X128450000Y-55300000D01*
X128450000Y-55300000D02*
X128450000Y-59300000D01*
X128450000Y-59300000D02*
X128220000Y-59300000D01*
D11*
%TO.C,C310*%
X133510000Y-91377836D02*
X133510000Y-91162164D01*
X134230000Y-91377836D02*
X134230000Y-91162164D01*
%TO.C,C305*%
X133440000Y-98282164D02*
X133440000Y-98497836D01*
X134160000Y-98282164D02*
X134160000Y-98497836D01*
%TO.C,R601*%
X99037500Y-128932742D02*
X99037500Y-129407258D01*
X100082500Y-128932742D02*
X100082500Y-129407258D01*
%TO.C,C219*%
X66421252Y-93555000D02*
X65898748Y-93555000D01*
X66421252Y-95025000D02*
X65898748Y-95025000D01*
%TO.C,J501*%
X52410000Y-77730000D02*
X54480000Y-77730000D01*
X52410000Y-77890000D02*
X52410000Y-77730000D01*
X52410000Y-95470000D02*
X52410000Y-95310000D01*
X54480000Y-77730000D02*
X54480000Y-77890000D01*
X54480000Y-95310000D02*
X54480000Y-95470000D01*
X54480000Y-95470000D02*
X52410000Y-95470000D01*
X55470000Y-78800000D02*
X55845000Y-79016506D01*
X55845000Y-78583494D02*
X55470000Y-78800000D01*
X55845000Y-79016506D02*
X55845000Y-78583494D01*
%TO.C,R609*%
X79395000Y-108182742D02*
X79395000Y-108657258D01*
X80440000Y-108182742D02*
X80440000Y-108657258D01*
%TO.C,U401*%
X83590000Y-59240000D02*
X85410000Y-59240000D01*
X83590000Y-59290000D02*
X83590000Y-59240000D01*
X83590000Y-62360000D02*
X83590000Y-62310000D01*
X85410000Y-59240000D02*
X85410000Y-59290000D01*
X85410000Y-62310000D02*
X85410000Y-62360000D01*
X85410000Y-62360000D02*
X83590000Y-62360000D01*
X83050000Y-59290000D02*
X82810000Y-58960000D01*
X83290000Y-58960000D01*
X83050000Y-59290000D01*
G36*
X83050000Y-59290000D02*
G01*
X82810000Y-58960000D01*
X83290000Y-58960000D01*
X83050000Y-59290000D01*
G37*
%TO.C,C701*%
X59203652Y-55147200D02*
X58681148Y-55147200D01*
X59203652Y-56617200D02*
X58681148Y-56617200D01*
%TO.C,R610*%
X70624758Y-107117500D02*
X70150242Y-107117500D01*
X70624758Y-108162500D02*
X70150242Y-108162500D01*
%TO.C,R809*%
X90947742Y-59237500D02*
X91422258Y-59237500D01*
X90947742Y-60282500D02*
X91422258Y-60282500D01*
%TO.C,C303*%
X114372164Y-97840000D02*
X114587836Y-97840000D01*
X114372164Y-98560000D02*
X114587836Y-98560000D01*
%TO.C,R1019*%
X88707500Y-113512742D02*
X88707500Y-113987258D01*
X89752500Y-113512742D02*
X89752500Y-113987258D01*
%TO.C,C1025*%
X95836164Y-115883000D02*
X96051836Y-115883000D01*
X95836164Y-116603000D02*
X96051836Y-116603000D01*
%TO.C,C312*%
X130660580Y-75155000D02*
X130379420Y-75155000D01*
X130660580Y-76175000D02*
X130379420Y-76175000D01*
%TO.C,C613*%
X86013733Y-120840000D02*
X86306267Y-120840000D01*
X86013733Y-121860000D02*
X86306267Y-121860000D01*
%TO.C,J502*%
X51990000Y-119400000D02*
X51990000Y-134760000D01*
X51990000Y-119400000D02*
X54590000Y-119400000D01*
X51990000Y-134760000D02*
X57190000Y-134760000D01*
X54590000Y-119400000D02*
X54590000Y-122000000D01*
X54590000Y-122000000D02*
X57190000Y-122000000D01*
X55860000Y-119400000D02*
X57190000Y-119400000D01*
X57190000Y-119400000D02*
X57190000Y-120730000D01*
X57190000Y-122000000D02*
X57190000Y-134760000D01*
%TO.C,C302*%
X99107836Y-89040000D02*
X98892164Y-89040000D01*
X99107836Y-89760000D02*
X98892164Y-89760000D01*
%TO.C,U302*%
X121250000Y-76900000D02*
X121250000Y-76500000D01*
X121250000Y-99100000D02*
X121250000Y-98700000D01*
X131850000Y-76500000D02*
X121250000Y-76500000D01*
X131850000Y-76900000D02*
X131850000Y-76500000D01*
X131850000Y-98700000D02*
X131850000Y-99100000D01*
X131850000Y-99100000D02*
X121250000Y-99100000D01*
X132490000Y-99030000D02*
X132010000Y-99030000D01*
X132250000Y-98700000D01*
X132490000Y-99030000D01*
G36*
X132490000Y-99030000D02*
G01*
X132010000Y-99030000D01*
X132250000Y-98700000D01*
X132490000Y-99030000D01*
G37*
%TO.C,R617*%
X72375000Y-111442742D02*
X72375000Y-111917258D01*
X73420000Y-111442742D02*
X73420000Y-111917258D01*
%TO.C,C301*%
X114492164Y-91440000D02*
X114707836Y-91440000D01*
X114492164Y-92160000D02*
X114707836Y-92160000D01*
%TO.C,L701*%
X111189622Y-126050000D02*
X110390378Y-126050000D01*
X111189622Y-127170000D02*
X110390378Y-127170000D01*
%TO.C,C224*%
X94492164Y-78640000D02*
X94707836Y-78640000D01*
X94492164Y-79360000D02*
X94707836Y-79360000D01*
%TO.C,C615*%
X70241233Y-112680000D02*
X70533767Y-112680000D01*
X70241233Y-113700000D02*
X70533767Y-113700000D01*
%TO.C,C1015*%
X91663733Y-108230000D02*
X91956267Y-108230000D01*
X91663733Y-109250000D02*
X91956267Y-109250000D01*
%TO.C,C313*%
X99107836Y-94040000D02*
X98892164Y-94040000D01*
X99107836Y-94760000D02*
X98892164Y-94760000D01*
%TO.C,TP602*%
X107850000Y-121535000D02*
G75*
G02*
X107050000Y-121535000I-400000J0D01*
G01*
X107050000Y-121535000D02*
G75*
G02*
X107850000Y-121535000I400000J0D01*
G01*
%TO.C,R605*%
X109997258Y-124147500D02*
X109522742Y-124147500D01*
X109997258Y-125192500D02*
X109522742Y-125192500D01*
%TO.C,R626*%
X88707500Y-110182742D02*
X88707500Y-110657258D01*
X89752500Y-110182742D02*
X89752500Y-110657258D01*
%TO.C,R611*%
X80160242Y-110367500D02*
X80634758Y-110367500D01*
X80160242Y-111412500D02*
X80634758Y-111412500D01*
%TO.C,C220*%
X85707836Y-98822500D02*
X85492164Y-98822500D01*
X85707836Y-99542500D02*
X85492164Y-99542500D01*
%TO.C,R612*%
X70684758Y-117007500D02*
X70210242Y-117007500D01*
X70684758Y-118052500D02*
X70210242Y-118052500D01*
%TO.C,J801*%
X82710000Y-50800000D02*
X82710000Y-48900000D01*
X82710000Y-54700000D02*
X82710000Y-52700000D01*
X92110000Y-48900000D02*
X82710000Y-48900000D01*
X92110000Y-50800000D02*
X92110000Y-48900000D01*
X92110000Y-54700000D02*
X92110000Y-52700000D01*
%TO.C,C306*%
X133540000Y-88292164D02*
X133540000Y-88507836D01*
X134260000Y-88292164D02*
X134260000Y-88507836D01*
%TO.C,C221*%
X85936252Y-99957500D02*
X85413748Y-99957500D01*
X85936252Y-101427500D02*
X85413748Y-101427500D01*
%TO.C,U601*%
X103640000Y-125362500D02*
X103690000Y-125362500D01*
X103640000Y-127182500D02*
X103640000Y-125362500D01*
X103690000Y-127182500D02*
X103640000Y-127182500D01*
X104810000Y-125362500D02*
X105590000Y-125362500D01*
X106710000Y-125362500D02*
X106760000Y-125362500D01*
X106760000Y-125362500D02*
X106760000Y-127182500D01*
X106760000Y-127182500D02*
X106710000Y-127182500D01*
X103690000Y-127722500D02*
X103360000Y-127962500D01*
X103360000Y-127482500D01*
X103690000Y-127722500D01*
G36*
X103690000Y-127722500D02*
G01*
X103360000Y-127962500D01*
X103360000Y-127482500D01*
X103690000Y-127722500D01*
G37*
%TO.C,J604*%
X70892500Y-126390000D02*
X70892500Y-123490000D01*
X72797500Y-121585000D02*
X75697500Y-121585000D01*
X72797500Y-128295000D02*
X75697500Y-128295000D01*
X77602500Y-126390000D02*
X77602500Y-123490000D01*
%TO.C,R401*%
X132737542Y-117534700D02*
X133212058Y-117534700D01*
X132737542Y-118579700D02*
X133212058Y-118579700D01*
%TO.C,C311*%
X133490000Y-76947836D02*
X133490000Y-76732164D01*
X134210000Y-76947836D02*
X134210000Y-76732164D01*
%TO.C,C703*%
X59193564Y-59255600D02*
X58671060Y-59255600D01*
X59193564Y-60725600D02*
X58671060Y-60725600D01*
%TO.C,C702*%
X59191452Y-57226000D02*
X58668948Y-57226000D01*
X59191452Y-58696000D02*
X58668948Y-58696000D01*
%TO.C,C609*%
X80421233Y-112050000D02*
X80713767Y-112050000D01*
X80421233Y-113070000D02*
X80713767Y-113070000D01*
%TO.C,C205*%
X79807164Y-74452500D02*
X80022836Y-74452500D01*
X79807164Y-75172500D02*
X80022836Y-75172500D01*
%TO.C,U1002*%
X90160000Y-115427500D02*
X93380000Y-115427500D01*
X90160000Y-115552500D02*
X90160000Y-115427500D01*
X90160000Y-118647500D02*
X90160000Y-118522500D01*
X93380000Y-115427500D02*
X93380000Y-115552500D01*
X93380000Y-118522500D02*
X93380000Y-118647500D01*
X93380000Y-118647500D02*
X90160000Y-118647500D01*
X94170000Y-118857500D02*
X93690000Y-118857500D01*
X93930000Y-118527500D01*
X94170000Y-118857500D01*
G36*
X94170000Y-118857500D02*
G01*
X93690000Y-118857500D01*
X93930000Y-118527500D01*
X94170000Y-118857500D01*
G37*
%TO.C,C611*%
X75211233Y-105660000D02*
X75503767Y-105660000D01*
X75211233Y-106680000D02*
X75503767Y-106680000D01*
%TO.C,U701*%
X63327500Y-53990000D02*
X63327500Y-55250000D01*
X63327500Y-60810000D02*
X63327500Y-59550000D01*
X67087500Y-53990000D02*
X63327500Y-53990000D01*
X67087500Y-60810000D02*
X63327500Y-60810000D01*
X68607500Y-61040000D02*
X68127500Y-61040000D01*
X68367500Y-60710000D01*
X68607500Y-61040000D01*
G36*
X68607500Y-61040000D02*
G01*
X68127500Y-61040000D01*
X68367500Y-60710000D01*
X68607500Y-61040000D01*
G37*
%TO.C,R207*%
X103047936Y-56765000D02*
X103502064Y-56765000D01*
X103047936Y-58235000D02*
X103502064Y-58235000D01*
%TO.C,C401*%
X113007836Y-113940000D02*
X112792164Y-113940000D01*
X113007836Y-114660000D02*
X112792164Y-114660000D01*
%TO.C,R703*%
X70433859Y-59720000D02*
X70741141Y-59720000D01*
X70433859Y-60480000D02*
X70741141Y-60480000D01*
%TO.C,U603*%
X73807500Y-113437500D02*
X77027500Y-113437500D01*
X73807500Y-113562500D02*
X73807500Y-113437500D01*
X73807500Y-116657500D02*
X73807500Y-116532500D01*
X77027500Y-113437500D02*
X77027500Y-113562500D01*
X77027500Y-116532500D02*
X77027500Y-116657500D01*
X77027500Y-116657500D02*
X73807500Y-116657500D01*
X77817500Y-116867500D02*
X77337500Y-116867500D01*
X77577500Y-116537500D01*
X77817500Y-116867500D01*
G36*
X77817500Y-116867500D02*
G01*
X77337500Y-116867500D01*
X77577500Y-116537500D01*
X77817500Y-116867500D01*
G37*
%TO.C,C216*%
X117157836Y-53940000D02*
X116942164Y-53940000D01*
X117157836Y-54660000D02*
X116942164Y-54660000D01*
%TO.C,R201*%
X128273641Y-53405000D02*
X127966359Y-53405000D01*
X128273641Y-54165000D02*
X127966359Y-54165000D01*
%TO.C,JP602*%
X101055000Y-118375000D02*
X103855000Y-118375000D01*
X101055000Y-120375000D02*
X101055000Y-118375000D01*
X103855000Y-118375000D02*
X103855000Y-120375000D01*
X103855000Y-120375000D02*
X101055000Y-120375000D01*
%TO.C,F2*%
X71538748Y-61190000D02*
X74311252Y-61190000D01*
X71538748Y-64610000D02*
X74311252Y-64610000D01*
%TO.C,U602*%
X103640000Y-129712500D02*
X103690000Y-129712500D01*
X103640000Y-131232500D02*
X103640000Y-129712500D01*
X104640000Y-131232500D02*
X103640000Y-131232500D01*
X104810000Y-129712500D02*
X105590000Y-129712500D01*
X106710000Y-129712500D02*
X106760000Y-129712500D01*
X106760000Y-129712500D02*
X106760000Y-131232500D01*
X106760000Y-131232500D02*
X105760000Y-131232500D01*
X105580000Y-129172500D02*
X105250000Y-129412500D01*
X105250000Y-128932500D01*
X105580000Y-129172500D01*
G36*
X105580000Y-129172500D02*
G01*
X105250000Y-129412500D01*
X105250000Y-128932500D01*
X105580000Y-129172500D01*
G37*
%TO.C,R619*%
X72495000Y-118172742D02*
X72495000Y-118647258D01*
X73540000Y-118172742D02*
X73540000Y-118647258D01*
%TO.C,C222*%
X89850000Y-99502164D02*
X89850000Y-99717836D01*
X90570000Y-99502164D02*
X90570000Y-99717836D01*
%TO.C,C807*%
X90502164Y-58200000D02*
X90717836Y-58200000D01*
X90502164Y-58920000D02*
X90717836Y-58920000D01*
%TO.C,R607*%
X102187500Y-132317742D02*
X102187500Y-132792258D01*
X103232500Y-132317742D02*
X103232500Y-132792258D01*
%TO.C,C605*%
X67953436Y-116227800D02*
X67737764Y-116227800D01*
X67953436Y-116947800D02*
X67737764Y-116947800D01*
%TO.C,R217*%
X102702064Y-64965000D02*
X102247936Y-64965000D01*
X102702064Y-66435000D02*
X102247936Y-66435000D01*
%TO.C,C212*%
X71995000Y-75480336D02*
X71995000Y-75264664D01*
X72715000Y-75480336D02*
X72715000Y-75264664D01*
%TO.C,C606*%
X105757836Y-121575000D02*
X105542164Y-121575000D01*
X105757836Y-122295000D02*
X105542164Y-122295000D01*
%TO.C,R621*%
X70170242Y-110897500D02*
X70644758Y-110897500D01*
X70170242Y-111942500D02*
X70644758Y-111942500D01*
%TO.C,R218*%
X106702064Y-64965000D02*
X106247936Y-64965000D01*
X106702064Y-66435000D02*
X106247936Y-66435000D01*
%TO.C,TP601*%
X97595000Y-131055000D02*
X98995000Y-131055000D01*
X97595000Y-132455000D02*
X97595000Y-131055000D01*
X98995000Y-131055000D02*
X98995000Y-132455000D01*
X98995000Y-132455000D02*
X97595000Y-132455000D01*
%TO.C,C203*%
X80742836Y-98882500D02*
X80527164Y-98882500D01*
X80742836Y-99602500D02*
X80527164Y-99602500D01*
%TO.C,C603*%
X105622164Y-122575000D02*
X105837836Y-122575000D01*
X105622164Y-123295000D02*
X105837836Y-123295000D01*
%TO.C,R625*%
X93787500Y-110192742D02*
X93787500Y-110667258D01*
X94832500Y-110192742D02*
X94832500Y-110667258D01*
%TO.C,R402*%
X132738142Y-115980300D02*
X133212658Y-115980300D01*
X132738142Y-117025300D02*
X133212658Y-117025300D01*
%TO.C,R1016*%
X93757500Y-113492742D02*
X93757500Y-113967258D01*
X94802500Y-113492742D02*
X94802500Y-113967258D01*
%TO.C,R613*%
X76855000Y-118472742D02*
X76855000Y-118947258D01*
X77900000Y-118472742D02*
X77900000Y-118947258D01*
%TO.C,TP201*%
X69238400Y-69919800D02*
G75*
G02*
X68438400Y-69919800I-400000J0D01*
G01*
X68438400Y-69919800D02*
G75*
G02*
X69238400Y-69919800I400000J0D01*
G01*
%TO.C,R1015*%
X91430000Y-120357621D02*
X91430000Y-120022379D01*
X92190000Y-120357621D02*
X92190000Y-120022379D01*
%TO.C,C1024*%
X95862164Y-116920000D02*
X96077836Y-116920000D01*
X95862164Y-117640000D02*
X96077836Y-117640000D01*
%TO.C,D401*%
X128455000Y-65907500D02*
X128455000Y-68192500D01*
X129925000Y-65907500D02*
X128455000Y-65907500D01*
X129925000Y-68192500D02*
X129925000Y-65907500D01*
%TO.C,C602*%
X102685836Y-126575000D02*
X102470164Y-126575000D01*
X102685836Y-127295000D02*
X102470164Y-127295000D01*
%TO.C,C616*%
X75417836Y-112412500D02*
X75202164Y-112412500D01*
X75417836Y-113132500D02*
X75202164Y-113132500D01*
%TO.C,J701*%
X64132500Y-61445000D02*
X65512500Y-61445000D01*
X64132500Y-62825000D02*
X64132500Y-61445000D01*
X64132500Y-64095000D02*
X64132500Y-66745000D01*
X64132500Y-64095000D02*
X66782500Y-64095000D01*
X64132500Y-66745000D02*
X69432500Y-66745000D01*
X66782500Y-61445000D02*
X69432500Y-61445000D01*
X66782500Y-64095000D02*
X66782500Y-61445000D01*
X69432500Y-61445000D02*
X69432500Y-66745000D01*
%TO.C,C201*%
X69107836Y-89640000D02*
X68892164Y-89640000D01*
X69107836Y-90360000D02*
X68892164Y-90360000D01*
%TO.C,R1013*%
X94777500Y-120742742D02*
X94777500Y-121217258D01*
X95822500Y-120742742D02*
X95822500Y-121217258D01*
%TO.C,C607*%
X74793000Y-108653436D02*
X74793000Y-108437764D01*
X75513000Y-108653436D02*
X75513000Y-108437764D01*
%TO.C,R203*%
X68027064Y-74465000D02*
X67572936Y-74465000D01*
X68027064Y-75935000D02*
X67572936Y-75935000D01*
%TO.C,C308*%
X118897836Y-88920000D02*
X118682164Y-88920000D01*
X118897836Y-89640000D02*
X118682164Y-89640000D01*
%TO.C,C805*%
X93881164Y-50197000D02*
X94096836Y-50197000D01*
X93881164Y-50917000D02*
X94096836Y-50917000D01*
%TO.C,R603*%
X100567500Y-129397742D02*
X100567500Y-129872258D01*
X101612500Y-129397742D02*
X101612500Y-129872258D01*
%TO.C,C202*%
X93840000Y-77492164D02*
X93840000Y-77707836D01*
X94560000Y-77492164D02*
X94560000Y-77707836D01*
%TO.C,C213*%
X69462836Y-94332500D02*
X69247164Y-94332500D01*
X69462836Y-95052500D02*
X69247164Y-95052500D01*
%TO.C,R804*%
X80142742Y-53407500D02*
X80617258Y-53407500D01*
X80142742Y-54452500D02*
X80617258Y-54452500D01*
%TO.C,R1021*%
X88767500Y-120422742D02*
X88767500Y-120897258D01*
X89812500Y-120422742D02*
X89812500Y-120897258D01*
%TO.C,C206*%
X69445000Y-85770336D02*
X69445000Y-85554664D01*
X70165000Y-85770336D02*
X70165000Y-85554664D01*
%TD*%
M02*
